AcariSans-BoldItalic.ufo
<glyph name="exclam" format="2">
  <advance width="635"/>
  <unicode hex="0021"/>
  <outline>
    <contour>
      <point x="393" y="428" type="line"/>
      <point x="209" y="428" type="line"/>
      <point x="412" y="1434" type="line"/>
      <point x="653" y="1434" type="line"/>
    </contour>
    <contour>
      <point x="336" y="0" type="line"/>
      <point x="70" y="0" type="line"/>
      <point x="129" y="264" type="line"/>
      <point x="395" y="264" type="line"/>
    </contour>
  </outline>
</glyph>
<glyph name="dollar" format="2">
  <advance width="1114"/>
  <unicode hex="0024"/>
  <outline>
    <contour>
      <point x="492" y="-246" type="line"/>
      <point x="291" y="-246" type="line"/>
      <point x="352" y="-10" type="line"/>
      <point x="261" y="7"/>
      <point x="110" y="101"/>
      <point x="19" y="256"/>
      <point x="19" y="363" type="qcurve"/>
      <point x="20" y="395" type="line"/>
      <point x="270" y="428" type="line"/>
      <point x="268" y="397" type="line"/>
      <point x="268" y="331"/>
      <point x="327" y="249"/>
      <point x="433" y="211"/>
      <point x="502" y="211" type="qcurve" smooth="yes"/>
      <point x="614" y="211"/>
      <point x="773" y="314"/>
      <point x="801" y="426" type="qcurve"/>
      <point x="805" y="446"/>
      <point x="805" y="456" type="qcurve" smooth="yes"/>
      <point x="805" y="499"/>
      <point x="748" y="563"/>
      <point x="661" y="609"/>
      <point x="586" y="642" type="qcurve" smooth="yes"/>
      <point x="479" y="689"/>
      <point x="348" y="771"/>
      <point x="306" y="830" type="qcurve" smooth="yes"/>
      <point x="259" y="894"/>
      <point x="259" y="986" type="qcurve" smooth="yes"/>
      <point x="259" y="1102"/>
      <point x="373" y="1285"/>
      <point x="559" y="1407"/>
      <point x="672" y="1430" type="qcurve"/>
      <point x="731" y="1659" type="line"/>
      <point x="932" y="1659" type="line"/>
      <point x="872" y="1430" type="line"/>
      <point x="973" y="1413"/>
      <point x="1123" y="1295"/>
      <point x="1159" y="1190" type="qcurve"/>
      <point x="936" y="1090" type="line"/>
      <point x="897" y="1214"/>
      <point x="748" y="1214" type="qcurve" smooth="yes"/>
      <point x="666" y="1214"/>
      <point x="533" y="1118"/>
      <point x="514" y="1042" type="qcurve" smooth="yes"/>
      <point x="511" y="1029"/>
      <point x="511" y="1016" type="qcurve" smooth="yes"/>
      <point x="511" y="977"/>
      <point x="565" y="919"/>
      <point x="646" y="876"/>
      <point x="719" y="844" type="qcurve" smooth="yes"/>
      <point x="828" y="798"/>
      <point x="962" y="713"/>
      <point x="1006" y="652" type="qcurve" smooth="yes"/>
      <point x="1054" y="585"/>
      <point x="1054" y="488" type="qcurve" smooth="yes"/>
      <point x="1054" y="389"/>
      <point x="978" y="220"/>
      <point x="850" y="90"/>
      <point x="770" y="49" type="qcurve" smooth="yes"/>
      <point x="667" y="-5"/>
      <point x="551" y="-18" type="qcurve"/>
    </contour>
  </outline>
</glyph>
<glyph name="quotesingle" format="2">
  <advance width="610"/>
  <unicode hex="0027"/>
  <outline>
    <contour>
      <point x="500" y="895" type="line"/>
      <point x="295" y="895" type="line"/>
      <point x="420" y="1442" type="line"/>
      <point x="625" y="1442" type="line"/>
    </contour>
  </outline>
</glyph>
<glyph name="comma" format="2">
  <advance width="633"/>
  <unicode hex="002C"/>
  <outline>
    <contour>
      <point x="150" y="-225" type="line"/>
      <point x="-14" y="-225" type="line"/>
      <point x="199" y="264" type="line"/>
      <point x="483" y="264" type="line"/>
    </contour>
  </outline>
</glyph>
<glyph name="period" format="2">
  <advance width="647"/>
  <unicode hex="002E"/>
  <outline>
    <contour>
      <point x="332" y="0" type="line"/>
      <point x="86" y="0" type="line"/>
      <point x="145" y="264" type="line"/>
      <point x="391" y="264" type="line"/>
    </contour>
  </outline>
</glyph>
<glyph name="zero" format="2">
  <advance width="1200"/>
  <unicode hex="0030"/>
  <outline>
    <contour>
      <point x="502" y="-20" type="qcurve" smooth="yes"/>
      <point x="342" y="-20"/>
      <point x="145" y="121"/>
      <point x="60" y="349"/>
      <point x="60" y="488" type="qcurve" smooth="yes"/>
      <point x="60" y="769"/>
      <point x="217" y="1055" type="qcurve" smooth="yes"/>
      <point x="306" y="1216"/>
      <point x="601" y="1436"/>
      <point x="797" y="1436" type="qcurve" smooth="yes"/>
      <point x="949" y="1436"/>
      <point x="1143" y="1297"/>
      <point x="1236" y="1061"/>
      <point x="1236" y="916" type="qcurve" smooth="yes"/>
      <point x="1236" y="774"/>
      <point x="1145" y="461"/>
      <point x="962" y="180"/>
      <point x="825" y="82" type="qcurve"/>
      <point x="679" y="-20"/>
    </contour>
    <contour>
      <point x="524" y="219" type="qcurve" smooth="yes"/>
      <point x="628" y="219"/>
      <point x="717" y="295" type="qcurve"/>
      <point x="845" y="411"/>
      <point x="977" y="762"/>
      <point x="977" y="909" type="qcurve" smooth="yes"/>
      <point x="977" y="1035"/>
      <point x="876" y="1192"/>
      <point x="766" y="1192" type="qcurve" smooth="yes"/>
      <point x="658" y="1192"/>
      <point x="569" y="1118" type="qcurve" smooth="yes"/>
      <point x="475" y="1039"/>
      <point x="356" y="809"/>
      <point x="328" y="684" type="qcurve"/>
      <point x="306" y="591"/>
      <point x="306" y="505" type="qcurve" smooth="yes"/>
      <point x="306" y="378"/>
      <point x="411" y="219"/>
    </contour>
  </outline>
</glyph>
<glyph name="three" format="2">
  <advance width="1200"/>
  <unicode hex="0033"/>
  <outline>
    <contour>
      <point x="481" y="-20" type="qcurve" smooth="yes"/>
      <point x="362" y="-20"/>
      <point x="161" y="59"/>
      <point x="39" y="219"/>
      <point x="39" y="341" type="qcurve" smooth="yes"/>
      <point x="39" y="400"/>
      <point x="53" y="457" type="qcurve"/>
      <point x="293" y="451" type="line"/>
      <point x="286" y="422"/>
      <point x="286" y="391" type="qcurve" smooth="yes"/>
      <point x="286" y="301"/>
      <point x="411" y="213"/>
      <point x="508" y="213" type="qcurve" smooth="yes"/>
      <point x="623" y="213"/>
      <point x="827" y="333"/>
      <point x="858" y="451" type="qcurve"/>
      <point x="864" y="477"/>
      <point x="864" y="497" type="qcurve" smooth="yes"/>
      <point x="864" y="569"/>
      <point x="742" y="637"/>
      <point x="645" y="637" type="qcurve" smooth="yes"/>
      <point x="493" y="637" type="line"/>
      <point x="547" y="862" type="line"/>
      <point x="684" y="862" type="line" smooth="yes"/>
      <point x="770" y="862"/>
      <point x="898" y="959"/>
      <point x="919" y="1051" type="qcurve" smooth="yes"/>
      <point x="923" y="1067"/>
      <point x="923" y="1084" type="qcurve" smooth="yes"/>
      <point x="923" y="1140"/>
      <point x="830" y="1198"/>
      <point x="758" y="1198" type="qcurve" smooth="yes"/>
      <point x="656" y="1198"/>
      <point x="507" y="1079"/>
      <point x="483" y="987" type="qcurve"/>
      <point x="252" y="1024" type="line"/>
      <point x="302" y="1223"/>
      <point x="606" y="1434"/>
      <point x="786" y="1434" type="qcurve" smooth="yes"/>
      <point x="889" y="1434"/>
      <point x="1063" y="1361"/>
      <point x="1168" y="1219"/>
      <point x="1168" y="1116" type="qcurve" smooth="yes"/>
      <point x="1168" y="1026"/>
      <point x="1072" y="832"/>
      <point x="971" y="756" type="qcurve"/>
      <point x="1100" y="675"/>
      <point x="1100" y="503" type="qcurve" smooth="yes"/>
      <point x="1100" y="456"/>
      <point x="1089" y="399" type="qcurve"/>
      <point x="1056" y="259"/>
      <point x="875" y="73"/>
      <point x="621" y="-20"/>
    </contour>
  </outline>
</glyph>
<glyph name="seven" format="2">
  <advance width="1200"/>
  <unicode hex="0037"/>
  <outline>
    <contour>
      <point x="373" y="0" type="line"/>
      <point x="88" y="0" type="line"/>
      <point x="960" y="1182" type="line"/>
      <point x="250" y="1182" type="line"/>
      <point x="303" y="1413" type="line"/>
      <point x="1323" y="1413" type="line"/>
      <point x="1294" y="1284" type="line"/>
    </contour>
  </outline>
</glyph>
<glyph name="eight" format="2">
  <advance width="1200"/>
  <unicode hex="0038"/>
  <outline>
    <contour>
      <point x="491" y="-20" type="qcurve" smooth="yes"/>
      <point x="374" y="-20"/>
      <point x="172" y="55"/>
      <point x="48" y="209"/>
      <point x="48" y="327" type="qcurve" smooth="yes"/>
      <point x="48" y="458"/>
      <point x="199" y="696"/>
      <point x="346" y="776" type="qcurve"/>
      <point x="270" y="851"/>
      <point x="270" y="978" type="qcurve" smooth="yes"/>
      <point x="270" y="1085"/>
      <point x="363" y="1254"/>
      <point x="516" y="1372"/>
      <point x="706" y="1434"/>
      <point x="803" y="1434" type="qcurve" smooth="yes"/>
      <point x="904" y="1434"/>
      <point x="1076" y="1363"/>
      <point x="1182" y="1222"/>
      <point x="1182" y="1119" type="qcurve" smooth="yes"/>
      <point x="1182" y="1013"/>
      <point x="1075" y="822"/>
      <point x="975" y="752" type="qcurve"/>
      <point x="1109" y="662"/>
      <point x="1109" y="494" type="qcurve" smooth="yes"/>
      <point x="1109" y="405"/>
      <point x="1040" y="229"/>
      <point x="974" y="161" type="qcurve"/>
      <point x="876" y="65"/>
      <point x="622" y="-20"/>
    </contour>
    <contour>
      <point x="674" y="858" type="qcurve"/>
      <point x="765" y="858"/>
      <point x="913" y="961"/>
      <point x="936" y="1051" type="qcurve" smooth="yes"/>
      <point x="940" y="1067"/>
      <point x="940" y="1086" type="qcurve" smooth="yes"/>
      <point x="940" y="1143"/>
      <point x="849" y="1202"/>
      <point x="778" y="1202" type="qcurve" smooth="yes"/>
      <point x="691" y="1202"/>
      <point x="541" y="1103"/>
      <point x="518" y="1018" type="qcurve"/>
      <point x="513" y="995"/>
      <point x="513" y="979" type="qcurve" smooth="yes"/>
      <point x="513" y="863"/>
    </contour>
    <contour>
      <point x="518" y="207" type="qcurve" smooth="yes"/>
      <point x="633" y="207"/>
      <point x="828" y="330"/>
      <point x="858" y="449" type="qcurve" smooth="yes"/>
      <point x="864" y="473"/>
      <point x="864" y="495" type="qcurve" smooth="yes"/>
      <point x="864" y="569"/>
      <point x="740" y="643"/>
      <point x="645" y="643" type="qcurve" smooth="yes"/>
      <point x="522" y="643"/>
      <point x="332" y="521"/>
      <point x="303" y="403" type="qcurve" smooth="yes"/>
      <point x="298" y="383"/>
      <point x="298" y="359" type="qcurve" smooth="yes"/>
      <point x="298" y="307"/>
      <point x="356" y="240"/>
      <point x="456" y="207"/>
    </contour>
  </outline>
</glyph>
<glyph name="nine" format="2">
  <advance width="1200"/>
  <unicode hex="0039"/>
  <outline>
    <contour>
      <point x="502" y="0" type="line"/>
      <point x="205" y="0" type="line"/>
      <point x="627" y="465" type="line"/>
      <point x="553" y="465"/>
      <point x="440" y="484"/>
      <point x="382" y="514" type="qcurve"/>
      <point x="288" y="560"/>
      <point x="177" y="733"/>
      <point x="177" y="851" type="qcurve" smooth="yes"/>
      <point x="177" y="959"/>
      <point x="269" y="1157"/>
      <point x="428" y="1317"/>
      <point x="531" y="1369" type="qcurve" smooth="yes"/>
      <point x="661" y="1434"/>
      <point x="803" y="1434" type="qcurve" smooth="yes"/>
      <point x="933" y="1434"/>
      <point x="1122" y="1327"/>
      <point x="1225" y="1146"/>
      <point x="1225" y="1036" type="qcurve" smooth="yes"/>
      <point x="1225" y="847"/>
      <point x="1087" y="686" type="qcurve" smooth="yes"/>
    </contour>
    <contour>
      <point x="627" y="684" type="qcurve" smooth="yes"/>
      <point x="708" y="684"/>
      <point x="854" y="762"/>
      <point x="956" y="888"/>
      <point x="973" y="963" type="qcurve" smooth="yes"/>
      <point x="979" y="989"/>
      <point x="979" y="1012" type="qcurve" smooth="yes"/>
      <point x="979" y="1090"/>
      <point x="865" y="1196"/>
      <point x="772" y="1196" type="qcurve" smooth="yes"/>
      <point x="691" y="1196"/>
      <point x="546" y="1117"/>
      <point x="445" y="991"/>
      <point x="428" y="918" type="qcurve" smooth="yes"/>
      <point x="422" y="893"/>
      <point x="422" y="868" type="qcurve" smooth="yes"/>
      <point x="422" y="784"/>
      <point x="541" y="684"/>
    </contour>
  </outline>
</glyph>
<glyph name="colon" format="2">
  <advance width="676"/>
  <unicode hex="003A"/>
  <outline>
    <contour>
      <point x="514" y="690" type="line"/>
      <point x="248" y="690" type="line"/>
      <point x="309" y="954" type="line"/>
      <point x="575" y="954" type="line"/>
    </contour>
    <contour>
      <point x="356" y="0" type="line"/>
      <point x="90" y="0" type="line"/>
      <point x="150" y="264" type="line"/>
      <point x="416" y="264" type="line"/>
    </contour>
  </outline>
</glyph>
<glyph name="semicolon" format="2">
  <advance width="659"/>
  <unicode hex="003B"/>
  <outline>
    <contour>
      <point x="539" y="690" type="line"/>
      <point x="272" y="690" type="line"/>
      <point x="334" y="954" type="line"/>
      <point x="600" y="954" type="line"/>
    </contour>
    <contour>
      <point x="164" y="-225" type="line"/>
      <point x="0" y="-225" type="line"/>
      <point x="213" y="264" type="line"/>
      <point x="498" y="264" type="line"/>
    </contour>
  </outline>
</glyph>
<glyph name="greater" format="2">
  <advance width="1237"/>
  <unicode hex="003E"/>
  <outline>
    <contour>
      <point x="207" y="152" type="line"/>
      <point x="104" y="330" type="line"/>
      <point x="797" y="674" type="line"/>
      <point x="104" y="1018" type="line"/>
      <point x="207" y="1196" type="line"/>
      <point x="1192" y="674" type="line"/>
    </contour>
  </outline>
</glyph>
<glyph name="at" format="2">
  <advance width="2009"/>
  <unicode hex="0040"/>
  <outline>
    <contour>
      <point x="813" y="-348" type="qcurve" smooth="yes"/>
      <point x="608" y="-348"/>
      <point x="272" y="-193"/>
      <point x="173" y="-35" type="qcurve" smooth="yes"/>
      <point x="79" y="116"/>
      <point x="79" y="320" type="qcurve" smooth="yes"/>
      <point x="79" y="424"/>
      <point x="106" y="543" type="qcurve"/>
      <point x="165" y="792"/>
      <point x="480" y="1192"/>
      <point x="717" y="1314" type="qcurve" smooth="yes"/>
      <point x="949" y="1432"/>
      <point x="1214" y="1432" type="qcurve" smooth="yes"/>
      <point x="1394" y="1432"/>
      <point x="1668" y="1325"/>
      <point x="1853" y="1137"/>
      <point x="1947" y="885"/>
      <point x="1947" y="741" type="qcurve" smooth="yes"/>
      <point x="1947" y="533"/>
      <point x="1764" y="128"/>
      <point x="1598" y="9" type="qcurve"/>
      <point x="1476" y="-76"/>
      <point x="1329" y="-76" type="qcurve" smooth="yes"/>
      <point x="1209" y="-76"/>
      <point x="1094" y="33"/>
      <point x="1094" y="118" type="qcurve" smooth="yes"/>
      <point x="1094" y="143"/>
      <point x="1098" y="164" type="qcurve"/>
      <point x="954" y="43"/>
      <point x="784" y="43" type="qcurve" smooth="yes"/>
      <point x="651" y="43"/>
      <point x="516" y="204"/>
      <point x="516" y="335" type="qcurve" smooth="yes"/>
      <point x="516" y="485"/>
      <point x="701" y="844"/>
      <point x="871" y="970" type="qcurve"/>
      <point x="1000" y="1061"/>
      <point x="1143" y="1061" type="qcurve" smooth="yes"/>
      <point x="1240" y="1061"/>
      <point x="1356" y="978"/>
      <point x="1378" y="915" type="qcurve"/>
      <point x="1421" y="1012" type="line"/>
      <point x="1618" y="1001" type="line"/>
      <point x="1586" y="928"/>
      <point x="1516" y="779" type="qcurve" smooth="yes"/>
      <point x="1428" y="590"/>
      <point x="1359" y="433" type="qcurve"/>
      <point x="1305" y="306"/>
      <point x="1284" y="213" type="qcurve"/>
      <point x="1277" y="178"/>
      <point x="1277" y="165" type="qcurve" smooth="yes"/>
      <point x="1277" y="141"/>
      <point x="1307" y="123"/>
      <point x="1343" y="123" type="qcurve" smooth="yes"/>
      <point x="1443" y="123"/>
      <point x="1525" y="189" type="qcurve" smooth="yes"/>
      <point x="1610" y="259"/>
      <point x="1717" y="462"/>
      <point x="1741" y="571" type="qcurve"/>
      <point x="1760" y="651"/>
      <point x="1760" y="732" type="qcurve" smooth="yes"/>
      <point x="1760" y="870"/>
      <point x="1638" y="1105"/>
      <point x="1505" y="1178" type="qcurve"/>
      <point x="1378" y="1245"/>
      <point x="1198" y="1245" type="qcurve" smooth="yes"/>
      <point x="1027" y="1245"/>
      <point x="726" y="1127"/>
      <point x="486" y="922"/>
      <point x="323" y="654"/>
      <point x="287" y="502" type="qcurve" smooth="yes"/>
      <point x="267" y="418"/>
      <point x="267" y="337" type="qcurve" smooth="yes"/>
      <point x="267" y="179"/>
      <point x="416" y="-39"/>
      <point x="673" y="-152"/>
      <point x="834" y="-152" type="qcurve" smooth="yes"/>
      <point x="964" y="-152"/>
      <point x="1090" y="-109" type="qcurve"/>
      <point x="1128" y="-299" type="line"/>
      <point x="982" y="-348"/>
    </contour>
    <contour>
      <point x="819" y="238" type="line" smooth="yes"/>
      <point x="901" y="238"/>
      <point x="1047" y="321"/>
      <point x="1165" y="456"/>
      <point x="1247" y="616"/>
      <point x="1266" y="694" type="qcurve"/>
      <point x="1274" y="734"/>
      <point x="1274" y="761" type="qcurve" smooth="yes"/>
      <point x="1274" y="866"/>
      <point x="1159" y="866" type="qcurve" smooth="yes"/>
      <point x="998" y="866"/>
      <point x="866" y="718" type="qcurve" smooth="yes"/>
      <point x="806" y="651"/>
      <point x="724" y="492"/>
      <point x="705" y="414" type="qcurve"/>
      <point x="697" y="374"/>
      <point x="697" y="347" type="qcurve" smooth="yes"/>
      <point x="697" y="238"/>
      <point x="813" y="238" type="qcurve" smooth="yes"/>
    </contour>
  </outline>
</glyph>
<glyph name="B" format="2">
  <advance width="1274"/>
  <unicode hex="0042"/>
  <outline>
    <contour>
      <point x="625" y="0" type="qcurve" smooth="yes"/>
      <point x="68" y="0" type="line"/>
      <point x="393" y="1413" type="line"/>
      <point x="877" y="1413" type="line" smooth="yes"/>
      <point x="1034" y="1413"/>
      <point x="1138" y="1344" type="qcurve" smooth="yes"/>
      <point x="1256" y="1266"/>
      <point x="1256" y="1113" type="qcurve" smooth="yes"/>
      <point x="1256" y="968"/>
      <point x="1161" y="855" type="qcurve" smooth="yes"/>
      <point x="1100" y="783"/>
      <point x="1024" y="745" type="qcurve"/>
      <point x="1096" y="714"/>
      <point x="1177" y="563"/>
      <point x="1177" y="473" type="qcurve" smooth="yes"/>
      <point x="1177" y="428"/>
      <point x="1167" y="387" type="qcurve" smooth="yes"/>
      <point x="1137" y="262"/>
      <point x="972" y="89"/>
      <point x="745" y="0"/>
    </contour>
    <contour>
      <point x="770" y="844" type="line" smooth="yes"/>
      <point x="855" y="844"/>
      <point x="992" y="936"/>
      <point x="1016" y="1040" type="qcurve" smooth="yes"/>
      <point x="1020" y="1055"/>
      <point x="1020" y="1072" type="qcurve" smooth="yes"/>
      <point x="1020" y="1131"/>
      <point x="919" y="1184"/>
      <point x="840" y="1184" type="qcurve" smooth="yes"/>
      <point x="594" y="1184" type="line"/>
      <point x="516" y="844" type="line"/>
    </contour>
    <contour>
      <point x="672" y="242" type="line" smooth="yes"/>
      <point x="767" y="242"/>
      <point x="908" y="348"/>
      <point x="936" y="461" type="qcurve"/>
      <point x="940" y="483"/>
      <point x="940" y="493" type="qcurve" smooth="yes"/>
      <point x="940" y="548"/>
      <point x="850" y="625"/>
      <point x="762" y="625" type="qcurve" smooth="yes"/>
      <point x="465" y="625" type="line"/>
      <point x="377" y="242" type="line"/>
    </contour>
  </outline>
</glyph>
<glyph name="C" format="2">
  <advance width="1432"/>
  <unicode hex="0043"/>
  <outline>
    <contour>
      <point x="659" y="-20" type="qcurve" smooth="yes"/>
      <point x="470" y="-20"/>
      <point x="227" y="118"/>
      <point x="109" y="359"/>
      <point x="109" y="512" type="qcurve" smooth="yes"/>
      <point x="109" y="653"/>
      <point x="201" y="952"/>
      <point x="291" y="1084" type="qcurve" smooth="yes"/>
      <point x="401" y="1244"/>
      <point x="747" y="1436"/>
      <point x="967" y="1436" type="qcurve" smooth="yes"/>
      <point x="1182" y="1436"/>
      <point x="1468" y="1219"/>
      <point x="1501" y="1020" type="qcurve"/>
      <point x="1249" y="946" type="line"/>
      <point x="1243" y="1040"/>
      <point x="1162" y="1159"/>
      <point x="1024" y="1214"/>
      <point x="936" y="1214" type="qcurve" smooth="yes"/>
      <point x="786" y="1214"/>
      <point x="560" y="1073"/>
      <point x="412" y="838"/>
      <point x="379" y="694" type="qcurve" smooth="yes"/>
      <point x="359" y="606"/>
      <point x="359" y="532" type="qcurve" smooth="yes"/>
      <point x="359" y="387"/>
      <point x="519" y="221"/>
      <point x="688" y="221" type="qcurve" smooth="yes"/>
      <point x="838" y="221"/>
      <point x="1062" y="359"/>
      <point x="1145" y="494" type="qcurve"/>
      <point x="1358" y="377" type="line"/>
      <point x="1223" y="174"/>
      <point x="860" y="-20"/>
    </contour>
  </outline>
</glyph>
<glyph name="D" format="2">
  <advance width="1409"/>
  <unicode hex="0044"/>
  <outline>
    <contour>
      <point x="481" y="0" type="qcurve" smooth="yes"/>
      <point x="68" y="0" type="line"/>
      <point x="393" y="1413" type="line"/>
      <point x="797" y="1413" type="line" smooth="yes"/>
      <point x="1002" y="1413"/>
      <point x="1268" y="1290"/>
      <point x="1397" y="1063"/>
      <point x="1397" y="906" type="qcurve" smooth="yes"/>
      <point x="1397" y="802"/>
      <point x="1368" y="674" type="qcurve"/>
      <point x="1290" y="346"/>
      <point x="832" y="0"/>
    </contour>
    <contour>
      <point x="498" y="233" type="line" smooth="yes"/>
      <point x="744" y="233"/>
      <point x="1066" y="467"/>
      <point x="1126" y="729" type="qcurve" smooth="yes"/>
      <point x="1149" y="830"/>
      <point x="1149" y="903" type="qcurve" smooth="yes"/>
      <point x="1149" y="1047"/>
      <point x="964" y="1180"/>
      <point x="752" y="1180" type="qcurve" smooth="yes"/>
      <point x="594" y="1180" type="line"/>
      <point x="375" y="233" type="line"/>
    </contour>
  </outline>
</glyph>
<glyph name="E" format="2">
  <advance width="1245"/>
  <unicode hex="0045"/>
  <outline>
    <contour>
      <point x="1008" y="0" type="line"/>
      <point x="68" y="0" type="line"/>
      <point x="393" y="1413" type="line"/>
      <point x="1333" y="1413" type="line"/>
      <point x="1280" y="1180" type="line"/>
      <point x="594" y="1180" type="line"/>
      <point x="510" y="823" type="line"/>
      <point x="1149" y="823" type="line"/>
      <point x="1096" y="590" type="line"/>
      <point x="457" y="590" type="line"/>
      <point x="377" y="240" type="line"/>
      <point x="1063" y="240" type="line"/>
    </contour>
  </outline>
</glyph>
<glyph name="J" format="2">
  <advance width="1139"/>
  <unicode hex="004A"/>
  <outline>
    <contour>
      <point x="401" y="-20" type="qcurve" smooth="yes"/>
      <point x="271" y="-20"/>
      <point x="98" y="83"/>
      <point x="13" y="258"/>
      <point x="13" y="365" type="qcurve" smooth="yes"/>
      <point x="13" y="400"/>
      <point x="20" y="451" type="qcurve"/>
      <point x="270" y="459" type="line"/>
      <point x="264" y="423"/>
      <point x="264" y="390" type="qcurve" smooth="yes"/>
      <point x="264" y="310"/>
      <point x="342" y="215"/>
      <point x="430" y="215" type="qcurve" smooth="yes"/>
      <point x="565" y="215"/>
      <point x="702" y="366"/>
      <point x="735" y="516" type="qcurve"/>
      <point x="889" y="1180" type="line"/>
      <point x="356" y="1180" type="line"/>
      <point x="410" y="1413" type="line"/>
      <point x="1196" y="1413" type="line"/>
      <point x="985" y="500" type="line" smooth="yes"/>
      <point x="929" y="258"/>
      <point x="643" y="-20"/>
    </contour>
  </outline>
</glyph>
<glyph name="K" format="2">
  <advance width="1491"/>
  <unicode hex="004B"/>
  <outline>
    <contour>
      <point x="1356" y="0" type="line"/>
      <point x="1047" y="0" type="line"/>
      <point x="766" y="664" type="line"/>
      <point x="408" y="367" type="line"/>
      <point x="322" y="0" type="line"/>
      <point x="68" y="0" type="line"/>
      <point x="393" y="1413" type="line"/>
      <point x="647" y="1413" type="line"/>
      <point x="475" y="676" type="line"/>
      <point x="1333" y="1413" type="line"/>
      <point x="1677" y="1413" type="line"/>
      <point x="977" y="834" type="line"/>
    </contour>
  </outline>
</glyph>
<glyph name="N" format="2">
  <advance width="1454"/>
  <unicode hex="004E"/>
  <outline>
    <contour>
      <point x="1157" y="0" type="line"/>
      <point x="905" y="0" type="line"/>
      <point x="543" y="991" type="line"/>
      <point x="311" y="0" type="line"/>
      <point x="68" y="0" type="line"/>
      <point x="393" y="1413" type="line"/>
      <point x="643" y="1413" type="line"/>
      <point x="1008" y="424" type="line"/>
      <point x="1239" y="1413" type="line"/>
      <point x="1483" y="1413" type="line"/>
    </contour>
  </outline>
</glyph>
<glyph name="O" format="2">
  <advance width="1528"/>
  <unicode hex="004F"/>
  <outline>
    <contour>
      <point x="657" y="-20" type="qcurve" smooth="yes"/>
      <point x="469" y="-20"/>
      <point x="226" y="118"/>
      <point x="108" y="357"/>
      <point x="108" y="510" type="qcurve" smooth="yes"/>
      <point x="108" y="644"/>
      <point x="198" y="947"/>
      <point x="290" y="1083" type="qcurve" smooth="yes"/>
      <point x="400" y="1243"/>
      <point x="746" y="1434"/>
      <point x="967" y="1434" type="qcurve" smooth="yes"/>
      <point x="1154" y="1434"/>
      <point x="1397" y="1296"/>
      <point x="1515" y="1056"/>
      <point x="1515" y="902" type="qcurve" smooth="yes"/>
      <point x="1515" y="759"/>
      <point x="1423" y="460"/>
      <point x="1334" y="331" type="qcurve" smooth="yes"/>
      <point x="1224" y="171"/>
      <point x="878" y="-20"/>
    </contour>
    <contour>
      <point x="682" y="205" type="qcurve" smooth="yes"/>
      <point x="831" y="205"/>
      <point x="943" y="276" type="qcurve"/>
      <point x="1160" y="416"/>
      <point x="1231" y="729" type="qcurve"/>
      <point x="1252" y="818"/>
      <point x="1252" y="898" type="qcurve" smooth="yes"/>
      <point x="1252" y="1041"/>
      <point x="1102" y="1208"/>
      <point x="940" y="1208" type="qcurve" smooth="yes"/>
      <point x="792" y="1208"/>
      <point x="681" y="1138" type="qcurve"/>
      <point x="566" y="1063"/>
      <point x="425" y="828"/>
      <point x="393" y="684" type="qcurve"/>
      <point x="372" y="596"/>
      <point x="372" y="514" type="qcurve" smooth="yes"/>
      <point x="372" y="372"/>
      <point x="521" y="205"/>
    </contour>
  </outline>
</glyph>
<glyph name="P" format="2">
  <advance width="1167"/>
  <unicode hex="0050"/>
  <outline>
    <contour>
      <point x="319" y="0" type="line"/>
      <point x="68" y="0" type="line"/>
      <point x="393" y="1413" type="line"/>
      <point x="829" y="1413" type="line" smooth="yes"/>
      <point x="948" y="1413"/>
      <point x="1137" y="1338"/>
      <point x="1246" y="1191"/>
      <point x="1246" y="1081" type="qcurve" smooth="yes"/>
      <point x="1246" y="996"/>
      <point x="1183" y="828"/>
      <point x="1123" y="763" type="qcurve" smooth="yes"/>
      <point x="1036" y="671"/>
      <point x="791" y="586"/>
      <point x="651" y="586" type="qcurve" smooth="yes"/>
      <point x="455" y="586" type="line"/>
    </contour>
    <contour>
      <point x="692" y="823" type="line" smooth="yes"/>
      <point x="949" y="823"/>
      <point x="991" y="1018" type="qcurve"/>
      <point x="997" y="1041"/>
      <point x="997" y="1060" type="qcurve" smooth="yes"/>
      <point x="997" y="1176"/>
      <point x="793" y="1176" type="qcurve" smooth="yes"/>
      <point x="590" y="1176" type="line"/>
      <point x="508" y="823" type="line"/>
    </contour>
  </outline>
</glyph>
<glyph name="R" format="2">
  <advance width="1268"/>
  <unicode hex="0052"/>
  <outline>
    <contour>
      <point x="1126" y="-2" type="line"/>
      <point x="852" y="-2" type="line"/>
      <point x="643" y="604" type="line"/>
      <point x="461" y="604" type="line"/>
      <point x="319" y="-2" type="line"/>
      <point x="66" y="-2" type="line"/>
      <point x="393" y="1413" type="line"/>
      <point x="844" y="1413" type="line" smooth="yes"/>
      <point x="956" y="1413"/>
      <point x="1141" y="1336"/>
      <point x="1251" y="1186"/>
      <point x="1251" y="1077" type="qcurve" smooth="yes"/>
      <point x="1251" y="997"/>
      <point x="1187" y="832"/>
      <point x="1114" y="760" type="qcurve" smooth="yes"/>
      <point x="1018" y="667"/>
      <point x="885" y="625" type="qcurve"/>
    </contour>
    <contour>
      <point x="727" y="811" type="line"/>
      <point x="829" y="817"/>
      <point x="974" y="924"/>
      <point x="995" y="1016" type="qcurve" smooth="yes"/>
      <point x="1000" y="1039"/>
      <point x="1000" y="1056" type="qcurve" smooth="yes"/>
      <point x="1000" y="1114"/>
      <point x="904" y="1186"/>
      <point x="807" y="1186" type="qcurve" smooth="yes"/>
      <point x="596" y="1186" type="line"/>
      <point x="510" y="811" type="line"/>
    </contour>
  </outline>
</glyph>
<glyph name="S" format="2">
  <advance width="1137"/>
  <unicode hex="0053"/>
  <outline>
    <contour>
      <point x="522" y="-16" type="qcurve" smooth="yes"/>
      <point x="390" y="-16"/>
      <point x="163" y="79"/>
      <point x="92" y="179" type="qcurve" smooth="yes"/>
      <point x="25" y="275"/>
      <point x="25" y="410" type="qcurve"/>
      <point x="285" y="453" type="line"/>
      <point x="285" y="373"/>
      <point x="354" y="269"/>
      <point x="475" y="219"/>
      <point x="551" y="219" type="qcurve" smooth="yes"/>
      <point x="661" y="219"/>
      <point x="805" y="322"/>
      <point x="805" y="422" type="qcurve" smooth="yes"/>
      <point x="805" y="487"/>
      <point x="773" y="533" type="qcurve" smooth="yes"/>
      <point x="743" y="575"/>
      <point x="645" y="642"/>
      <point x="559" y="685" type="qcurve" smooth="yes"/>
      <point x="459" y="734"/>
      <point x="339" y="820"/>
      <point x="300" y="881" type="qcurve" smooth="yes"/>
      <point x="258" y="947"/>
      <point x="258" y="1044" type="qcurve" smooth="yes"/>
      <point x="258" y="1165"/>
      <point x="384" y="1340"/>
      <point x="595" y="1434"/>
      <point x="723" y="1434" type="qcurve" smooth="yes"/>
      <point x="870" y="1434"/>
      <point x="1116" y="1305"/>
      <point x="1163" y="1176" type="qcurve"/>
      <point x="944" y="1071" type="line"/>
      <point x="922" y="1142"/>
      <point x="796" y="1219"/>
      <point x="721" y="1219" type="qcurve" smooth="yes"/>
      <point x="669" y="1219"/>
      <point x="576" y="1181"/>
      <point x="518" y="1109"/>
      <point x="518" y="1057" type="qcurve" smooth="yes"/>
      <point x="518" y="1007"/>
      <point x="576" y="931"/>
      <point x="661" y="876"/>
      <point x="739" y="834" type="qcurve" smooth="yes"/>
      <point x="843" y="778"/>
      <point x="973" y="686"/>
      <point x="1065" y="537"/>
      <point x="1065" y="432" type="qcurve" smooth="yes"/>
      <point x="1065" y="294"/>
      <point x="915" y="93"/>
      <point x="668" y="-16"/>
    </contour>
  </outline>
</glyph>
<glyph name="T" format="2">
  <advance width="1180"/>
  <unicode hex="0054"/>
  <outline>
    <contour>
      <point x="602" y="0" type="line"/>
      <point x="348" y="0" type="line"/>
      <point x="621" y="1186" type="line"/>
      <point x="178" y="1186" type="line"/>
      <point x="231" y="1413" type="line"/>
      <point x="1370" y="1413" type="line"/>
      <point x="1317" y="1186" type="line"/>
      <point x="874" y="1186" type="line"/>
    </contour>
  </outline>
</glyph>
<glyph name="bracketleft" format="2">
  <advance width="641"/>
  <unicode hex="005B"/>
  <outline>
    <contour>
      <point x="455" y="-164" type="line"/>
      <point x="23" y="-164" type="line"/>
      <point x="424" y="1573" type="line"/>
      <point x="856" y="1573" type="line"/>
      <point x="819" y="1411" type="line"/>
      <point x="584" y="1411" type="line"/>
      <point x="258" y="0" type="line"/>
      <point x="494" y="0" type="line"/>
    </contour>
  </outline>
</glyph>
<glyph name="bracketright" format="2">
  <advance width="641"/>
  <unicode hex="005D"/>
  <outline>
    <contour>
      <point x="311" y="-164" type="line"/>
      <point x="-121" y="-164" type="line"/>
      <point x="-82" y="0" type="line"/>
      <point x="154" y="0" type="line"/>
      <point x="479" y="1411" type="line"/>
      <point x="244" y="1411" type="line"/>
      <point x="281" y="1573" type="line"/>
      <point x="713" y="1573" type="line"/>
    </contour>
  </outline>
</glyph>
<glyph name="asciicircum" format="2">
  <advance width="981"/>
  <unicode hex="005E"/>
  <outline>
    <contour>
      <point x="985" y="805" type="line"/>
      <point x="750" y="805" type="line"/>
      <point x="635" y="1106" type="line"/>
      <point x="379" y="805" type="line"/>
      <point x="131" y="805" type="line"/>
      <point x="715" y="1497" type="line"/>
    </contour>
  </outline>
</glyph>
<glyph name="underscore" format="2">
  <advance width="1247"/>
  <unicode hex="005F"/>
  <outline>
    <contour>
      <point x="891" y="-184" type="line"/>
      <point x="41" y="-184" type="line"/>
      <point x="84" y="0" type="line"/>
      <point x="934" y="0" type="line"/>
    </contour>
  </outline>
</glyph>
<glyph name="b" format="2">
  <advance width="1176"/>
  <unicode hex="0062"/>
  <outline>
    <contour>
      <point x="578" y="-20" type="qcurve" smooth="yes"/>
      <point x="496" y="-20"/>
      <point x="352" y="43"/>
      <point x="313" y="109" type="qcurve"/>
      <point x="285" y="0" type="line"/>
      <point x="33" y="0" type="line"/>
      <point x="358" y="1411" type="line"/>
      <point x="610" y="1411" type="line"/>
      <point x="489" y="907" type="line"/>
      <point x="609" y="1020"/>
      <point x="786" y="1020" type="qcurve" smooth="yes"/>
      <point x="901" y="1020"/>
      <point x="1052" y="922"/>
      <point x="1127" y="751"/>
      <point x="1127" y="642" type="qcurve" smooth="yes"/>
      <point x="1127" y="521"/>
      <point x="1048" y="285"/>
      <point x="902" y="95"/>
      <point x="700" y="-20"/>
    </contour>
    <contour>
      <point x="541" y="205" type="qcurve" smooth="yes"/>
      <point x="668" y="205"/>
      <point x="839" y="382"/>
      <point x="870" y="522" type="qcurve" smooth="yes"/>
      <point x="883" y="577"/>
      <point x="883" y="620" type="qcurve" smooth="yes"/>
      <point x="883" y="699"/>
      <point x="799" y="799"/>
      <point x="705" y="799" type="qcurve" smooth="yes"/>
      <point x="618" y="799"/>
      <point x="484" y="714"/>
      <point x="394" y="569"/>
      <point x="373" y="477" type="qcurve" smooth="yes"/>
      <point x="361" y="426"/>
      <point x="361" y="383" type="qcurve" smooth="yes"/>
      <point x="361" y="304"/>
      <point x="446" y="205"/>
    </contour>
  </outline>
</glyph>
<glyph name="c" format="2">
  <advance width="1004"/>
  <unicode hex="0063"/>
  <outline>
    <contour>
      <point x="434" y="-20" type="qcurve" smooth="yes"/>
      <point x="301" y="-20"/>
      <point x="128" y="83"/>
      <point x="44" y="261"/>
      <point x="44" y="372" type="qcurve" smooth="yes"/>
      <point x="44" y="530"/>
      <point x="207" y="848"/>
      <point x="372" y="947" type="qcurve"/>
      <point x="493" y="1016"/>
      <point x="645" y="1016" type="qcurve" smooth="yes"/>
      <point x="748" y="1016"/>
      <point x="903" y="939"/>
      <point x="1000" y="804"/>
      <point x="1018" y="715" type="qcurve"/>
      <point x="774" y="645" type="line"/>
      <point x="770" y="718"/>
      <point x="686" y="786"/>
      <point x="618" y="786" type="qcurve" smooth="yes"/>
      <point x="532" y="786"/>
      <point x="403" y="701"/>
      <point x="318" y="560"/>
      <point x="299" y="475" type="qcurve"/>
      <point x="287" y="426"/>
      <point x="287" y="381" type="qcurve" smooth="yes"/>
      <point x="287" y="306"/>
      <point x="367" y="209"/>
      <point x="459" y="209" type="qcurve" smooth="yes"/>
      <point x="540" y="209"/>
      <point x="671" y="300"/>
      <point x="707" y="371" type="qcurve"/>
      <point x="909" y="266" type="line"/>
      <point x="823" y="121"/>
      <point x="573" y="-20"/>
    </contour>
  </outline>
</glyph>
<glyph name="e" format="2">
  <advance width="1067"/>
  <unicode hex="0065"/>
  <outline>
    <contour>
      <point x="451" y="-12" type="qcurve" smooth="yes"/>
      <point x="312" y="-12"/>
      <point x="131" y="89"/>
      <point x="42" y="264"/>
      <point x="42" y="374" type="qcurve" smooth="yes"/>
      <point x="42" y="528"/>
      <point x="205" y="845"/>
      <point x="368" y="943" type="qcurve"/>
      <point x="490" y="1012"/>
      <point x="641" y="1012" type="qcurve" smooth="yes"/>
      <point x="843" y="1012"/>
      <point x="1025" y="814"/>
      <point x="1025" y="654" type="qcurve" smooth="yes"/>
      <point x="1025" y="591"/>
      <point x="999" y="454"/>
      <point x="981" y="410" type="qcurve"/>
      <point x="291" y="410" type="line"/>
      <point x="289" y="379" type="line"/>
      <point x="289" y="215"/>
      <point x="475" y="215" type="qcurve" smooth="yes"/>
      <point x="561" y="215"/>
      <point x="691" y="261"/>
      <point x="754" y="315" type="qcurve"/>
      <point x="895" y="152" type="line"/>
      <point x="712" y="-12"/>
    </contour>
    <contour>
      <point x="793" y="586" type="line"/>
      <point x="796" y="615"/>
      <point x="796" y="638" type="qcurve" smooth="yes"/>
      <point x="796" y="729"/>
      <point x="710" y="807"/>
      <point x="621" y="807" type="qcurve" smooth="yes"/>
      <point x="550" y="807"/>
      <point x="440" y="748"/>
      <point x="359" y="649"/>
      <point x="334" y="586" type="qcurve"/>
    </contour>
  </outline>
</glyph>
<glyph name="g" format="2">
  <advance width="1167"/>
  <unicode hex="0067"/>
  <outline>
    <contour>
      <point x="348" y="-438" type="qcurve" smooth="yes"/>
      <point x="188" y="-438"/>
      <point x="-4" y="-318"/>
      <point x="-55" y="-215" type="qcurve"/>
      <point x="152" y="-98" type="line"/>
      <point x="169" y="-153"/>
      <point x="279" y="-225"/>
      <point x="375" y="-225" type="qcurve" smooth="yes"/>
      <point x="480" y="-225"/>
      <point x="632" y="-110"/>
      <point x="662" y="10" type="qcurve" smooth="yes"/>
      <point x="688" y="113" type="line"/>
      <point x="572" y="0"/>
      <point x="391" y="0" type="qcurve" smooth="yes"/>
      <point x="277" y="0"/>
      <point x="125" y="98"/>
      <point x="50" y="266"/>
      <point x="50" y="372" type="qcurve" smooth="yes"/>
      <point x="50" y="466"/>
      <point x="111" y="678"/>
      <point x="173" y="774" type="qcurve" smooth="yes"/>
      <point x="220" y="845"/>
      <point x="348" y="956"/>
      <point x="505" y="1020"/>
      <point x="596" y="1020" type="qcurve" smooth="yes"/>
      <point x="678" y="1020"/>
      <point x="821" y="957"/>
      <point x="860" y="891" type="qcurve"/>
      <point x="889" y="999" type="line"/>
      <point x="1135" y="999" type="line"/>
      <point x="901" y="-10" type="line" smooth="yes"/>
      <point x="853" y="-219"/>
      <point x="562" y="-438"/>
    </contour>
    <contour>
      <point x="477" y="225" type="qcurve" smooth="yes"/>
      <point x="602" y="225"/>
      <point x="686" y="311" type="qcurve" smooth="yes"/>
      <point x="747" y="374"/>
      <point x="814" y="545"/>
      <point x="814" y="621" type="qcurve" smooth="yes"/>
      <point x="814" y="699"/>
      <point x="730" y="799"/>
      <point x="635" y="799" type="qcurve" smooth="yes"/>
      <point x="549" y="799"/>
      <point x="415" y="714"/>
      <point x="326" y="573"/>
      <point x="307" y="487" type="qcurve" smooth="yes"/>
      <point x="296" y="438"/>
      <point x="296" y="399" type="qcurve" smooth="yes"/>
      <point x="296" y="323"/>
      <point x="381" y="225"/>
    </contour>
  </outline>
</glyph>
<glyph name="h" format="2">
  <advance width="1165"/>
  <unicode hex="0068"/>
  <outline>
    <contour>
      <point x="936" y="0" type="line"/>
      <point x="688" y="0" type="line"/>
      <point x="821" y="580" type="line"/>
      <point x="835" y="638"/>
      <point x="835" y="681" type="qcurve" smooth="yes"/>
      <point x="835" y="788"/>
      <point x="725" y="788" type="qcurve" smooth="yes"/>
      <point x="650" y="788"/>
      <point x="513" y="712"/>
      <point x="416" y="598"/>
      <point x="401" y="537" type="qcurve"/>
      <point x="279" y="0" type="line"/>
      <point x="31" y="0" type="line"/>
      <point x="356" y="1413" type="line"/>
      <point x="604" y="1413" type="line"/>
      <point x="479" y="891" type="line"/>
      <point x="611" y="1016"/>
      <point x="788" y="1016" type="qcurve" smooth="yes"/>
      <point x="940" y="1016"/>
      <point x="1086" y="848"/>
      <point x="1086" y="716" type="qcurve" smooth="yes"/>
      <point x="1086" y="653"/>
      <point x="1071" y="590" type="qcurve" smooth="yes"/>
    </contour>
  </outline>
</glyph>
<glyph name="i" format="2">
  <advance width="532"/>
  <unicode hex="0069"/>
  <outline>
    <contour>
      <point x="555" y="1188" type="line"/>
      <point x="299" y="1188" type="line"/>
      <point x="350" y="1413" type="line"/>
      <point x="606" y="1413" type="line"/>
    </contour>
    <contour>
      <point x="272" y="0" type="line"/>
      <point x="31" y="0" type="line"/>
      <point x="260" y="999" type="line"/>
      <point x="502" y="999" type="line"/>
    </contour>
  </outline>
</glyph>
<glyph name="j" format="2">
  <advance width="543"/>
  <unicode hex="006A"/>
  <outline>
    <contour>
      <point x="559" y="1167" type="line"/>
      <point x="303" y="1167" type="line"/>
      <point x="360" y="1413" type="line"/>
      <point x="616" y="1413" type="line"/>
    </contour>
    <contour>
      <point x="-98" y="-438" type="qcurve" smooth="yes"/>
      <point x="-187" y="-438"/>
      <point x="-272" y="-401" type="qcurve"/>
      <point x="-176" y="-199" type="line"/>
      <point x="-134" y="-217"/>
      <point x="-98" y="-217" type="qcurve" smooth="yes"/>
      <point x="-57" y="-217"/>
      <point x="-3" y="-160"/>
      <point x="8" y="-113" type="qcurve" smooth="yes"/>
      <point x="264" y="999" type="line"/>
      <point x="510" y="999" type="line"/>
      <point x="254" y="-115" type="line" smooth="yes"/>
      <point x="220" y="-260"/>
      <point x="40" y="-438"/>
    </contour>
  </outline>
</glyph>
<glyph name="k" format="2">
  <advance width="1118"/>
  <unicode hex="006B"/>
  <outline>
    <contour>
      <point x="1008" y="0" type="line"/>
      <point x="725" y="0" type="line"/>
      <point x="541" y="463" type="line"/>
      <point x="346" y="293" type="line"/>
      <point x="276" y="0" type="line"/>
      <point x="33" y="0" type="line"/>
      <point x="358" y="1413" type="line"/>
      <point x="602" y="1413" type="line"/>
      <point x="408" y="584" type="line"/>
      <point x="881" y="999" type="line"/>
      <point x="1202" y="999" type="line"/>
      <point x="737" y="612" type="line"/>
    </contour>
  </outline>
</glyph>
<glyph name="m" format="2">
  <advance width="1743"/>
  <unicode hex="006D"/>
  <outline>
    <contour>
      <point x="1511" y="0" type="line"/>
      <point x="1264" y="0" type="line"/>
      <point x="1397" y="580" type="line" smooth="yes"/>
      <point x="1410" y="639"/>
      <point x="1410" y="678" type="qcurve" smooth="yes"/>
      <point x="1410" y="791"/>
      <point x="1300" y="791" type="qcurve" smooth="yes"/>
      <point x="1226" y="791"/>
      <point x="1110" y="719"/>
      <point x="1032" y="605"/>
      <point x="1016" y="539" type="qcurve"/>
      <point x="893" y="0" type="line"/>
      <point x="645" y="0" type="line"/>
      <point x="780" y="584" type="line" smooth="yes"/>
      <point x="793" y="643"/>
      <point x="793" y="682" type="qcurve" smooth="yes"/>
      <point x="793" y="791"/>
      <point x="684" y="791" type="qcurve" smooth="yes"/>
      <point x="609" y="791"/>
      <point x="493" y="719"/>
      <point x="415" y="605"/>
      <point x="399" y="539" type="qcurve"/>
      <point x="276" y="0" type="line"/>
      <point x="31" y="0" type="line"/>
      <point x="260" y="999" type="line"/>
      <point x="506" y="999" type="line"/>
      <point x="481" y="903" type="line"/>
      <point x="594" y="1018"/>
      <point x="745" y="1018" type="qcurve" smooth="yes"/>
      <point x="844" y="1018"/>
      <point x="970" y="935"/>
      <point x="1001" y="864" type="qcurve"/>
      <point x="1082" y="945"/>
      <point x="1269" y="1016"/>
      <point x="1362" y="1016" type="qcurve" smooth="yes"/>
      <point x="1466" y="1016"/>
      <point x="1598" y="935"/>
      <point x="1662" y="798"/>
      <point x="1662" y="712" type="qcurve" smooth="yes"/>
      <point x="1662" y="652"/>
      <point x="1647" y="590" type="qcurve"/>
    </contour>
  </outline>
</glyph>
<glyph name="n" format="2">
  <advance width="1167"/>
  <unicode hex="006E"/>
  <outline>
    <contour>
      <point x="936" y="0" type="line"/>
      <point x="688" y="0" type="line"/>
      <point x="821" y="580" type="line"/>
      <point x="835" y="638"/>
      <point x="835" y="681" type="qcurve" smooth="yes"/>
      <point x="835" y="788"/>
      <point x="725" y="788" type="qcurve" smooth="yes"/>
      <point x="650" y="788"/>
      <point x="513" y="712"/>
      <point x="416" y="598"/>
      <point x="401" y="537" type="qcurve"/>
      <point x="279" y="0" type="line"/>
      <point x="31" y="0" type="line"/>
      <point x="260" y="999" type="line"/>
      <point x="508" y="999" type="line"/>
      <point x="479" y="891" type="line"/>
      <point x="611" y="1016"/>
      <point x="788" y="1016" type="qcurve" smooth="yes"/>
      <point x="940" y="1016"/>
      <point x="1086" y="848"/>
      <point x="1086" y="716" type="qcurve" smooth="yes"/>
      <point x="1086" y="653"/>
      <point x="1071" y="590" type="qcurve" smooth="yes"/>
    </contour>
  </outline>
</glyph>
<glyph name="o" format="2">
  <advance width="1128"/>
  <unicode hex="006F"/>
  <outline>
    <contour>
      <point x="457" y="-20" type="qcurve" smooth="yes"/>
      <point x="322" y="-20"/>
      <point x="135" y="87"/>
      <point x="39" y="270"/>
      <point x="39" y="385" type="qcurve" smooth="yes"/>
      <point x="39" y="471"/>
      <point x="103" y="672"/>
      <point x="176" y="766" type="qcurve" smooth="yes"/>
      <point x="261" y="876"/>
      <point x="514" y="1012"/>
      <point x="668" y="1012" type="qcurve" smooth="yes"/>
      <point x="804" y="1012"/>
      <point x="990" y="905"/>
      <point x="1085" y="721"/>
      <point x="1085" y="608" type="qcurve" smooth="yes"/>
      <point x="1085" y="443"/>
      <point x="901" y="136"/>
      <point x="733" y="46" type="qcurve"/>
      <point x="604" y="-20"/>
    </contour>
    <contour>
      <point x="479" y="190" type="qcurve" smooth="yes"/>
      <point x="572" y="190"/>
      <point x="712" y="278"/>
      <point x="804" y="425"/>
      <point x="825" y="518" type="qcurve" smooth="yes"/>
      <point x="837" y="568"/>
      <point x="837" y="614" type="qcurve" smooth="yes"/>
      <point x="837" y="697"/>
      <point x="747" y="801"/>
      <point x="645" y="801" type="qcurve" smooth="yes"/>
      <point x="552" y="801"/>
      <point x="412" y="713"/>
      <point x="320" y="565"/>
      <point x="299" y="473" type="qcurve" smooth="yes"/>
      <point x="287" y="424"/>
      <point x="287" y="377" type="qcurve" smooth="yes"/>
      <point x="287" y="294"/>
      <point x="377" y="190"/>
    </contour>
  </outline>
</glyph>
<glyph name="r" format="2">
  <advance width="815"/>
  <unicode hex="0072"/>
  <outline>
    <contour>
      <point x="266" y="0" type="line"/>
      <point x="31" y="0" type="line"/>
      <point x="260" y="999" type="line"/>
      <point x="492" y="999" type="line"/>
      <point x="461" y="842" type="line"/>
      <point x="514" y="934"/>
      <point x="659" y="1014"/>
      <point x="729" y="1014" type="qcurve" smooth="yes"/>
      <point x="783" y="1014"/>
      <point x="893" y="977"/>
      <point x="932" y="942" type="qcurve"/>
      <point x="786" y="756" type="line"/>
      <point x="731" y="788"/>
      <point x="668" y="788" type="qcurve" smooth="yes"/>
      <point x="569" y="788"/>
      <point x="410" y="616"/>
      <point x="371" y="453" type="qcurve"/>
    </contour>
  </outline>
</glyph>
<glyph name="z" format="2">
  <advance width="1004"/>
  <unicode hex="007A"/>
  <outline>
    <contour>
      <point x="819" y="0" type="line"/>
      <point x="-61" y="0" type="line"/>
      <point x="-27" y="162" type="line"/>
      <point x="681" y="795" type="line"/>
      <point x="150" y="795" type="line"/>
      <point x="197" y="999" type="line"/>
      <point x="1049" y="999" type="line"/>
      <point x="1012" y="825" type="line"/>
      <point x="328" y="205" type="line"/>
      <point x="866" y="205" type="line"/>
    </contour>
  </outline>
</glyph>
<glyph name="bar" format="2">
  <advance width="623"/>
  <unicode hex="007C"/>
  <outline>
    <contour>
      <point x="168" y="-512" type="line"/>
      <point x="-12" y="-512" type="line"/>
      <point x="461" y="1534" type="line"/>
      <point x="641" y="1534" type="line"/>
    </contour>
  </outline>
</glyph>
<glyph name="braceright" format="2">
  <advance width="618"/>
  <unicode hex="007D"/>
  <outline>
    <contour>
      <point x="66" y="-156" type="qcurve" smooth="yes"/>
      <point x="-6" y="-156" type="line" smooth="yes"/>
      <point x="-20" y="-156"/>
      <point x="-48" y="-154" type="qcurve" smooth="yes"/>
      <point x="-75" y="-152"/>
      <point x="-90" y="-152" type="qcurve"/>
      <point x="-66" y="10" type="line"/>
      <point x="-33" y="2"/>
      <point x="0" y="2" type="qcurve" smooth="yes"/>
      <point x="62" y="2"/>
      <point x="133" y="82"/>
      <point x="145" y="141" type="qcurve"/>
      <point x="227" y="502" type="line"/>
      <point x="255" y="609"/>
      <point x="410" y="678" type="qcurve"/>
      <point x="310" y="736"/>
      <point x="310" y="836" type="qcurve" smooth="yes"/>
      <point x="310" y="863"/>
      <point x="317" y="891" type="qcurve" smooth="yes"/>
      <point x="436" y="1401"/>
      <point x="437" y="1411" type="qcurve"/>
      <point x="437" y="1418"/>
      <point x="428" y="1425"/>
      <point x="383" y="1425" type="qcurve" smooth="yes"/>
      <point x="367" y="1425"/>
      <point x="297" y="1415"/>
      <point x="270" y="1409" type="qcurve"/>
      <point x="295" y="1575" type="line"/>
      <point x="349" y="1579"/>
      <point x="379" y="1579" type="qcurve" smooth="yes"/>
      <point x="430" y="1579" type="line" smooth="yes"/>
      <point x="536" y="1579"/>
      <point x="632" y="1483"/>
      <point x="632" y="1401" type="qcurve" smooth="yes"/>
      <point x="632" y="1356"/>
      <point x="621" y="1311" type="qcurve" smooth="yes"/>
      <point x="522" y="885" type="line"/>
      <point x="517" y="860"/>
      <point x="517" y="847" type="qcurve" smooth="yes"/>
      <point x="517" y="812"/>
      <point x="561" y="771"/>
      <point x="616" y="750" type="qcurve"/>
      <point x="592" y="590" type="line"/>
      <point x="543" y="573"/>
      <point x="483" y="546"/>
      <point x="434" y="506"/>
      <point x="428" y="477" type="qcurve" smooth="yes"/>
      <point x="346" y="117" type="line"/>
      <point x="320" y="-4"/>
      <point x="272" y="-70" type="qcurve"/>
      <point x="229" y="-112"/>
      <point x="129" y="-156"/>
    </contour>
  </outline>
</glyph>
<glyph name="asciitilde" format="2">
  <advance width="1157"/>
  <unicode hex="007E"/>
  <outline>
    <contour>
      <point x="735" y="379" type="qcurve" smooth="yes"/>
      <point x="663" y="379"/>
      <point x="555" y="413"/>
      <point x="498" y="446" type="qcurve"/>
      <point x="463" y="465"/>
      <point x="422" y="481"/>
      <point x="401" y="481" type="qcurve" smooth="yes"/>
      <point x="363" y="481"/>
      <point x="342" y="451"/>
      <point x="342" y="406" type="qcurve"/>
      <point x="172" y="406" type="line"/>
      <point x="172" y="535"/>
      <point x="296" y="651"/>
      <point x="399" y="651" type="qcurve" smooth="yes"/>
      <point x="484" y="651"/>
      <point x="599" y="616"/>
      <point x="657" y="584" type="qcurve" smooth="yes"/>
      <point x="687" y="568"/>
      <point x="723" y="553"/>
      <point x="741" y="553" type="qcurve" smooth="yes"/>
      <point x="782" y="553"/>
      <point x="807" y="590"/>
      <point x="807" y="645" type="qcurve"/>
      <point x="985" y="645" type="line"/>
      <point x="985" y="379"/>
    </contour>
  </outline>
</glyph>
<glyph name="exclamdown" format="2">
  <advance width="635"/>
  <unicode hex="00A1"/>
  <outline>
    <contour>
      <point x="506" y="735" type="line"/>
      <point x="240" y="735" type="line"/>
      <point x="299" y="999" type="line"/>
      <point x="565" y="999" type="line"/>
    </contour>
    <contour>
      <point x="223" y="-434" type="line"/>
      <point x="-18" y="-434" type="line"/>
      <point x="242" y="571" type="line"/>
      <point x="426" y="571" type="line"/>
    </contour>
  </outline>
</glyph>
<glyph name="cent" format="2">
  <advance width="1116"/>
  <unicode hex="00A2"/>
  <outline>
    <contour>
      <point x="512" y="-205" type="line"/>
      <point x="330" y="-205" type="line"/>
      <point x="381" y="-18" type="line"/>
      <point x="283" y="2"/>
      <point x="158" y="108"/>
      <point x="100" y="265"/>
      <point x="100" y="359" type="qcurve" smooth="yes"/>
      <point x="100" y="463"/>
      <point x="159" y="660"/>
      <point x="212" y="744" type="qcurve"/>
      <point x="273" y="846"/>
      <point x="471" y="992"/>
      <point x="606" y="1018" type="qcurve"/>
      <point x="655" y="1200" type="line"/>
      <point x="836" y="1200" type="line"/>
      <point x="786" y="1014" type="line"/>
      <point x="1012" y="978"/>
      <point x="1069" y="713" type="qcurve"/>
      <point x="842" y="649" type="line"/>
      <point x="839" y="740"/>
      <point x="762" y="823"/>
      <point x="674" y="823" type="qcurve" smooth="yes"/>
      <point x="585" y="823"/>
      <point x="449" y="726"/>
      <point x="358" y="569"/>
      <point x="336" y="475" type="qcurve" smooth="yes"/>
      <point x="322" y="414"/>
      <point x="322" y="363" type="qcurve" smooth="yes"/>
      <point x="322" y="279"/>
      <point x="403" y="172"/>
      <point x="498" y="172" type="qcurve" smooth="yes"/>
      <point x="588" y="172"/>
      <point x="722" y="268"/>
      <point x="772" y="367" type="qcurve"/>
      <point x="956" y="266" type="line"/>
      <point x="814" y="18"/>
      <point x="559" y="-23" type="qcurve"/>
    </contour>
  </outline>
</glyph>
<glyph name="section" format="2">
  <advance width="1106"/>
  <unicode hex="00A7"/>
  <outline>
    <contour>
      <point x="455" y="-18" type="qcurve" smooth="yes"/>
      <point x="349" y="-18"/>
      <point x="173" y="49"/>
      <point x="122" y="118" type="qcurve" smooth="yes"/>
      <point x="74" y="183"/>
      <point x="74" y="276" type="qcurve" smooth="yes"/>
      <point x="74" y="287" type="line"/>
      <point x="317" y="336" type="line"/>
      <point x="317" y="330" type="line" smooth="yes"/>
      <point x="317" y="246"/>
      <point x="398" y="178"/>
      <point x="489" y="178" type="qcurve" smooth="yes"/>
      <point x="581" y="178"/>
      <point x="711" y="248"/>
      <point x="725" y="313" type="qcurve" smooth="yes"/>
      <point x="727" y="320"/>
      <point x="727" y="332" type="qcurve" smooth="yes"/>
      <point x="727" y="364"/>
      <point x="675" y="405"/>
      <point x="597" y="430"/>
      <point x="528" y="446" type="qcurve" smooth="yes"/>
      <point x="432" y="469"/>
      <point x="307" y="514"/>
      <point x="219" y="606"/>
      <point x="219" y="682" type="qcurve" smooth="yes"/>
      <point x="219" y="717"/>
      <point x="227" y="750" type="qcurve" smooth="yes"/>
      <point x="252" y="852"/>
      <point x="360" y="950" type="qcurve"/>
      <point x="313" y="998"/>
      <point x="313" y="1074" type="qcurve" smooth="yes"/>
      <point x="313" y="1109"/>
      <point x="322" y="1147" type="qcurve" smooth="yes"/>
      <point x="345" y="1239"/>
      <point x="479" y="1368"/>
      <point x="665" y="1434"/>
      <point x="764" y="1434" type="qcurve" smooth="yes"/>
      <point x="853" y="1434"/>
      <point x="997" y="1378"/>
      <point x="1091" y="1286"/>
      <point x="1108" y="1233" type="qcurve"/>
      <point x="895" y="1141" type="line"/>
      <point x="883" y="1245"/>
      <point x="737" y="1245" type="qcurve" smooth="yes"/>
      <point x="677" y="1245"/>
      <point x="580" y="1203"/>
      <point x="520" y="1135"/>
      <point x="512" y="1098" type="qcurve"/>
      <point x="510" y="1082" type="line"/>
      <point x="510" y="1054"/>
      <point x="535" y="1036" type="qcurve"/>
      <point x="559" y="1017"/>
      <point x="633" y="995"/>
      <point x="699" y="981" type="qcurve" smooth="yes"/>
      <point x="798" y="960"/>
      <point x="928" y="914"/>
      <point x="1021" y="818"/>
      <point x="1021" y="738" type="qcurve" smooth="yes"/>
      <point x="1021" y="654"/>
      <point x="970" y="566" type="qcurve" smooth="yes"/>
      <point x="941" y="517"/>
      <point x="885" y="467" type="qcurve"/>
      <point x="929" y="422"/>
      <point x="929" y="342" type="qcurve" smooth="yes"/>
      <point x="929" y="309"/>
      <point x="920" y="268" type="qcurve" smooth="yes"/>
      <point x="896" y="168"/>
      <point x="752" y="40"/>
      <point x="559" y="-18"/>
    </contour>
    <contour>
      <point x="688" y="573" type="qcurve"/>
      <point x="789" y="605"/>
      <point x="815" y="705" type="qcurve" smooth="yes"/>
      <point x="818" y="717"/>
      <point x="818" y="726" type="qcurve" smooth="yes"/>
      <point x="818" y="788"/>
      <point x="721" y="816" type="qcurve"/>
      <point x="663" y="831" type="line"/>
      <point x="551" y="856" type="line"/>
      <point x="497" y="834"/>
      <point x="466" y="794" type="qcurve" smooth="yes"/>
      <point x="428" y="747"/>
      <point x="422" y="696" type="qcurve"/>
      <point x="422" y="641"/>
      <point x="517" y="614" type="qcurve"/>
      <point x="559" y="601"/>
    </contour>
  </outline>
</glyph>
<glyph name="copyright" format="2">
  <advance width="1778"/>
  <unicode hex="00A9"/>
  <outline>
    <contour>
      <point x="938" y="-49" type="qcurve" smooth="yes"/>
      <point x="789" y="-49"/>
      <point x="529" y="47"/>
      <point x="324" y="216"/>
      <point x="256" y="328" type="qcurve" smooth="yes"/>
      <point x="150" y="501"/>
      <point x="150" y="707" type="qcurve" smooth="yes"/>
      <point x="150" y="850"/>
      <point x="251" y="1099"/>
      <point x="427" y="1295"/>
      <point x="543" y="1361" type="qcurve" smooth="yes"/>
      <point x="724" y="1462"/>
      <point x="938" y="1462" type="qcurve" smooth="yes"/>
      <point x="1087" y="1462"/>
      <point x="1346" y="1366"/>
      <point x="1550" y="1197"/>
      <point x="1618" y="1086" type="qcurve" smooth="yes"/>
      <point x="1724" y="912"/>
      <point x="1724" y="707" type="qcurve" smooth="yes"/>
      <point x="1724" y="563"/>
      <point x="1624" y="314"/>
      <point x="1448" y="118"/>
      <point x="1333" y="53" type="qcurve" smooth="yes"/>
      <point x="1152" y="-49"/>
    </contour>
    <contour>
      <point x="938" y="139" type="qcurve" smooth="yes"/>
      <point x="1105" y="139"/>
      <point x="1375" y="298"/>
      <point x="1455" y="425" type="qcurve" smooth="yes"/>
      <point x="1536" y="556"/>
      <point x="1536" y="707" type="qcurve" smooth="yes"/>
      <point x="1536" y="865"/>
      <point x="1369" y="1121"/>
      <point x="1235" y="1197" type="qcurve" smooth="yes"/>
      <point x="1097" y="1274"/>
      <point x="938" y="1274" type="qcurve" smooth="yes"/>
      <point x="770" y="1274"/>
      <point x="501" y="1115"/>
      <point x="422" y="989" type="qcurve" smooth="yes"/>
      <point x="340" y="858"/>
      <point x="340" y="707" type="qcurve" smooth="yes"/>
      <point x="340" y="549"/>
      <point x="507" y="292"/>
      <point x="641" y="217" type="qcurve" smooth="yes"/>
      <point x="778" y="139"/>
    </contour>
    <contour>
      <point x="954" y="264" type="qcurve" smooth="yes"/>
      <point x="824" y="264"/>
      <point x="652" y="386"/>
      <point x="565" y="587"/>
      <point x="565" y="705" type="qcurve" smooth="yes"/>
      <point x="565" y="791"/>
      <point x="612" y="949"/>
      <point x="708" y="1072"/>
      <point x="855" y="1145"/>
      <point x="954" y="1145" type="qcurve" smooth="yes"/>
      <point x="1074" y="1145"/>
      <point x="1250" y="1028"/>
      <point x="1309" y="901" type="qcurve"/>
      <point x="1135" y="827" type="line"/>
      <point x="1103" y="895"/>
      <point x="1021" y="954"/>
      <point x="954" y="954" type="qcurve" smooth="yes"/>
      <point x="883" y="954"/>
      <point x="794" y="888"/>
      <point x="752" y="776"/>
      <point x="752" y="705" type="qcurve" smooth="yes"/>
      <point x="752" y="634"/>
      <point x="793" y="522"/>
      <point x="881" y="457"/>
      <point x="952" y="457" type="qcurve" smooth="yes"/>
      <point x="1020" y="457"/>
      <point x="1101" y="515"/>
      <point x="1133" y="584" type="qcurve"/>
      <point x="1309" y="510" type="line"/>
      <point x="1249" y="382"/>
      <point x="1073" y="264"/>
    </contour>
  </outline>
</glyph>
<glyph name="registered" format="2">
  <advance width="1778"/>
  <unicode hex="00AE"/>
  <outline>
    <contour>
      <point x="938" y="-47" type="qcurve" smooth="yes"/>
      <point x="789" y="-47"/>
      <point x="529" y="49"/>
      <point x="324" y="218"/>
      <point x="256" y="330" type="qcurve" smooth="yes"/>
      <point x="150" y="503"/>
      <point x="150" y="709" type="qcurve" smooth="yes"/>
      <point x="150" y="852"/>
      <point x="251" y="1101"/>
      <point x="427" y="1297"/>
      <point x="543" y="1363" type="qcurve" smooth="yes"/>
      <point x="724" y="1464"/>
      <point x="938" y="1464" type="qcurve" smooth="yes"/>
      <point x="1087" y="1464"/>
      <point x="1346" y="1368"/>
      <point x="1550" y="1199"/>
      <point x="1618" y="1088" type="qcurve" smooth="yes"/>
      <point x="1724" y="914"/>
      <point x="1724" y="709" type="qcurve" smooth="yes"/>
      <point x="1724" y="565"/>
      <point x="1624" y="316"/>
      <point x="1448" y="120"/>
      <point x="1333" y="55" type="qcurve" smooth="yes"/>
      <point x="1152" y="-47"/>
    </contour>
    <contour>
      <point x="938" y="133" type="qcurve" smooth="yes"/>
      <point x="1108" y="133"/>
      <point x="1381" y="294"/>
      <point x="1462" y="423" type="qcurve" smooth="yes"/>
      <point x="1544" y="555"/>
      <point x="1544" y="709" type="qcurve" smooth="yes"/>
      <point x="1544" y="817"/>
      <point x="1466" y="1005"/>
      <point x="1329" y="1155"/>
      <point x="1240" y="1206" type="qcurve"/>
      <point x="1100" y="1284"/>
      <point x="938" y="1284" type="qcurve" smooth="yes"/>
      <point x="767" y="1284"/>
      <point x="493" y="1123"/>
      <point x="413" y="995" type="qcurve" smooth="yes"/>
      <point x="330" y="863"/>
      <point x="330" y="709" type="qcurve" smooth="yes"/>
      <point x="330" y="548"/>
      <point x="499" y="288"/>
      <point x="635" y="212" type="qcurve" smooth="yes"/>
      <point x="775" y="133"/>
    </contour>
    <contour>
      <point x="1333" y="289" type="line"/>
      <point x="1122" y="289" type="line"/>
      <point x="950" y="604" type="line"/>
      <point x="854" y="604" type="line"/>
      <point x="854" y="289" type="line"/>
      <point x="670" y="289" type="line"/>
      <point x="670" y="1114" type="line"/>
      <point x="991" y="1114" type="line" smooth="yes"/>
      <point x="1134" y="1114"/>
      <point x="1276" y="975"/>
      <point x="1276" y="860" type="qcurve" smooth="yes"/>
      <point x="1276" y="770"/>
      <point x="1196" y="657"/>
      <point x="1135" y="631" type="qcurve"/>
    </contour>
    <contour>
      <point x="991" y="778" type="line" smooth="yes"/>
      <point x="1051" y="778"/>
      <point x="1102" y="815"/>
      <point x="1102" y="860" type="qcurve" smooth="yes"/>
      <point x="1102" y="906"/>
      <point x="1055" y="940"/>
      <point x="991" y="940" type="qcurve" smooth="yes"/>
      <point x="844" y="940" type="line"/>
      <point x="844" y="778" type="line"/>
    </contour>
  </outline>
</glyph>
<glyph name="degree" format="2">
  <advance width="805"/>
  <unicode hex="00B0"/>
  <outline>
    <contour>
      <point x="401" y="848" type="qcurve" smooth="yes"/>
      <point x="316" y="848"/>
      <point x="184" y="931"/>
      <point x="109" y="1065"/>
      <point x="109" y="1141" type="qcurve" smooth="yes"/>
      <point x="109" y="1227"/>
      <point x="193" y="1359"/>
      <point x="326" y="1434"/>
      <point x="401" y="1434" type="qcurve" smooth="yes"/>
      <point x="486" y="1434"/>
      <point x="618" y="1352"/>
      <point x="694" y="1219"/>
      <point x="694" y="1141" type="qcurve" smooth="yes"/>
      <point x="694" y="1056"/>
      <point x="612" y="924"/>
      <point x="479" y="848"/>
    </contour>
    <contour>
      <point x="401" y="1012" type="qcurve" smooth="yes"/>
      <point x="456" y="1012"/>
      <point x="532" y="1087"/>
      <point x="532" y="1141" type="qcurve" smooth="yes"/>
      <point x="532" y="1197"/>
      <point x="453" y="1270"/>
      <point x="401" y="1270" type="qcurve" smooth="yes"/>
      <point x="346" y="1270"/>
      <point x="272" y="1192"/>
      <point x="272" y="1141" type="qcurve" smooth="yes"/>
      <point x="272" y="1084"/>
      <point x="351" y="1012"/>
    </contour>
  </outline>
</glyph>
<glyph name="paragraph" format="2">
  <advance width="1262"/>
  <unicode hex="00B6"/>
  <outline>
    <contour>
      <point x="516" y="-246" type="line"/>
      <point x="346" y="-246" type="line"/>
      <point x="553" y="623" type="line"/>
      <point x="454" y="623"/>
      <point x="283" y="697"/>
      <point x="178" y="841"/>
      <point x="178" y="945" type="qcurve" smooth="yes"/>
      <point x="178" y="1017"/>
      <point x="237" y="1174"/>
      <point x="298" y="1240" type="qcurve"/>
      <point x="385" y="1328"/>
      <point x="609" y="1413"/>
      <point x="723" y="1413" type="qcurve" smooth="yes"/>
      <point x="899" y="1413" type="line"/>
    </contour>
    <contour>
      <point x="868" y="-246" type="line"/>
      <point x="696" y="-246" type="line"/>
      <point x="1079" y="1413" type="line"/>
      <point x="1251" y="1413" type="line"/>
    </contour>
  </outline>
</glyph>
<glyph name="periodcentered" format="2">
  <advance width="616"/>
  <unicode hex="00B7"/>
  <outline>
    <contour>
      <point x="354" y="651" type="qcurve" smooth="yes"/>
      <point x="294" y="651"/>
      <point x="229" y="728"/>
      <point x="229" y="783" type="qcurve" smooth="yes"/>
      <point x="229" y="864"/>
      <point x="294" y="912" type="qcurve" smooth="yes"/>
      <point x="341" y="948"/>
      <point x="397" y="948" type="qcurve" smooth="yes"/>
      <point x="454" y="948"/>
      <point x="525" y="875"/>
      <point x="525" y="819" type="qcurve" smooth="yes"/>
      <point x="525" y="789"/>
      <point x="496" y="718"/>
      <point x="460" y="689" type="qcurve" smooth="yes"/>
      <point x="412" y="651"/>
    </contour>
  </outline>
</glyph>
<glyph name="questiondown" format="2">
  <advance width="993"/>
  <unicode hex="00BF"/>
  <outline>
    <contour>
      <point x="692" y="735" type="line"/>
      <point x="426" y="735" type="line"/>
      <point x="485" y="999" type="line"/>
      <point x="752" y="999" type="line"/>
    </contour>
    <contour>
      <point x="313" y="-434" type="qcurve" smooth="yes"/>
      <point x="207" y="-434"/>
      <point x="35" y="-363"/>
      <point x="-68" y="-222"/>
      <point x="-68" y="-117" type="qcurve" smooth="yes"/>
      <point x="-68" y="-44"/>
      <point x="-20" y="105"/>
      <point x="17" y="155" type="qcurve" smooth="yes"/>
      <point x="63" y="216"/>
      <point x="173" y="292"/>
      <point x="252" y="328" type="qcurve" smooth="yes"/>
      <point x="318" y="359"/>
      <point x="383" y="409"/>
      <point x="391" y="442" type="qcurve" smooth="yes"/>
      <point x="422" y="575" type="line"/>
      <point x="629" y="575" type="line"/>
      <point x="592" y="420" type="line" smooth="yes"/>
      <point x="555" y="270"/>
      <point x="454" y="203" type="qcurve" smooth="yes"/>
      <point x="402" y="169"/>
      <point x="334" y="134" type="qcurve" smooth="yes"/>
      <point x="283" y="108"/>
      <point x="250" y="88" type="qcurve" smooth="yes"/>
      <point x="178" y="46"/>
      <point x="147" y="-61" type="qcurve"/>
      <point x="141" y="-87"/>
      <point x="141" y="-107" type="qcurve" smooth="yes"/>
      <point x="141" y="-231"/>
      <point x="324" y="-231" type="qcurve" smooth="yes"/>
      <point x="428" y="-231"/>
      <point x="591" y="-117"/>
      <point x="618" y="-12" type="qcurve"/>
      <point x="829" y="-33" type="line"/>
      <point x="777" y="-230"/>
      <point x="486" y="-434"/>
    </contour>
  </outline>
</glyph>
<glyph name="Aring" format="2">
  <advance width="1343"/>
  <unicode hex="00C5"/>
  <outline>
    <contour>
      <point x="1214" y="0" type="line"/>
      <point x="950" y="0" type="line"/>
      <point x="911" y="307" type="line"/>
      <point x="356" y="307" type="line"/>
      <point x="176" y="0" type="line"/>
      <point x="-104" y="0" type="line"/>
      <point x="739" y="1331" type="line"/>
      <point x="708" y="1356"/>
      <point x="675" y="1437"/>
      <point x="675" y="1481" type="qcurve" smooth="yes"/>
      <point x="675" y="1559"/>
      <point x="757" y="1678"/>
      <point x="882" y="1745"/>
      <point x="944" y="1745" type="qcurve" smooth="yes"/>
      <point x="1033" y="1745"/>
      <point x="1140" y="1630"/>
      <point x="1140" y="1551" type="qcurve" smooth="yes"/>
      <point x="1140" y="1475"/>
      <point x="1059" y="1354"/>
      <point x="995" y="1319" type="qcurve"/>
    </contour>
    <contour>
      <point x="885" y="1403" type="qcurve" smooth="yes"/>
      <point x="943" y="1403"/>
      <point x="1020" y="1492"/>
      <point x="1020" y="1542" type="qcurve" smooth="yes"/>
      <point x="1020" y="1584"/>
      <point x="968" y="1626"/>
      <point x="928" y="1626" type="qcurve" smooth="yes"/>
      <point x="885" y="1626"/>
      <point x="826" y="1584"/>
      <point x="795" y="1521"/>
      <point x="795" y="1489" type="qcurve" smooth="yes"/>
      <point x="795" y="1451"/>
      <point x="844" y="1403"/>
    </contour>
    <contour>
      <point x="877" y="524" type="line"/>
      <point x="808" y="1049" type="line"/>
      <point x="494" y="524" type="line"/>
    </contour>
  </outline>
</glyph>
<glyph name="AE" format="2">
  <advance width="1858"/>
  <unicode hex="00C6"/>
  <outline>
    <contour>
      <point x="1642" y="0" type="line"/>
      <point x="662" y="0" type="line"/>
      <point x="731" y="307" type="line"/>
      <point x="336" y="307" type="line"/>
      <point x="156" y="0" type="line"/>
      <point x="-104" y="0" type="line"/>
      <point x="780" y="1413" type="line"/>
      <point x="1968" y="1413" type="line"/>
      <point x="1919" y="1200" type="line"/>
      <point x="1171" y="1200" type="line"/>
      <point x="1081" y="813" type="line"/>
      <point x="1741" y="813" type="line"/>
      <point x="1692" y="600" type="line"/>
      <point x="1032" y="600" type="line"/>
      <point x="944" y="219" type="line"/>
      <point x="1692" y="219" type="line"/>
    </contour>
    <contour>
      <point x="776" y="504" type="line"/>
      <point x="938" y="1200" type="line"/>
      <point x="893" y="1200" type="line"/>
      <point x="461" y="504" type="line"/>
    </contour>
  </outline>
</glyph>
<glyph name="Thorn" format="2">
  <advance width="1147"/>
  <unicode hex="00DE"/>
  <outline>
    <contour>
      <point x="299" y="0" type="line"/>
      <point x="68" y="0" type="line"/>
      <point x="393" y="1413" type="line"/>
      <point x="625" y="1413" type="line"/>
      <point x="580" y="1219" type="line"/>
      <point x="829" y="1219" type="line" smooth="yes"/>
      <point x="952" y="1219"/>
      <point x="1111" y="1143"/>
      <point x="1188" y="1006"/>
      <point x="1188" y="916" type="qcurve" smooth="yes"/>
      <point x="1188" y="862"/>
      <point x="1174" y="797" type="qcurve"/>
      <point x="1128" y="599"/>
      <point x="820" y="397"/>
      <point x="598" y="397" type="qcurve" smooth="yes"/>
      <point x="389" y="397" type="line"/>
    </contour>
    <contour>
      <point x="633" y="608" type="line" smooth="yes"/>
      <point x="767" y="608"/>
      <point x="925" y="725"/>
      <point x="950" y="834" type="qcurve" smooth="yes"/>
      <point x="956" y="861"/>
      <point x="956" y="885" type="qcurve" smooth="yes"/>
      <point x="956" y="955"/>
      <point x="847" y="1020"/>
      <point x="741" y="1020" type="qcurve" smooth="yes"/>
      <point x="535" y="1020" type="line"/>
      <point x="438" y="608" type="line"/>
    </contour>
  </outline>
</glyph>
<glyph name="germandbls" format="2">
  <advance width="1186"/>
  <unicode hex="00DF"/>
  <outline>
    <contour>
      <point x="623" y="-18" type="qcurve" smooth="yes"/>
      <point x="529" y="-18"/>
      <point x="420" y="23" type="qcurve"/>
      <point x="541" y="221" type="line"/>
      <point x="583" y="203"/>
      <point x="641" y="203" type="qcurve" smooth="yes"/>
      <point x="709" y="203"/>
      <point x="811" y="284"/>
      <point x="823" y="342" type="qcurve" smooth="yes"/>
      <point x="826" y="357"/>
      <point x="826" y="367" type="qcurve" smooth="yes"/>
      <point x="826" y="402"/>
      <point x="806" y="432" type="qcurve"/>
      <point x="785" y="461"/>
      <point x="741" y="507" type="qcurve" smooth="yes"/>
      <point x="704" y="545"/>
      <point x="657" y="602"/>
      <point x="624" y="677"/>
      <point x="624" y="723" type="qcurve" smooth="yes"/>
      <point x="624" y="753"/>
      <point x="631" y="784" type="qcurve" smooth="yes"/>
      <point x="642" y="829"/>
      <point x="689" y="894"/>
      <point x="744" y="935"/>
      <point x="789" y="962" type="qcurve" smooth="yes"/>
      <point x="829" y="986"/>
      <point x="876" y="1021"/>
      <point x="915" y="1070"/>
      <point x="922" y="1104" type="qcurve" smooth="yes"/>
      <point x="924" y="1111"/>
      <point x="924" y="1126" type="qcurve" smooth="yes"/>
      <point x="924" y="1168"/>
      <point x="853" y="1225"/>
      <point x="776" y="1225" type="qcurve" smooth="yes"/>
      <point x="671" y="1225"/>
      <point x="529" y="1106"/>
      <point x="506" y="1010" type="qcurve"/>
      <point x="274" y="0" type="line"/>
      <point x="33" y="0" type="line"/>
      <point x="270" y="1030" type="line" smooth="yes"/>
      <point x="300" y="1158"/>
      <point x="457" y="1341"/>
      <point x="672" y="1434"/>
      <point x="784" y="1434" type="qcurve" smooth="yes"/>
      <point x="885" y="1434"/>
      <point x="1056" y="1357"/>
      <point x="1158" y="1217"/>
      <point x="1158" y="1122" type="qcurve" smooth="yes"/>
      <point x="1158" y="1085"/>
      <point x="1149" y="1042" type="qcurve" smooth="yes"/>
      <point x="1135" y="980"/>
      <point x="1070" y="895"/>
      <point x="997" y="844"/>
      <point x="944" y="815" type="qcurve" smooth="yes"/>
      <point x="896" y="789"/>
      <point x="849" y="754"/>
      <point x="844" y="729" type="qcurve"/>
      <point x="843" y="720" type="line"/>
      <point x="843" y="705"/>
      <point x="855" y="691" type="qcurve" smooth="yes"/>
      <point x="871" y="673"/>
      <point x="911" y="642" type="qcurve" smooth="yes"/>
      <point x="958" y="605"/>
      <point x="1022" y="540"/>
      <point x="1069" y="443"/>
      <point x="1069" y="380" type="qcurve" smooth="yes"/>
      <point x="1069" y="340"/>
      <point x="1059" y="299" type="qcurve" smooth="yes"/>
      <point x="1038" y="207"/>
      <point x="910" y="62"/>
      <point x="725" y="-18"/>
    </contour>
  </outline>
</glyph>
<glyph name="ccedilla" format="2">
  <advance width="1004"/>
  <unicode hex="00E7"/>
  <outline>
    <contour>
      <point x="273" y="-522" type="qcurve" smooth="yes"/>
      <point x="204" y="-522"/>
      <point x="109" y="-441"/>
      <point x="96" y="-383" type="qcurve"/>
      <point x="238" y="-346" type="line"/>
      <point x="243" y="-383"/>
      <point x="285" y="-383" type="qcurve" smooth="yes"/>
      <point x="328" y="-383"/>
      <point x="359" y="-354" type="qcurve" smooth="yes"/>
      <point x="397" y="-320"/>
      <point x="404" y="-269" type="qcurve"/>
      <point x="404" y="-237"/>
      <point x="333" y="-195"/>
      <point x="266" y="-195" type="qcurve" smooth="yes"/>
      <point x="189" y="-195" type="line"/>
      <point x="340" y="-12" type="line"/>
      <point x="192" y="15"/>
      <point x="43" y="223"/>
      <point x="43" y="372" type="qcurve" smooth="yes"/>
      <point x="43" y="573"/>
      <point x="171" y="764" type="qcurve"/>
      <point x="221" y="836"/>
      <point x="361" y="950"/>
      <point x="539" y="1016"/>
      <point x="645" y="1016" type="qcurve" smooth="yes"/>
      <point x="748" y="1016"/>
      <point x="903" y="939"/>
      <point x="1000" y="804"/>
      <point x="1018" y="715" type="qcurve"/>
      <point x="774" y="645" type="line"/>
      <point x="770" y="718"/>
      <point x="686" y="786"/>
      <point x="618" y="786" type="qcurve" smooth="yes"/>
      <point x="532" y="786"/>
      <point x="403" y="701"/>
      <point x="318" y="560"/>
      <point x="299" y="475" type="qcurve"/>
      <point x="287" y="426"/>
      <point x="287" y="381" type="qcurve" smooth="yes"/>
      <point x="287" y="306"/>
      <point x="367" y="209"/>
      <point x="459" y="209" type="qcurve" smooth="yes"/>
      <point x="540" y="209"/>
      <point x="671" y="300"/>
      <point x="707" y="371" type="qcurve"/>
      <point x="909" y="266" type="line"/>
      <point x="831" y="133"/>
      <point x="608" y="-8"/>
      <point x="481" y="-18" type="qcurve"/>
      <point x="389" y="-102" type="line"/>
      <point x="467" y="-113"/>
      <point x="543" y="-201"/>
      <point x="543" y="-264" type="qcurve" smooth="yes"/>
      <point x="543" y="-369"/>
      <point x="384" y="-522"/>
    </contour>
  </outline>
</glyph>
<glyph name="eth" format="2">
  <advance width="1178"/>
  <unicode hex="00F0"/>
  <outline>
    <contour>
      <point x="479" y="-16" type="qcurve" smooth="yes"/>
      <point x="332" y="-16"/>
      <point x="140" y="92"/>
      <point x="46" y="278"/>
      <point x="46" y="395" type="qcurve" smooth="yes"/>
      <point x="46" y="491"/>
      <point x="110" y="692"/>
      <point x="176" y="783" type="qcurve"/>
      <point x="255" y="889"/>
      <point x="495" y="1020"/>
      <point x="647" y="1020" type="qcurve" smooth="yes"/>
      <point x="732" y="1020"/>
      <point x="857" y="971"/>
      <point x="906" y="920" type="qcurve"/>
      <point x="900" y="1032"/>
      <point x="790" y="1184"/>
      <point x="700" y="1235" type="qcurve"/>
      <point x="590" y="1114" type="line"/>
      <point x="498" y="1180" type="line"/>
      <point x="594" y="1285" type="line"/>
      <point x="558" y="1299"/>
      <point x="471" y="1329" type="qcurve"/>
      <point x="614" y="1511" type="line"/>
      <point x="681" y="1484"/>
      <point x="746" y="1449" type="qcurve"/>
      <point x="840" y="1552" type="line"/>
      <point x="934" y="1491" type="line"/>
      <point x="843" y="1391" type="line"/>
      <point x="997" y="1284"/>
      <point x="1138" y="1005"/>
      <point x="1138" y="828" type="qcurve" smooth="yes"/>
      <point x="1138" y="700"/>
      <point x="1102" y="545" type="qcurve" smooth="yes"/>
      <point x="1038" y="271"/>
      <point x="713" y="-16"/>
    </contour>
    <contour>
      <point x="494" y="209" type="qcurve" smooth="yes"/>
      <point x="588" y="209"/>
      <point x="736" y="301"/>
      <point x="835" y="451"/>
      <point x="856" y="541" type="qcurve"/>
      <point x="866" y="588"/>
      <point x="866" y="622" type="qcurve" smooth="yes"/>
      <point x="866" y="709"/>
      <point x="767" y="823"/>
      <point x="662" y="823" type="qcurve" smooth="yes"/>
      <point x="568" y="823"/>
      <point x="420" y="732"/>
      <point x="320" y="583"/>
      <point x="299" y="494" type="qcurve" smooth="yes"/>
      <point x="289" y="453"/>
      <point x="289" y="410" type="qcurve" smooth="yes"/>
      <point x="289" y="353"/>
      <point x="332" y="262"/>
      <point x="423" y="209"/>
    </contour>
  </outline>
</glyph>
<glyph name="oslash" format="2">
  <advance width="1128"/>
  <unicode hex="00F8"/>
  <outline>
    <contour>
      <point x="457" y="-20" type="qcurve" smooth="yes"/>
      <point x="331" y="-20"/>
      <point x="237" y="30" type="qcurve"/>
      <point x="211" y="-1" type="line"/>
      <point x="77" y="-1" type="line"/>
      <point x="154" y="90" type="line"/>
      <point x="40" y="201"/>
      <point x="40" y="385" type="qcurve" smooth="yes"/>
      <point x="40" y="550"/>
      <point x="223" y="855"/>
      <point x="393" y="946" type="qcurve"/>
      <point x="521" y="1012"/>
      <point x="668" y="1012" type="qcurve" smooth="yes"/>
      <point x="792" y="1012"/>
      <point x="885" y="964" type="qcurve"/>
      <point x="915" y="999" type="line"/>
      <point x="1047" y="999" type="line"/>
      <point x="968" y="905" type="line"/>
      <point x="1085" y="788"/>
      <point x="1085" y="608" type="qcurve" smooth="yes"/>
      <point x="1085" y="443"/>
      <point x="901" y="136"/>
      <point x="733" y="46" type="qcurve"/>
      <point x="604" y="-20"/>
    </contour>
    <contour>
      <point x="309" y="276" type="qcurve"/>
      <point x="736" y="786" type="line"/>
      <point x="699" y="801"/>
      <point x="645" y="801" type="qcurve" smooth="yes"/>
      <point x="552" y="801"/>
      <point x="412" y="713"/>
      <point x="320" y="565"/>
      <point x="299" y="473" type="qcurve" smooth="yes"/>
      <point x="287" y="424"/>
      <point x="287" y="377" type="qcurve" smooth="yes"/>
      <point x="287" y="317"/>
    </contour>
    <contour>
      <point x="479" y="190" type="qcurve" smooth="yes"/>
      <point x="572" y="190"/>
      <point x="712" y="278"/>
      <point x="804" y="425"/>
      <point x="825" y="518" type="qcurve" smooth="yes"/>
      <point x="837" y="568"/>
      <point x="837" y="613" type="qcurve" smooth="yes"/>
      <point x="837" y="677"/>
      <point x="813" y="719" type="qcurve"/>
      <point x="385" y="207" type="line"/>
      <point x="424" y="190"/>
    </contour>
  </outline>
</glyph>
<glyph name="thorn" format="2">
  <advance width="1155"/>
  <unicode hex="00FE"/>
  <outline>
    <contour>
      <point x="162" y="-438" type="line"/>
      <point x="-70" y="-438" type="line"/>
      <point x="358" y="1413" type="line"/>
      <point x="590" y="1413" type="line"/>
      <point x="473" y="926" type="line"/>
      <point x="594" y="1020"/>
      <point x="762" y="1020" type="qcurve" smooth="yes"/>
      <point x="877" y="1020"/>
      <point x="1031" y="922"/>
      <point x="1107" y="752"/>
      <point x="1107" y="643" type="qcurve" smooth="yes"/>
      <point x="1107" y="544"/>
      <point x="1044" y="326"/>
      <point x="980" y="228" type="qcurve" smooth="yes"/>
      <point x="908" y="117"/>
      <point x="690" y="-20"/>
      <point x="549" y="-20" type="qcurve" smooth="yes"/>
      <point x="460" y="-20"/>
      <point x="330" y="41"/>
      <point x="289" y="90" type="qcurve"/>
    </contour>
    <contour>
      <point x="530" y="190" type="qcurve" smooth="yes"/>
      <point x="619" y="190"/>
      <point x="756" y="277"/>
      <point x="848" y="427"/>
      <point x="870" y="522" type="qcurve"/>
      <point x="883" y="573"/>
      <point x="883" y="622" type="qcurve" smooth="yes"/>
      <point x="883" y="704"/>
      <point x="796" y="807"/>
      <point x="698" y="807" type="qcurve" smooth="yes"/>
      <point x="609" y="807"/>
      <point x="472" y="720"/>
      <point x="380" y="571"/>
      <point x="358" y="477" type="qcurve" smooth="yes"/>
      <point x="345" y="419"/>
      <point x="345" y="377" type="qcurve" smooth="yes"/>
      <point x="345" y="294"/>
      <point x="432" y="190"/>
    </contour>
  </outline>
</glyph>
<glyph name="Aogonek" format="2">
  <advance width="1343"/>
  <unicode hex="0104"/>
  <outline>
    <contour>
      <point x="995" y="-451" type="qcurve" smooth="yes"/>
      <point x="910" y="-451"/>
      <point x="802" y="-359"/>
      <point x="802" y="-278" type="qcurve" smooth="yes"/>
      <point x="802" y="-256"/>
      <point x="809" y="-223" type="qcurve" smooth="yes"/>
      <point x="828" y="-140"/>
      <point x="956" y="-28"/>
      <point x="1012" y="0" type="qcurve"/>
      <point x="944" y="0" type="line"/>
      <point x="905" y="307" type="line"/>
      <point x="356" y="307" type="line"/>
      <point x="176" y="0" type="line"/>
      <point x="-104" y="0" type="line"/>
      <point x="786" y="1413" type="line"/>
      <point x="977" y="1413" type="line"/>
      <point x="1214" y="0" type="line"/>
      <point x="1121" y="0" type="line"/>
      <point x="1221" y="-4" type="line"/>
      <point x="1195" y="-11"/>
      <point x="1084" y="-69"/>
      <point x="1024" y="-121" type="qcurve" smooth="yes"/>
      <point x="967" y="-172"/>
      <point x="952" y="-236" type="qcurve"/>
      <point x="948" y="-263" type="line"/>
      <point x="948" y="-285"/>
      <point x="973" y="-301"/>
      <point x="997" y="-301" type="qcurve" smooth="yes"/>
      <point x="1063" y="-301"/>
      <point x="1124" y="-236" type="qcurve"/>
      <point x="1231" y="-338" type="line"/>
      <point x="1131" y="-451"/>
    </contour>
    <contour>
      <point x="870" y="524" type="line"/>
      <point x="803" y="1040" type="line"/>
      <point x="494" y="524" type="line"/>
    </contour>
  </outline>
</glyph>
<glyph name="aogonek" format="2">
  <advance width="1061"/>
  <unicode hex="0105"/>
  <outline>
    <contour>
      <point x="610" y="-451" type="qcurve" smooth="yes"/>
      <point x="523" y="-451"/>
      <point x="417" y="-357"/>
      <point x="417" y="-278" type="qcurve" smooth="yes"/>
      <point x="417" y="-255"/>
      <point x="424" y="-223" type="qcurve"/>
      <point x="453" y="-107"/>
      <point x="584" y="-24" type="qcurve" smooth="yes"/>
      <point x="629" y="5"/>
      <point x="634" y="5" type="qcurve"/>
      <point x="635" y="4" type="line"/>
      <point x="682" y="2" type="line"/>
      <point x="695" y="100" type="line"/>
      <point x="577" y="-20"/>
      <point x="389" y="-20" type="qcurve" smooth="yes"/>
      <point x="277" y="-20"/>
      <point x="124" y="77"/>
      <point x="48" y="248"/>
      <point x="48" y="357" type="qcurve" smooth="yes"/>
      <point x="48" y="434"/>
      <point x="68" y="522" type="qcurve" smooth="yes"/>
      <point x="99" y="657"/>
      <point x="249" y="884"/>
      <point x="468" y="1020"/>
      <point x="598" y="1020" type="qcurve" smooth="yes"/>
      <point x="684" y="1020"/>
      <point x="826" y="954"/>
      <point x="862" y="891" type="qcurve"/>
      <point x="891" y="999" type="line"/>
      <point x="1139" y="999" type="line"/>
      <point x="909" y="0" type="line"/>
      <point x="736" y="0" type="line"/>
      <point x="836" y="-4" type="line"/>
      <point x="811" y="-11"/>
      <point x="695" y="-71"/>
      <point x="582" y="-172"/>
      <point x="567" y="-236" type="qcurve"/>
      <point x="563" y="-258"/>
      <point x="563" y="-263" type="qcurve" smooth="yes"/>
      <point x="563" y="-285"/>
      <point x="590" y="-301"/>
      <point x="612" y="-301" type="qcurve" smooth="yes"/>
      <point x="678" y="-301"/>
      <point x="739" y="-236" type="qcurve"/>
      <point x="846" y="-338" type="line"/>
      <point x="745" y="-451"/>
    </contour>
    <contour>
      <point x="473" y="205" type="qcurve" smooth="yes"/>
      <point x="562" y="205"/>
      <point x="694" y="288"/>
      <point x="781" y="430"/>
      <point x="801" y="522" type="qcurve" smooth="yes"/>
      <point x="814" y="579"/>
      <point x="814" y="622" type="qcurve" smooth="yes"/>
      <point x="814" y="702"/>
      <point x="731" y="799"/>
      <point x="637" y="799" type="qcurve" smooth="yes"/>
      <point x="550" y="799"/>
      <point x="416" y="713"/>
      <point x="327" y="568"/>
      <point x="307" y="477" type="qcurve" smooth="yes"/>
      <point x="295" y="426"/>
      <point x="295" y="381" type="qcurve" smooth="yes"/>
      <point x="295" y="303"/>
      <point x="379" y="205"/>
    </contour>
  </outline>
</glyph>
<glyph name="dcroat" format="2">
  <advance width="1171"/>
  <unicode hex="0111"/>
  <outline>
    <contour>
      <point x="389" y="-20" type="qcurve" smooth="yes"/>
      <point x="275" y="-20"/>
      <point x="123" y="78"/>
      <point x="48" y="248"/>
      <point x="48" y="357" type="qcurve" smooth="yes"/>
      <point x="48" y="458"/>
      <point x="112" y="675"/>
      <point x="174" y="771" type="qcurve"/>
      <point x="222" y="843"/>
      <point x="350" y="955"/>
      <point x="507" y="1020"/>
      <point x="598" y="1020" type="qcurve" smooth="yes"/>
      <point x="680" y="1020"/>
      <point x="823" y="957"/>
      <point x="862" y="891" type="qcurve"/>
      <point x="921" y="1139" type="line"/>
      <point x="668" y="1139" type="line"/>
      <point x="705" y="1303" type="line"/>
      <point x="961" y="1303" type="line"/>
      <point x="987" y="1413" type="line"/>
      <point x="1235" y="1413" type="line"/>
      <point x="1210" y="1303" type="line"/>
      <point x="1340" y="1303" type="line"/>
      <point x="1303" y="1139" type="line"/>
      <point x="1172" y="1139" type="line"/>
      <point x="909" y="0" type="line"/>
      <point x="682" y="0" type="line"/>
      <point x="695" y="100" type="line"/>
      <point x="575" y="-20"/>
    </contour>
    <contour>
      <point x="473" y="205" type="qcurve" smooth="yes"/>
      <point x="562" y="205"/>
      <point x="694" y="288"/>
      <point x="781" y="430"/>
      <point x="801" y="522" type="qcurve" smooth="yes"/>
      <point x="814" y="579"/>
      <point x="814" y="622" type="qcurve" smooth="yes"/>
      <point x="814" y="702"/>
      <point x="731" y="799"/>
      <point x="637" y="799" type="qcurve" smooth="yes"/>
      <point x="550" y="799"/>
      <point x="416" y="713"/>
      <point x="327" y="568"/>
      <point x="307" y="477" type="qcurve" smooth="yes"/>
      <point x="295" y="426"/>
      <point x="295" y="381" type="qcurve" smooth="yes"/>
      <point x="295" y="303"/>
      <point x="379" y="205"/>
    </contour>
  </outline>
</glyph>
<glyph name="Eogonek" format="2">
  <advance width="1245"/>
  <unicode hex="0118"/>
  <outline>
    <contour>
      <point x="786" y="-451" type="qcurve" smooth="yes"/>
      <point x="701" y="-451"/>
      <point x="593" y="-359"/>
      <point x="593" y="-278" type="qcurve" smooth="yes"/>
      <point x="593" y="-256"/>
      <point x="600" y="-223" type="qcurve" smooth="yes"/>
      <point x="619" y="-140"/>
      <point x="747" y="-28"/>
      <point x="803" y="0" type="qcurve"/>
      <point x="68" y="0" type="line"/>
      <point x="393" y="1413" type="line"/>
      <point x="1333" y="1413" type="line"/>
      <point x="1280" y="1180" type="line"/>
      <point x="594" y="1180" type="line"/>
      <point x="510" y="823" type="line"/>
      <point x="1149" y="823" type="line"/>
      <point x="1096" y="590" type="line"/>
      <point x="457" y="590" type="line"/>
      <point x="377" y="240" type="line"/>
      <point x="1063" y="240" type="line"/>
      <point x="1008" y="0" type="line"/>
      <point x="912" y="0" type="line"/>
      <point x="1012" y="-4" type="line"/>
      <point x="986" y="-11"/>
      <point x="875" y="-69"/>
      <point x="815" y="-121" type="qcurve" smooth="yes"/>
      <point x="758" y="-172"/>
      <point x="743" y="-236" type="qcurve"/>
      <point x="739" y="-263" type="line"/>
      <point x="739" y="-285"/>
      <point x="764" y="-301"/>
      <point x="788" y="-301" type="qcurve" smooth="yes"/>
      <point x="854" y="-301"/>
      <point x="915" y="-236" type="qcurve"/>
      <point x="1022" y="-338" type="line"/>
      <point x="922" y="-451"/>
    </contour>
  </outline>
</glyph>
<glyph name="eogonek" format="2">
  <advance width="1067"/>
  <unicode hex="0119"/>
  <outline>
    <contour>
      <point x="497" y="-404" type="qcurve" smooth="yes"/>
      <point x="412" y="-404"/>
      <point x="304" y="-312"/>
      <point x="304" y="-231" type="qcurve" smooth="yes"/>
      <point x="304" y="-209"/>
      <point x="311" y="-176" type="qcurve"/>
      <point x="333" y="-85"/>
      <point x="424" y="-11" type="qcurve"/>
      <point x="295" y="-5"/>
      <point x="125" y="97"/>
      <point x="42" y="268"/>
      <point x="42" y="375" type="qcurve" smooth="yes"/>
      <point x="42" y="464"/>
      <point x="103" y="664"/>
      <point x="168" y="760" type="qcurve" smooth="yes"/>
      <point x="218" y="832"/>
      <point x="358" y="946"/>
      <point x="536" y="1012"/>
      <point x="641" y="1012" type="qcurve" smooth="yes"/>
      <point x="843" y="1012"/>
      <point x="1025" y="814"/>
      <point x="1025" y="654" type="qcurve" smooth="yes"/>
      <point x="1025" y="591"/>
      <point x="999" y="454"/>
      <point x="981" y="410" type="qcurve"/>
      <point x="291" y="410" type="line"/>
      <point x="289" y="379" type="line"/>
      <point x="289" y="215"/>
      <point x="475" y="215" type="qcurve" smooth="yes"/>
      <point x="561" y="215"/>
      <point x="691" y="261"/>
      <point x="754" y="315" type="qcurve"/>
      <point x="895" y="152" type="line"/>
      <point x="786" y="59"/>
      <point x="667" y="20" type="qcurve"/>
      <point x="594" y="-15"/>
      <point x="470" y="-121"/>
      <point x="454" y="-189" type="qcurve"/>
      <point x="450" y="-216" type="line"/>
      <point x="450" y="-238"/>
      <point x="475" y="-254"/>
      <point x="499" y="-254" type="qcurve" smooth="yes"/>
      <point x="565" y="-254"/>
      <point x="626" y="-189" type="qcurve"/>
      <point x="733" y="-291" type="line"/>
      <point x="633" y="-404"/>
    </contour>
    <contour>
      <point x="793" y="586" type="line"/>
      <point x="796" y="615"/>
      <point x="796" y="638" type="qcurve" smooth="yes"/>
      <point x="796" y="729"/>
      <point x="710" y="807"/>
      <point x="621" y="807" type="qcurve" smooth="yes"/>
      <point x="550" y="807"/>
      <point x="440" y="748"/>
      <point x="359" y="649"/>
      <point x="334" y="586" type="qcurve"/>
    </contour>
  </outline>
</glyph>
<glyph name="dotlessi" format="2">
  <advance width="516"/>
  <unicode hex="0131"/>
  <outline>
    <contour>
      <point x="256" y="0" type="line"/>
      <point x="31" y="0" type="line"/>
      <point x="260" y="999" type="line"/>
      <point x="485" y="999" type="line"/>
    </contour>
  </outline>
</glyph>
<glyph name="Lcaron" format="2">
  <advance width="1063"/>
  <unicode hex="013D"/>
  <outline>
    <contour>
      <point x="926" y="0" type="line"/>
      <point x="68" y="0" type="line"/>
      <point x="393" y="1413" type="line"/>
      <point x="647" y="1413" type="line"/>
      <point x="377" y="240" type="line"/>
      <point x="981" y="240" type="line"/>
    </contour>
    <contour>
      <point x="922" y="958" type="line"/>
      <point x="774" y="958" type="line"/>
      <point x="993" y="1413" type="line"/>
      <point x="1253" y="1413" type="line"/>
    </contour>
  </outline>
</glyph>
<glyph name="lslash" format="2">
  <advance width="573"/>
  <unicode hex="0142"/>
  <outline>
    <contour>
      <point x="248" y="-20" type="qcurve" smooth="yes"/>
      <point x="161" y="-20"/>
      <point x="62" y="49"/>
      <point x="62" y="130" type="qcurve" smooth="yes"/>
      <point x="62" y="166"/>
      <point x="72" y="209" type="qcurve" smooth="yes"/>
      <point x="128" y="451" type="line"/>
      <point x="2" y="365" type="line"/>
      <point x="43" y="589" type="line"/>
      <point x="182" y="684" type="line"/>
      <point x="350" y="1413" type="line"/>
      <point x="594" y="1413" type="line"/>
      <point x="471" y="883" type="line"/>
      <point x="648" y="1004" type="line"/>
      <point x="607" y="779" type="line"/>
      <point x="417" y="649" type="line"/>
      <point x="323" y="243"/>
      <point x="323" y="235" type="qcurve" smooth="yes"/>
      <point x="323" y="199"/>
      <point x="376" y="199" type="qcurve" smooth="yes"/>
      <point x="396" y="199"/>
      <point x="457" y="207" type="qcurve"/>
      <point x="422" y="-2" type="line"/>
      <point x="321" y="-20"/>
    </contour>
  </outline>
</glyph>
<glyph name="Eng" format="2">
  <advance width="1454"/>
  <unicode hex="014A"/>
  <outline>
    <contour>
      <point x="750" y="-369" type="qcurve" smooth="yes"/>
      <point x="623" y="-369" type="line"/>
      <point x="653" y="-209" type="line"/>
      <point x="679" y="-210" type="line"/>
      <point x="753" y="-210"/>
      <point x="863" y="-165"/>
      <point x="924" y="-94"/>
      <point x="924" y="-56" type="qcurve"/>
      <point x="922" y="-37" type="line"/>
      <point x="543" y="997" type="line"/>
      <point x="311" y="0" type="line"/>
      <point x="68" y="0" type="line"/>
      <point x="393" y="1411" type="line"/>
      <point x="643" y="1411" type="line"/>
      <point x="1006" y="416" type="line"/>
      <point x="1239" y="1411" type="line"/>
      <point x="1481" y="1411" type="line"/>
      <point x="1151" y="-10" type="line"/>
      <point x="1114" y="-173"/>
      <point x="928" y="-369"/>
    </contour>
  </outline>
</glyph>
<glyph name="eng" format="2">
  <advance width="1157"/>
  <unicode hex="014B"/>
  <outline>
    <contour>
      <point x="530" y="-369" type="qcurve" smooth="yes"/>
      <point x="403" y="-369" type="line"/>
      <point x="451" y="-168" type="line"/>
      <point x="520" y="-168" type="line" smooth="yes"/>
      <point x="599" y="-168"/>
      <point x="671" y="-67"/>
      <point x="688" y="8" type="qcurve" smooth="yes"/>
      <point x="819" y="582" type="line" smooth="yes"/>
      <point x="834" y="647"/>
      <point x="834" y="687" type="qcurve" smooth="yes"/>
      <point x="834" y="799"/>
      <point x="721" y="799" type="qcurve" smooth="yes"/>
      <point x="643" y="799"/>
      <point x="504" y="721"/>
      <point x="407" y="602"/>
      <point x="391" y="539" type="qcurve"/>
      <point x="268" y="0" type="line"/>
      <point x="31" y="0" type="line"/>
      <point x="260" y="999" type="line"/>
      <point x="498" y="999" type="line"/>
      <point x="467" y="881" type="line"/>
      <point x="539" y="954"/>
      <point x="704" y="1016"/>
      <point x="782" y="1016" type="qcurve" smooth="yes"/>
      <point x="931" y="1016"/>
      <point x="1074" y="850"/>
      <point x="1074" y="719" type="qcurve" smooth="yes"/>
      <point x="1074" y="657"/>
      <point x="1059" y="592" type="qcurve" smooth="yes"/>
      <point x="905" y="-76" type="line"/>
      <point x="891" y="-142"/>
      <point x="832" y="-264"/>
      <point x="671" y="-369"/>
    </contour>
  </outline>
</glyph>
<glyph name="oe" format="2">
  <advance width="1829"/>
  <unicode hex="0153"/>
  <outline>
    <contour>
      <point x="457" y="-20" type="qcurve" smooth="yes"/>
      <point x="322" y="-20"/>
      <point x="136" y="86"/>
      <point x="39" y="270"/>
      <point x="39" y="385" type="qcurve" smooth="yes"/>
      <point x="39" y="471"/>
      <point x="102" y="672"/>
      <point x="174" y="766" type="qcurve" smooth="yes"/>
      <point x="259" y="876"/>
      <point x="512" y="1012"/>
      <point x="668" y="1012" type="qcurve" smooth="yes"/>
      <point x="789" y="1012"/>
      <point x="959" y="916"/>
      <point x="1006" y="842" type="qcurve"/>
      <point x="1093" y="931"/>
      <point x="1285" y="1012"/>
      <point x="1393" y="1012" type="qcurve" smooth="yes"/>
      <point x="1523" y="1012"/>
      <point x="1692" y="912"/>
      <point x="1774" y="738"/>
      <point x="1774" y="627" type="qcurve" smooth="yes"/>
      <point x="1774" y="577"/>
      <point x="1756" y="452"/>
      <point x="1735" y="408" type="qcurve"/>
      <point x="1047" y="408" type="line"/>
      <point x="1046" y="388" type="line"/>
      <point x="1046" y="314"/>
      <point x="1142" y="225"/>
      <point x="1241" y="225" type="qcurve" smooth="yes"/>
      <point x="1400" y="225"/>
      <point x="1530" y="340" type="qcurve"/>
      <point x="1677" y="168" type="line"/>
      <point x="1465" y="-12"/>
      <point x="1214" y="-12" type="qcurve" smooth="yes"/>
      <point x="1083" y="-12"/>
      <point x="907" y="83"/>
      <point x="866" y="154" type="qcurve"/>
      <point x="689" y="-20"/>
    </contour>
    <contour>
      <point x="471" y="186" type="qcurve" smooth="yes"/>
      <point x="608" y="186"/>
      <point x="784" y="370"/>
      <point x="819" y="518" type="qcurve" smooth="yes"/>
      <point x="833" y="577"/>
      <point x="833" y="624" type="qcurve" smooth="yes"/>
      <point x="833" y="705"/>
      <point x="745" y="803"/>
      <point x="647" y="803" type="qcurve" smooth="yes"/>
      <point x="510" y="803"/>
      <point x="334" y="619"/>
      <point x="299" y="471" type="qcurve" smooth="yes"/>
      <point x="285" y="412"/>
      <point x="285" y="365" type="qcurve" smooth="yes"/>
      <point x="285" y="284"/>
      <point x="373" y="186"/>
    </contour>
    <contour>
      <point x="1540" y="586" type="line"/>
      <point x="1541" y="623" type="line"/>
      <point x="1541" y="717"/>
      <point x="1460" y="799"/>
      <point x="1370" y="799" type="qcurve" smooth="yes"/>
      <point x="1302" y="799"/>
      <point x="1195" y="742"/>
      <point x="1116" y="646"/>
      <point x="1092" y="586" type="qcurve"/>
    </contour>
  </outline>
</glyph>
<glyph name="florin" format="2">
  <advance width="1028"/>
  <unicode hex="0192"/>
  <outline>
    <contour>
      <point x="-152" y="-457" type="qcurve"/>
      <point x="-117" y="-252" type="line"/>
      <point x="17" y="-252"/>
      <point x="177" y="-194"/>
      <point x="222" y="-134" type="qcurve" smooth="yes"/>
      <point x="269" y="-71"/>
      <point x="295" y="41" type="qcurve" smooth="yes"/>
      <point x="469" y="797" type="line"/>
      <point x="291" y="797" type="line"/>
      <point x="338" y="999" type="line"/>
      <point x="516" y="999" type="line"/>
      <point x="549" y="1135" type="line"/>
      <point x="586" y="1280"/>
      <point x="793" y="1448"/>
      <point x="909" y="1448" type="qcurve" smooth="yes"/>
      <point x="977" y="1448"/>
      <point x="1083" y="1394"/>
      <point x="1141" y="1335" type="qcurve"/>
      <point x="983" y="1194" type="line"/>
      <point x="955" y="1223"/>
      <point x="917" y="1243"/>
      <point x="887" y="1243" type="qcurve" smooth="yes"/>
      <point x="844" y="1243"/>
      <point x="764" y="1178"/>
      <point x="748" y="1114" type="qcurve"/>
      <point x="721" y="999" type="line"/>
      <point x="1026" y="999" type="line"/>
      <point x="979" y="797" type="line"/>
      <point x="674" y="797" type="line"/>
      <point x="496" y="20" type="line" smooth="yes"/>
      <point x="462" y="-131"/>
      <point x="298" y="-344"/>
      <point x="33" y="-457"/>
    </contour>
  </outline>
</glyph>
<glyph name="dotlessj" format="2">
  <advance width="530"/>
  <unicode hex="0237"/>
  <outline>
    <contour>
      <point x="-115" y="-438" type="qcurve" smooth="yes"/>
      <point x="-195" y="-438"/>
      <point x="-281" y="-401" type="qcurve"/>
      <point x="-193" y="-207" type="line"/>
      <point x="-147" y="-219"/>
      <point x="-96" y="-219" type="qcurve" smooth="yes"/>
      <point x="-14" y="-219"/>
      <point x="8" y="-113" type="qcurve"/>
      <point x="264" y="999" type="line"/>
      <point x="498" y="999" type="line"/>
      <point x="238" y="-125" type="line"/>
      <point x="218" y="-216"/>
      <point x="126" y="-357"/>
      <point x="-17" y="-438"/>
    </contour>
  </outline>
</glyph>
<glyph name="oopen" format="2">
  <advance width="999"/>
  <unicode hex="0254"/>
  <outline>
    <contour>
      <point x="358" y="-20" type="qcurve" smooth="yes"/>
      <point x="204" y="-20"/>
      <point x="10" y="145"/>
      <point x="-16" y="281" type="qcurve"/>
      <point x="227" y="350" type="line"/>
      <point x="231" y="277"/>
      <point x="316" y="209"/>
      <point x="385" y="209" type="qcurve" smooth="yes"/>
      <point x="471" y="209"/>
      <point x="599" y="295"/>
      <point x="683" y="435"/>
      <point x="702" y="520" type="qcurve" smooth="yes"/>
      <point x="714" y="570"/>
      <point x="714" y="615" type="qcurve" smooth="yes"/>
      <point x="714" y="691"/>
      <point x="636" y="786"/>
      <point x="545" y="786" type="qcurve" smooth="yes"/>
      <point x="463" y="786"/>
      <point x="332" y="695"/>
      <point x="295" y="625" type="qcurve"/>
      <point x="94" y="729" type="line"/>
      <point x="181" y="874"/>
      <point x="431" y="1016"/>
      <point x="569" y="1016" type="qcurve" smooth="yes"/>
      <point x="702" y="1016"/>
      <point x="874" y="913"/>
      <point x="958" y="736"/>
      <point x="958" y="626" type="qcurve" smooth="yes"/>
      <point x="958" y="514"/>
      <point x="879" y="286"/>
      <point x="725" y="97"/>
      <point x="502" y="-20"/>
    </contour>
  </outline>
</glyph>
<glyph name="schwa" format="2">
  <advance width="1057"/>
  <unicode hex="0259"/>
  <outline>
    <contour>
      <point x="418" y="-12" type="qcurve" smooth="yes"/>
      <point x="215" y="-12"/>
      <point x="35" y="183"/>
      <point x="35" y="345" type="qcurve" smooth="yes"/>
      <point x="35" y="470"/>
      <point x="78" y="590" type="qcurve"/>
      <point x="768" y="590" type="line"/>
      <point x="770" y="621" type="line"/>
      <point x="770" y="784"/>
      <point x="584" y="784" type="qcurve" smooth="yes"/>
      <point x="493" y="784"/>
      <point x="364" y="736"/>
      <point x="305" y="684" type="qcurve"/>
      <point x="164" y="848" type="line"/>
      <point x="347" y="1012"/>
      <point x="608" y="1012" type="qcurve" smooth="yes"/>
      <point x="747" y="1012"/>
      <point x="927" y="911"/>
      <point x="1016" y="737"/>
      <point x="1016" y="627" type="qcurve" smooth="yes"/>
      <point x="1016" y="525"/>
      <point x="945" y="309"/>
      <point x="801" y="121"/>
      <point x="691" y="58" type="qcurve" smooth="yes"/>
      <point x="569" y="-12"/>
    </contour>
    <contour>
      <point x="438" y="193" type="qcurve" smooth="yes"/>
      <point x="509" y="193"/>
      <point x="619" y="252"/>
      <point x="700" y="351"/>
      <point x="725" y="414" type="qcurve"/>
      <point x="266" y="393" type="line"/>
      <point x="263" y="369"/>
      <point x="263" y="347" type="qcurve" smooth="yes"/>
      <point x="263" y="266"/>
      <point x="349" y="193"/>
    </contour>
  </outline>
</glyph>
<glyph name="uni02F5" format="2">
  <advance width="1049"/>
  <unicode hex="02F5"/>
  <outline>
    <contour>
      <point x="573" y="670" type="line"/>
      <point x="395" y="670" type="line"/>
      <point x="88" y="999" type="line"/>
      <point x="348" y="999" type="line"/>
    </contour>
    <contour>
      <point x="942" y="670" type="line"/>
      <point x="764" y="670" type="line"/>
      <point x="457" y="999" type="line"/>
      <point x="717" y="999" type="line"/>
    </contour>
  </outline>
</glyph>
<glyph name="circumflexcmb" format="2">
  <unicode hex="0302"/>
  <anchor x="-211" y="999" name="_t.ringcmb_1"/>
  <outline>
    <contour>
      <point x="125" y="1098" type="line"/>
      <point x="-57" y="1098" type="line"/>
      <point x="-151" y="1243" type="line"/>
      <point x="-313" y="1098" type="line"/>
      <point x="-508" y="1098" type="line"/>
      <point x="-112" y="1450" type="line"/>
    </contour>
  </outline>
</glyph>
<glyph name="tildecmb" format="2">
  <unicode hex="0303"/>
  <anchor x="-277" y="1020" name="_t.ringcmb_1"/>
  <outline>
    <contour>
      <point x="-113" y="1126" type="qcurve" smooth="yes"/>
      <point x="-180" y="1126"/>
      <point x="-244" y="1178"/>
      <point x="-266" y="1221" type="qcurve" smooth="yes"/>
      <point x="-280" y="1247"/>
      <point x="-303" y="1270"/>
      <point x="-320" y="1270" type="qcurve" smooth="yes"/>
      <point x="-357" y="1270"/>
      <point x="-417" y="1191"/>
      <point x="-432" y="1133" type="qcurve"/>
      <point x="-586" y="1133" type="line"/>
      <point x="-554" y="1280"/>
      <point x="-416" y="1419"/>
      <point x="-324" y="1419" type="qcurve" smooth="yes"/>
      <point x="-263" y="1419"/>
      <point x="-200" y="1368"/>
      <point x="-177" y="1326" type="qcurve" smooth="yes"/>
      <point x="-162" y="1300"/>
      <point x="-138" y="1278"/>
      <point x="-123" y="1278" type="qcurve" smooth="yes"/>
      <point x="-90" y="1278"/>
      <point x="-31" y="1354"/>
      <point x="-15" y="1413" type="qcurve"/>
      <point x="147" y="1413" type="line"/>
      <point x="113" y="1265"/>
      <point x="-23" y="1126"/>
    </contour>
  </outline>
</glyph>
<glyph name="brevecmb" format="2">
  <unicode hex="0306"/>
  <anchor x="-291" y="999" name="_t.ringcmb_1"/>
  <outline>
    <contour>
      <point x="-244" y="1143" type="qcurve" smooth="yes"/>
      <point x="-386" y="1143"/>
      <point x="-518" y="1248"/>
      <point x="-518" y="1338" type="qcurve" smooth="yes"/>
      <point x="-518" y="1368"/>
      <point x="-508" y="1413" type="qcurve"/>
      <point x="-340" y="1413" type="line"/>
      <point x="-344" y="1393"/>
      <point x="-344" y="1373" type="qcurve" smooth="yes"/>
      <point x="-344" y="1286"/>
      <point x="-238" y="1286" type="qcurve" smooth="yes"/>
      <point x="-170" y="1286"/>
      <point x="-65" y="1357"/>
      <point x="-49" y="1413" type="qcurve"/>
      <point x="119" y="1413" type="line"/>
      <point x="90" y="1277"/>
      <point x="-83" y="1143"/>
    </contour>
  </outline>
</glyph>
<glyph name="dotaccentcmb" format="2">
  <unicode hex="0307"/>
  <anchor x="-141" y="999" name="_t.ringcmb_1"/>
  <outline>
    <contour>
      <point x="31" y="1188" type="line"/>
      <point x="-225" y="1188" type="line"/>
      <point x="-174" y="1413" type="line"/>
      <point x="82" y="1413" type="line"/>
    </contour>
  </outline>
</glyph>
<glyph name="ringcmb" format="2">
  <unicode hex="030A"/>
  <anchor x="-201" y="999" name="_t.ringcmb_1"/>
  <outline>
    <contour>
      <point x="-170" y="1069" type="qcurve" smooth="yes"/>
      <point x="-258" y="1069"/>
      <point x="-365" y="1183"/>
      <point x="-365" y="1263" type="qcurve" smooth="yes"/>
      <point x="-365" y="1332"/>
      <point x="-284" y="1464"/>
      <point x="-208" y="1503" type="qcurve" smooth="yes"/>
      <point x="-153" y="1530"/>
      <point x="-94" y="1530" type="qcurve" smooth="yes"/>
      <point x="-4" y="1530"/>
      <point x="102" y="1414"/>
      <point x="102" y="1337" type="qcurve" smooth="yes"/>
      <point x="102" y="1298"/>
      <point x="71" y="1211"/>
      <point x="39" y="1172" type="qcurve"/>
      <point x="-50" y="1069"/>
    </contour>
    <contour>
      <point x="-152" y="1200" type="qcurve" smooth="yes"/>
      <point x="-114" y="1200"/>
      <point x="-60" y="1239"/>
      <point x="-31" y="1298"/>
      <point x="-31" y="1327" type="qcurve" smooth="yes"/>
      <point x="-31" y="1403"/>
      <point x="-113" y="1405" type="qcurve"/>
      <point x="-170" y="1405"/>
      <point x="-232" y="1329"/>
      <point x="-232" y="1280" type="qcurve" smooth="yes"/>
      <point x="-232" y="1240"/>
      <point x="-188" y="1200"/>
    </contour>
  </outline>
</glyph>
<glyph name="dblgravecmb" format="2">
  <unicode hex="030F"/>
  <anchor x="-227" y="999" name="_t.ringcmb_1"/>
  <outline>
    <contour>
      <point x="-270" y="1083" type="line"/>
      <point x="-444" y="1083" type="line"/>
      <point x="-676" y="1413" type="line"/>
      <point x="-420" y="1413" type="line"/>
    </contour>
    <contour>
      <point x="98" y="1083" type="line"/>
      <point x="-76" y="1083" type="line"/>
      <point x="-307" y="1413" type="line"/>
      <point x="-51" y="1413" type="line"/>
    </contour>
  </outline>
</glyph>
<glyph name="commaturnedabovecmb" format="2">
  <unicode hex="0312"/>
  <anchor x="-177" y="999" name="_t.ringcmb_1"/>
  <outline>
    <contour>
      <point x="-72" y="1119" type="line"/>
      <point x="-330" y="1119" type="line"/>
      <point x="0" y="1434" type="line"/>
      <point x="145" y="1434" type="line"/>
    </contour>
  </outline>
</glyph>
<glyph name="cedillacmb" format="2">
  <unicode hex="0327"/>
  <anchor x="-375" y="0" name="_b.uni0326"/>
  <anchor x="-375" y="0" name="_b.uni0326_2"/>
  <anchor x="-514" y="-500" name="b.uni0326_2"/>
  <outline>
    <contour>
      <point x="-526" y="-522" type="qcurve" smooth="yes"/>
      <point x="-595" y="-522"/>
      <point x="-690" y="-441"/>
      <point x="-703" y="-383" type="qcurve"/>
      <point x="-561" y="-346" type="line"/>
      <point x="-556" y="-383"/>
      <point x="-514" y="-383" type="qcurve" smooth="yes"/>
      <point x="-471" y="-383"/>
      <point x="-440" y="-354" type="qcurve" smooth="yes"/>
      <point x="-402" y="-320"/>
      <point x="-395" y="-269" type="qcurve"/>
      <point x="-395" y="-237"/>
      <point x="-466" y="-195"/>
      <point x="-533" y="-195" type="qcurve" smooth="yes"/>
      <point x="-610" y="-195" type="line"/>
      <point x="-451" y="-2" type="line"/>
      <point x="-301" y="-2" type="line"/>
      <point x="-410" y="-102" type="line"/>
      <point x="-332" y="-113"/>
      <point x="-256" y="-201"/>
      <point x="-256" y="-264" type="qcurve" smooth="yes"/>
      <point x="-256" y="-369"/>
      <point x="-415" y="-522"/>
    </contour>
  </outline>
</glyph>
<glyph name="pi" format="2">
  <advance width="1004"/>
  <unicode hex="03C0"/>
  <outline>
    <contour>
      <point x="727" y="-20" type="qcurve" smooth="yes"/>
      <point x="631" y="-20"/>
      <point x="533" y="87"/>
      <point x="533" y="169" type="qcurve" smooth="yes"/>
      <point x="533" y="208"/>
      <point x="543" y="248" type="qcurve"/>
      <point x="668" y="795" type="line"/>
      <point x="440" y="795" type="line"/>
      <point x="258" y="0" type="line"/>
      <point x="53" y="0" type="line"/>
      <point x="236" y="795" type="line"/>
      <point x="154" y="795" type="line"/>
      <point x="201" y="999" type="line"/>
      <point x="1001" y="999" type="line"/>
      <point x="954" y="795" type="line"/>
      <point x="872" y="795" type="line"/>
      <point x="750" y="260" type="line" smooth="yes"/>
      <point x="738" y="209"/>
      <point x="738" y="189" type="qcurve" smooth="yes"/>
      <point x="738" y="172"/>
      <point x="748" y="160"/>
      <point x="758" y="160" type="qcurve" smooth="yes"/>
      <point x="778" y="160"/>
      <point x="811" y="182" type="qcurve"/>
      <point x="848" y="8" type="line"/>
      <point x="795" y="-20"/>
    </contour>
  </outline>
</glyph>
<glyph name="afii10051" format="2">
  <advance width="1610"/>
  <unicode hex="0402"/>
  <outline>
    <contour>
      <point x="987" y="-20" type="qcurve" smooth="yes"/>
      <point x="911" y="-20"/>
      <point x="742" y="61"/>
      <point x="690" y="113" type="qcurve"/>
      <point x="840" y="274" type="line"/>
      <point x="887" y="219"/>
      <point x="975" y="219" type="qcurve" smooth="yes"/>
      <point x="1089" y="219"/>
      <point x="1249" y="330"/>
      <point x="1276" y="436" type="qcurve"/>
      <point x="1295" y="520"/>
      <point x="1295" y="576" type="qcurve" smooth="yes"/>
      <point x="1295" y="671"/>
      <point x="1186" y="756"/>
      <point x="1075" y="756" type="qcurve" smooth="yes"/>
      <point x="889" y="756"/>
      <point x="752" y="629" type="qcurve"/>
      <point x="602" y="0" type="line"/>
      <point x="348" y="0" type="line"/>
      <point x="621" y="1184" type="line"/>
      <point x="178" y="1184" type="line"/>
      <point x="231" y="1411" type="line"/>
      <point x="1370" y="1411" type="line"/>
      <point x="1317" y="1184" type="line"/>
      <point x="874" y="1184" type="line"/>
      <point x="811" y="934" type="line"/>
      <point x="962" y="1001"/>
      <point x="1106" y="1001" type="qcurve" smooth="yes"/>
      <point x="1260" y="1001"/>
      <point x="1456" y="906"/>
      <point x="1549" y="730"/>
      <point x="1549" y="608" type="qcurve" smooth="yes"/>
      <point x="1549" y="521"/>
      <point x="1524" y="408" type="qcurve"/>
      <point x="1471" y="182"/>
      <point x="1195" y="-20"/>
    </contour>
  </outline>
</glyph>
<glyph name="afii10059" format="2">
  <advance width="2040"/>
  <unicode hex="040A"/>
  <outline>
    <contour>
      <point x="1389" y="0" type="qcurve" smooth="yes"/>
      <point x="940" y="0" type="line"/>
      <point x="1075" y="590" type="line"/>
      <point x="457" y="590" type="line"/>
      <point x="322" y="0" type="line"/>
      <point x="68" y="0" type="line"/>
      <point x="393" y="1411" type="line"/>
      <point x="647" y="1411" type="line"/>
      <point x="510" y="823" type="line"/>
      <point x="1128" y="823" type="line"/>
      <point x="1266" y="1411" type="line"/>
      <point x="1520" y="1411" type="line"/>
      <point x="1384" y="825" type="line"/>
      <point x="1567" y="825" type="line" smooth="yes"/>
      <point x="1687" y="825"/>
      <point x="1876" y="753"/>
      <point x="1985" y="608"/>
      <point x="1985" y="499" type="qcurve" smooth="yes"/>
      <point x="1985" y="418"/>
      <point x="1923" y="249"/>
      <point x="1861" y="181" type="qcurve"/>
      <point x="1773" y="89"/>
      <point x="1528" y="0"/>
    </contour>
    <contour>
      <point x="1430" y="238" type="line" smooth="yes"/>
      <point x="1562" y="238"/>
      <point x="1710" y="345"/>
      <point x="1731" y="438" type="qcurve" smooth="yes"/>
      <point x="1736" y="461"/>
      <point x="1736" y="477" type="qcurve" smooth="yes"/>
      <point x="1736" y="536"/>
      <point x="1630" y="588"/>
      <point x="1524" y="588" type="qcurve" smooth="yes"/>
      <point x="1329" y="588" type="line"/>
      <point x="1247" y="238" type="line"/>
    </contour>
  </outline>
</glyph>
<glyph name="afii10060" format="2">
  <advance width="1630"/>
  <unicode hex="040B"/>
  <outline>
    <contour>
      <point x="1430" y="0" type="line"/>
      <point x="1176" y="0" type="line"/>
      <point x="1270" y="412" type="line"/>
      <point x="1293" y="509"/>
      <point x="1293" y="575" type="qcurve" smooth="yes"/>
      <point x="1293" y="672"/>
      <point x="1187" y="756"/>
      <point x="1075" y="756" type="qcurve" smooth="yes"/>
      <point x="889" y="756"/>
      <point x="752" y="629" type="qcurve"/>
      <point x="602" y="0" type="line"/>
      <point x="348" y="0" type="line"/>
      <point x="621" y="1184" type="line"/>
      <point x="178" y="1184" type="line"/>
      <point x="231" y="1411" type="line"/>
      <point x="1370" y="1411" type="line"/>
      <point x="1317" y="1184" type="line"/>
      <point x="874" y="1184" type="line"/>
      <point x="811" y="934" type="line"/>
      <point x="962" y="1001"/>
      <point x="1106" y="1001" type="qcurve" smooth="yes"/>
      <point x="1261" y="1001"/>
      <point x="1457" y="905"/>
      <point x="1550" y="730"/>
      <point x="1550" y="611" type="qcurve" smooth="yes"/>
      <point x="1550" y="522"/>
      <point x="1526" y="420" type="qcurve" smooth="yes"/>
    </contour>
  </outline>
</glyph>
<glyph name="uni040D" format="2">
  <advance width="1491"/>
  <unicode hex="040D"/>
  <outline>
    <contour>
      <point x="1102" y="1516" type="line"/>
      <point x="930" y="1516" type="line"/>
      <point x="692" y="1825" type="line"/>
      <point x="948" y="1825" type="line"/>
    </contour>
    <contour>
      <point x="1194" y="0" type="line"/>
      <point x="940" y="0" type="line"/>
      <point x="1184" y="1059"/>
      <point x="1186" y="1070" type="qcurve"/>
      <point x="365" y="0" type="line"/>
      <point x="68" y="0" type="line"/>
      <point x="393" y="1411" type="line"/>
      <point x="647" y="1411" type="line"/>
      <point x="410" y="383"/>
      <point x="399" y="338" type="qcurve"/>
      <point x="1223" y="1411" type="line"/>
      <point x="1520" y="1411" type="line"/>
    </contour>
  </outline>
</glyph>
<glyph name="afii10062" format="2">
  <advance width="1110"/>
  <unicode hex="040E"/>
  <outline>
    <contour>
      <point x="797" y="1554" type="qcurve" smooth="yes"/>
      <point x="654" y="1554"/>
      <point x="524" y="1659"/>
      <point x="524" y="1747" type="qcurve" smooth="yes"/>
      <point x="524" y="1781"/>
      <point x="535" y="1825" type="qcurve"/>
      <point x="700" y="1825" type="line"/>
      <point x="696" y="1805"/>
      <point x="696" y="1786" type="qcurve" smooth="yes"/>
      <point x="696" y="1739"/>
      <point x="752" y="1698"/>
      <point x="805" y="1698" type="qcurve" smooth="yes"/>
      <point x="871" y="1698"/>
      <point x="976" y="1767"/>
      <point x="993" y="1825" type="qcurve"/>
      <point x="1159" y="1825" type="line"/>
      <point x="1131" y="1689"/>
      <point x="957" y="1554"/>
    </contour>
    <contour>
      <point x="373" y="0" type="line"/>
      <point x="102" y="0" type="line"/>
      <point x="401" y="457" type="line"/>
      <point x="225" y="1411" type="line"/>
      <point x="489" y="1411" type="line"/>
      <point x="598" y="735" type="line"/>
      <point x="1038" y="1411" type="line"/>
      <point x="1311" y="1411" type="line"/>
    </contour>
  </outline>
</glyph>
<glyph name="afii10145" format="2">
  <advance width="1491"/>
  <unicode hex="040F"/>
  <outline>
    <contour>
      <point x="686" y="-307" type="line"/>
      <point x="432" y="-307" type="line"/>
      <point x="504" y="0" type="line"/>
      <point x="68" y="0" type="line"/>
      <point x="393" y="1411" type="line"/>
      <point x="647" y="1411" type="line"/>
      <point x="375" y="233" type="line"/>
      <point x="993" y="233" type="line"/>
      <point x="1266" y="1411" type="line"/>
      <point x="1520" y="1411" type="line"/>
      <point x="1194" y="0" type="line"/>
      <point x="758" y="0" type="line"/>
    </contour>
  </outline>
</glyph>
<glyph name="afii10018" format="2">
  <advance width="1274"/>
  <unicode hex="0411"/>
  <outline>
    <contour>
      <point x="625" y="0" type="qcurve" smooth="yes"/>
      <point x="68" y="0" type="line"/>
      <point x="393" y="1411" type="line"/>
      <point x="1217" y="1411" type="line"/>
      <point x="1163" y="1182" type="line"/>
      <point x="594" y="1182" type="line"/>
      <point x="516" y="844" type="line"/>
      <point x="811" y="844" type="line" smooth="yes"/>
      <point x="943" y="844"/>
      <point x="1108" y="763"/>
      <point x="1185" y="620"/>
      <point x="1185" y="526" type="qcurve" smooth="yes"/>
      <point x="1185" y="461"/>
      <point x="1167" y="387" type="qcurve" smooth="yes"/>
      <point x="1137" y="262"/>
      <point x="972" y="89"/>
      <point x="745" y="0"/>
    </contour>
    <contour>
      <point x="672" y="242" type="line" smooth="yes"/>
      <point x="767" y="242"/>
      <point x="908" y="348"/>
      <point x="936" y="461" type="qcurve"/>
      <point x="940" y="483"/>
      <point x="940" y="493" type="qcurve" smooth="yes"/>
      <point x="940" y="548"/>
      <point x="850" y="625"/>
      <point x="762" y="625" type="qcurve" smooth="yes"/>
      <point x="465" y="625" type="line"/>
      <point x="377" y="242" type="line"/>
    </contour>
  </outline>
</glyph>
<glyph name="afii10028" format="2">
  <advance width="1350"/>
  <unicode hex="041A"/>
  <outline>
    <contour>
      <point x="1214" y="0" type="line"/>
      <point x="903" y="0" type="line"/>
      <point x="848" y="483" type="line" smooth="yes"/>
      <point x="840" y="555"/>
      <point x="776" y="664"/>
      <point x="707" y="664" type="qcurve" smooth="yes"/>
      <point x="473" y="664" type="line"/>
      <point x="322" y="0" type="line"/>
      <point x="68" y="0" type="line"/>
      <point x="393" y="1411" type="line"/>
      <point x="647" y="1411" type="line"/>
      <point x="528" y="901" type="line"/>
      <point x="676" y="901" type="line"/>
      <point x="1128" y="1411" type="line"/>
      <point x="1473" y="1411" type="line"/>
      <point x="907" y="834" type="line"/>
      <point x="979" y="834"/>
      <point x="1063" y="672"/>
      <point x="1081" y="578" type="qcurve"/>
    </contour>
  </outline>
</glyph>
<glyph name="afii10033" format="2">
  <advance width="1491"/>
  <unicode hex="041F"/>
  <outline>
    <contour>
      <point x="1194" y="0" type="line"/>
      <point x="940" y="0" type="line"/>
      <point x="1210" y="1178" type="line"/>
      <point x="592" y="1178" type="line"/>
      <point x="322" y="0" type="line"/>
      <point x="68" y="0" type="line"/>
      <point x="393" y="1411" type="line"/>
      <point x="1520" y="1411" type="line"/>
    </contour>
  </outline>
</glyph>
<glyph name="afii10034" format="2">
  <advance width="1167"/>
  <unicode hex="0420"/>
  <outline>
    <contour>
      <point x="319" y="0" type="line"/>
      <point x="68" y="0" type="line"/>
      <point x="393" y="1411" type="line"/>
      <point x="829" y="1411" type="line" smooth="yes"/>
      <point x="949" y="1411"/>
      <point x="1140" y="1336"/>
      <point x="1195" y="1258" type="qcurve"/>
      <point x="1246" y="1183"/>
      <point x="1246" y="1079" type="qcurve" smooth="yes"/>
      <point x="1246" y="989"/>
      <point x="1179" y="823"/>
      <point x="1123" y="763" type="qcurve" smooth="yes"/>
      <point x="1036" y="671"/>
      <point x="791" y="586"/>
      <point x="651" y="586" type="qcurve" smooth="yes"/>
      <point x="455" y="586" type="line"/>
    </contour>
    <contour>
      <point x="692" y="823" type="line" smooth="yes"/>
      <point x="949" y="823"/>
      <point x="991" y="1018" type="qcurve"/>
      <point x="997" y="1041"/>
      <point x="997" y="1059" type="qcurve" smooth="yes"/>
      <point x="997" y="1174"/>
      <point x="786" y="1174" type="qcurve" smooth="yes"/>
      <point x="590" y="1174" type="line"/>
      <point x="508" y="823" type="line"/>
    </contour>
  </outline>
</glyph>
<glyph name="afii10035" format="2">
  <advance width="1434"/>
  <unicode hex="0421"/>
  <outline>
    <contour>
      <point x="659" y="-20" type="qcurve" smooth="yes"/>
      <point x="470" y="-20"/>
      <point x="227" y="118"/>
      <point x="109" y="359"/>
      <point x="109" y="512" type="qcurve" smooth="yes"/>
      <point x="109" y="653"/>
      <point x="201" y="952"/>
      <point x="291" y="1084" type="qcurve" smooth="yes"/>
      <point x="401" y="1244"/>
      <point x="747" y="1436"/>
      <point x="967" y="1436" type="qcurve" smooth="yes"/>
      <point x="1184" y="1436"/>
      <point x="1459" y="1217"/>
      <point x="1501" y="1020" type="qcurve"/>
      <point x="1249" y="946" type="line"/>
      <point x="1242" y="1079"/>
      <point x="1078" y="1194"/>
      <point x="936" y="1194" type="qcurve" smooth="yes"/>
      <point x="784" y="1194"/>
      <point x="558" y="1061"/>
      <point x="412" y="836"/>
      <point x="379" y="694" type="qcurve" smooth="yes"/>
      <point x="359" y="606"/>
      <point x="359" y="532" type="qcurve" smooth="yes"/>
      <point x="359" y="387"/>
      <point x="519" y="221"/>
      <point x="688" y="221" type="qcurve" smooth="yes"/>
      <point x="838" y="221"/>
      <point x="1062" y="359"/>
      <point x="1145" y="494" type="qcurve"/>
      <point x="1358" y="377" type="line"/>
      <point x="1223" y="174"/>
      <point x="860" y="-20"/>
    </contour>
  </outline>
</glyph>
<glyph name="afii10039" format="2">
  <advance width="1343"/>
  <unicode hex="0425"/>
  <outline>
    <contour>
      <point x="1200" y="0" type="line"/>
      <point x="903" y="0" type="line"/>
      <point x="684" y="537" type="line"/>
      <point x="215" y="0" type="line"/>
      <point x="-94" y="0" type="line"/>
      <point x="545" y="707" type="line"/>
      <point x="240" y="1413" type="line"/>
      <point x="539" y="1413" type="line"/>
      <point x="752" y="868" type="line"/>
      <point x="1223" y="1413" type="line"/>
      <point x="1530" y="1413" type="line"/>
      <point x="893" y="707" type="line"/>
    </contour>
  </outline>
</glyph>
<glyph name="afii10041" format="2">
  <advance width="1350"/>
  <unicode hex="0427"/>
  <outline>
    <contour>
      <point x="1053" y="0" type="line"/>
      <point x="799" y="0" type="line"/>
      <point x="913" y="477" type="line"/>
      <point x="765" y="410"/>
      <point x="618" y="410" type="qcurve" smooth="yes"/>
      <point x="394" y="410"/>
      <point x="176" y="613"/>
      <point x="176" y="796" type="qcurve" smooth="yes"/>
      <point x="176" y="888"/>
      <point x="201" y="991" type="qcurve"/>
      <point x="297" y="1411" type="line"/>
      <point x="551" y="1411" type="line"/>
      <point x="455" y="999" type="line"/>
      <point x="432" y="896"/>
      <point x="432" y="835" type="qcurve" smooth="yes"/>
      <point x="432" y="739"/>
      <point x="537" y="655"/>
      <point x="649" y="655" type="qcurve" smooth="yes"/>
      <point x="833" y="655"/>
      <point x="975" y="782" type="qcurve"/>
      <point x="1124" y="1411" type="line"/>
      <point x="1378" y="1411" type="line"/>
    </contour>
  </outline>
</glyph>
<glyph name="afii10042" format="2">
  <advance width="1802"/>
  <unicode hex="0428"/>
  <outline>
    <contour>
      <point x="1505" y="0" type="line"/>
      <point x="68" y="0" type="line"/>
      <point x="393" y="1411" type="line"/>
      <point x="647" y="1411" type="line"/>
      <point x="375" y="233" type="line"/>
      <point x="713" y="233" type="line"/>
      <point x="985" y="1411" type="line"/>
      <point x="1239" y="1411" type="line"/>
      <point x="967" y="233" type="line"/>
      <point x="1305" y="233" type="line"/>
      <point x="1577" y="1411" type="line"/>
      <point x="1831" y="1411" type="line"/>
    </contour>
  </outline>
</glyph>
<glyph name="afii10047" format="2">
  <advance width="1432"/>
  <unicode hex="042D"/>
  <outline>
    <contour>
      <point x="559" y="-20" type="qcurve" smooth="yes"/>
      <point x="353" y="-20"/>
      <point x="69" y="190"/>
      <point x="25" y="397" type="qcurve"/>
      <point x="274" y="473" type="line"/>
      <point x="294" y="343"/>
      <point x="444" y="221"/>
      <point x="588" y="221" type="qcurve" smooth="yes"/>
      <point x="776" y="221"/>
      <point x="1042" y="428"/>
      <point x="1110" y="600" type="qcurve"/>
      <point x="543" y="590" type="line"/>
      <point x="596" y="823" type="line"/>
      <point x="1167" y="834" type="line"/>
      <point x="1169" y="852"/>
      <point x="1169" y="886" type="qcurve" smooth="yes"/>
      <point x="1169" y="977"/>
      <point x="1102" y="1116"/>
      <point x="959" y="1194"/>
      <point x="844" y="1194" type="qcurve" smooth="yes"/>
      <point x="701" y="1194"/>
      <point x="462" y="1067"/>
      <point x="387" y="926" type="qcurve"/>
      <point x="172" y="1040" type="line"/>
      <point x="308" y="1244"/>
      <point x="671" y="1436"/>
      <point x="870" y="1436" type="qcurve" smooth="yes"/>
      <point x="1058" y="1436"/>
      <point x="1301" y="1297"/>
      <point x="1419" y="1056"/>
      <point x="1419" y="902" type="qcurve" smooth="yes"/>
      <point x="1419" y="760"/>
      <point x="1327" y="462"/>
      <point x="1236" y="330" type="qcurve" smooth="yes"/>
      <point x="1125" y="170"/>
      <point x="779" y="-20"/>
    </contour>
  </outline>
</glyph>
<glyph name="afii10049" format="2">
  <advance width="1262"/>
  <unicode hex="042F"/>
  <outline>
    <contour>
      <point x="963" y="-2" type="line"/>
      <point x="709" y="-2" type="line"/>
      <point x="846" y="604" type="line"/>
      <point x="672" y="604" type="line"/>
      <point x="205" y="-2" type="line"/>
      <point x="-98" y="-2" type="line"/>
      <point x="432" y="625" type="line"/>
      <point x="343" y="660"/>
      <point x="258" y="833"/>
      <point x="258" y="936" type="qcurve" smooth="yes"/>
      <point x="258" y="990"/>
      <point x="270" y="1042" type="qcurve" smooth="yes"/>
      <point x="315" y="1237"/>
      <point x="620" y="1413"/>
      <point x="838" y="1413" type="qcurve" smooth="yes"/>
      <point x="1288" y="1413" type="line"/>
    </contour>
    <contour>
      <point x="893" y="811" type="line"/>
      <point x="979" y="1186" type="line"/>
      <point x="768" y="1186" type="line" smooth="yes"/>
      <point x="655" y="1186"/>
      <point x="520" y="1093"/>
      <point x="502" y="1016" type="qcurve" smooth="yes"/>
      <point x="495" y="985"/>
      <point x="495" y="964" type="qcurve" smooth="yes"/>
      <point x="495" y="895"/>
      <point x="592" y="815"/>
      <point x="676" y="811" type="qcurve"/>
    </contour>
  </outline>
</glyph>
<glyph name="afii10066" format="2">
  <advance width="1247"/>
  <unicode hex="0431"/>
  <outline>
    <contour>
      <point x="565" y="-20" type="qcurve" smooth="yes"/>
      <point x="367" y="-20"/>
      <point x="137" y="182"/>
      <point x="137" y="369" type="qcurve" smooth="yes"/>
      <point x="137" y="444"/>
      <point x="157" y="527" type="qcurve" smooth="yes"/>
      <point x="176" y="610"/>
      <point x="195" y="694" type="qcurve" smooth="yes"/>
      <point x="231" y="853"/>
      <point x="351" y="1075"/>
      <point x="467" y="1197"/>
      <point x="530" y="1245" type="qcurve"/>
      <point x="683" y="1334"/>
      <point x="899" y="1379" type="qcurve"/>
      <point x="976" y="1396"/>
      <point x="1202" y="1436" type="qcurve"/>
      <point x="1159" y="1192" type="line"/>
      <point x="1016" y="1174"/>
      <point x="731" y="1098"/>
      <point x="678" y="1071" type="qcurve"/>
      <point x="588" y="1042"/>
      <point x="469" y="919"/>
      <point x="431" y="784" type="qcurve"/>
      <point x="505" y="864"/>
      <point x="714" y="961"/>
      <point x="838" y="961" type="qcurve" smooth="yes"/>
      <point x="1022" y="961"/>
      <point x="1206" y="778"/>
      <point x="1206" y="622" type="qcurve" smooth="yes"/>
      <point x="1206" y="524"/>
      <point x="1139" y="318"/>
      <point x="1066" y="225" type="qcurve" smooth="yes"/>
      <point x="978" y="115"/>
      <point x="720" y="-20"/>
    </contour>
    <contour>
      <point x="588" y="190" type="qcurve" smooth="yes"/>
      <point x="675" y="190"/>
      <point x="814" y="272"/>
      <point x="909" y="411"/>
      <point x="930" y="498" type="qcurve" smooth="yes"/>
      <point x="941" y="547"/>
      <point x="941" y="584" type="qcurve" smooth="yes"/>
      <point x="941" y="750"/>
      <point x="743" y="750" type="qcurve" smooth="yes"/>
      <point x="657" y="750"/>
      <point x="515" y="659"/>
      <point x="467" y="591" type="qcurve" smooth="yes"/>
      <point x="392" y="484"/>
      <point x="392" y="364" type="qcurve" smooth="yes"/>
      <point x="392" y="283"/>
      <point x="485" y="190"/>
    </contour>
  </outline>
</glyph>
<glyph name="afii10073" format="2">
  <advance width="1018"/>
  <unicode hex="0437"/>
  <outline>
    <contour>
      <point x="223" y="-442" type="qcurve" smooth="yes"/>
      <point x="100" y="-442"/>
      <point x="-127" y="-315"/>
      <point x="-166" y="-190" type="qcurve"/>
      <point x="72" y="-59" type="line"/>
      <point x="77" y="-140"/>
      <point x="188" y="-215"/>
      <point x="250" y="-215" type="qcurve" smooth="yes"/>
      <point x="362" y="-215"/>
      <point x="559" y="-94"/>
      <point x="592" y="27" type="qcurve"/>
      <point x="600" y="62"/>
      <point x="600" y="91" type="qcurve" smooth="yes"/>
      <point x="600" y="221"/>
      <point x="453" y="221" type="qcurve" smooth="yes"/>
      <point x="260" y="221" type="line"/>
      <point x="309" y="436" type="line"/>
      <point x="496" y="436" type="line" smooth="yes"/>
      <point x="585" y="436"/>
      <point x="689" y="540"/>
      <point x="709" y="629" type="qcurve" smooth="yes"/>
      <point x="714" y="651"/>
      <point x="714" y="666" type="qcurve" smooth="yes"/>
      <point x="714" y="724"/>
      <point x="623" y="780"/>
      <point x="551" y="780" type="qcurve" smooth="yes"/>
      <point x="389" y="780"/>
      <point x="244" y="582" type="qcurve"/>
      <point x="33" y="713" type="line"/>
      <point x="141" y="877"/>
      <point x="398" y="1012"/>
      <point x="575" y="1012" type="qcurve" smooth="yes"/>
      <point x="677" y="1012"/>
      <point x="851" y="941"/>
      <point x="957" y="801"/>
      <point x="957" y="697" type="qcurve" smooth="yes"/>
      <point x="957" y="559"/>
      <point x="869" y="451" type="qcurve" smooth="yes"/>
      <point x="812" y="380"/>
      <point x="709" y="332" type="qcurve"/>
      <point x="846" y="266"/>
      <point x="846" y="102" type="qcurve" smooth="yes"/>
      <point x="846" y="41"/>
      <point x="829" y="-35" type="qcurve"/>
      <point x="795" y="-172"/>
      <point x="613" y="-352"/>
      <point x="360" y="-442"/>
    </contour>
  </outline>
</glyph>
<glyph name="afii10074" format="2">
  <advance width="1167"/>
  <unicode hex="0438"/>
  <outline>
    <contour>
      <point x="377" y="-23" type="qcurve" smooth="yes"/>
      <point x="226" y="-23"/>
      <point x="81" y="153"/>
      <point x="81" y="290" type="qcurve" smooth="yes"/>
      <point x="81" y="356"/>
      <point x="96" y="422" type="qcurve" smooth="yes"/>
      <point x="229" y="999" type="line"/>
      <point x="477" y="999" type="line"/>
      <point x="342" y="414" type="line" smooth="yes"/>
      <point x="329" y="357"/>
      <point x="329" y="320" type="qcurve" smooth="yes"/>
      <point x="329" y="209"/>
      <point x="454" y="209" type="qcurve" smooth="yes"/>
      <point x="463" y="209" type="line" smooth="yes"/>
      <point x="569" y="209"/>
      <point x="739" y="348"/>
      <point x="778" y="518" type="qcurve" smooth="yes"/>
      <point x="889" y="999" type="line"/>
      <point x="1137" y="999" type="line"/>
      <point x="907" y="0" type="line"/>
      <point x="666" y="0" type="line"/>
      <point x="688" y="109" type="line"/>
      <point x="618" y="39"/>
      <point x="456" y="-23"/>
    </contour>
  </outline>
</glyph>
<glyph name="afii10082" format="2">
  <advance width="1161"/>
  <unicode hex="0440"/>
  <outline>
    <contour>
      <point x="176" y="-438" type="line"/>
      <point x="-72" y="-438" type="line"/>
      <point x="260" y="999" type="line"/>
      <point x="508" y="999" type="line"/>
      <point x="483" y="907" type="line"/>
      <point x="549" y="969"/>
      <point x="700" y="1020"/>
      <point x="786" y="1020" type="qcurve" smooth="yes"/>
      <point x="898" y="1020"/>
      <point x="1047" y="920"/>
      <point x="1121" y="748"/>
      <point x="1121" y="639" type="qcurve" smooth="yes"/>
      <point x="1121" y="469"/>
      <point x="958" y="143"/>
      <point x="811" y="48" type="qcurve"/>
      <point x="702" y="-20"/>
      <point x="573" y="-20" type="qcurve" smooth="yes"/>
      <point x="489" y="-20"/>
      <point x="346" y="43"/>
      <point x="307" y="109" type="qcurve"/>
    </contour>
    <contour>
      <point x="537" y="205" type="qcurve" smooth="yes"/>
      <point x="623" y="205"/>
      <point x="754" y="288"/>
      <point x="841" y="431"/>
      <point x="862" y="522" type="qcurve" smooth="yes"/>
      <point x="874" y="575"/>
      <point x="874" y="620" type="qcurve" smooth="yes"/>
      <point x="874" y="699"/>
      <point x="791" y="801"/>
      <point x="700" y="801" type="qcurve" smooth="yes"/>
      <point x="578" y="801"/>
      <point x="410" y="620"/>
      <point x="377" y="477" type="qcurve" smooth="yes"/>
      <point x="364" y="420"/>
      <point x="364" y="379" type="qcurve" smooth="yes"/>
      <point x="364" y="302"/>
      <point x="445" y="205"/>
    </contour>
  </outline>
</glyph>
<glyph name="afii10087" format="2">
  <advance width="1036"/>
  <unicode hex="0445"/>
  <outline>
    <contour>
      <point x="903" y="0" type="line"/>
      <point x="610" y="0" type="line"/>
      <point x="483" y="336" type="line"/>
      <point x="197" y="0" type="line"/>
      <point x="-106" y="0" type="line"/>
      <point x="354" y="504" type="line"/>
      <point x="131" y="999" type="line"/>
      <point x="422" y="999" type="line"/>
      <point x="551" y="670" type="line"/>
      <point x="836" y="999" type="line"/>
      <point x="1141" y="999" type="line"/>
      <point x="678" y="504" type="line"/>
    </contour>
  </outline>
</glyph>
<glyph name="afii10091" format="2">
  <advance width="1767"/>
  <unicode hex="0449"/>
  <outline>
    <contour>
      <point x="1518" y="-307" type="line"/>
      <point x="1311" y="-307" type="line"/>
      <point x="1382" y="-23" type="line"/>
      <point x="1352" y="-23"/>
      <point x="1296" y="16"/>
      <point x="1264" y="79"/>
      <point x="1264" y="114" type="qcurve" smooth="yes"/>
      <point x="1264" y="119" type="line"/>
      <point x="1201" y="48"/>
      <point x="1059" y="-18"/>
      <point x="993" y="-18" type="qcurve" smooth="yes"/>
      <point x="896" y="-18"/>
      <point x="770" y="63"/>
      <point x="737" y="135" type="qcurve"/>
      <point x="660" y="57"/>
      <point x="473" y="-16"/>
      <point x="377" y="-16" type="qcurve" smooth="yes"/>
      <point x="274" y="-16"/>
      <point x="140" y="65"/>
      <point x="77" y="203"/>
      <point x="77" y="288" type="qcurve" smooth="yes"/>
      <point x="77" y="350"/>
      <point x="92" y="410" type="qcurve"/>
      <point x="227" y="999" type="line"/>
      <point x="475" y="999" type="line"/>
      <point x="342" y="420" type="line" smooth="yes"/>
      <point x="328" y="362"/>
      <point x="328" y="321" type="qcurve" smooth="yes"/>
      <point x="328" y="209"/>
      <point x="442" y="209" type="qcurve" smooth="yes"/>
      <point x="510" y="209"/>
      <point x="627" y="278"/>
      <point x="707" y="394"/>
      <point x="723" y="461" type="qcurve" smooth="yes"/>
      <point x="846" y="999" type="line"/>
      <point x="1094" y="999" type="line"/>
      <point x="958" y="416" type="line" smooth="yes"/>
      <point x="945" y="358"/>
      <point x="945" y="320" type="qcurve" smooth="yes"/>
      <point x="945" y="209"/>
      <point x="1059" y="209" type="qcurve" smooth="yes"/>
      <point x="1125" y="209"/>
      <point x="1243" y="278"/>
      <point x="1324" y="394"/>
      <point x="1339" y="461" type="qcurve" smooth="yes"/>
      <point x="1462" y="999" type="line"/>
      <point x="1708" y="999" type="line"/>
      <point x="1532" y="233" type="line"/>
      <point x="1527" y="215"/>
      <point x="1527" y="192" type="qcurve" smooth="yes"/>
      <point x="1527" y="146"/>
      <point x="1592" y="98"/>
      <point x="1647" y="98" type="qcurve"/>
    </contour>
  </outline>
</glyph>
<glyph name="afii10093" format="2">
  <advance width="1487"/>
  <unicode hex="044B"/>
  <outline>
    <contour>
      <point x="485" y="-20" type="qcurve" smooth="yes"/>
      <point x="358" y="-20"/>
      <point x="197" y="63"/>
      <point x="121" y="211"/>
      <point x="121" y="309" type="qcurve" smooth="yes"/>
      <point x="121" y="379"/>
      <point x="139" y="457" type="qcurve" smooth="yes"/>
      <point x="264" y="999" type="line"/>
      <point x="489" y="999" type="line"/>
      <point x="426" y="745" type="line"/>
      <point x="552" y="827"/>
      <point x="688" y="827" type="qcurve" smooth="yes"/>
      <point x="820" y="827"/>
      <point x="985" y="746"/>
      <point x="1062" y="602"/>
      <point x="1062" y="508" type="qcurve" smooth="yes"/>
      <point x="1062" y="426"/>
      <point x="1007" y="251"/>
      <point x="944" y="174" type="qcurve" smooth="yes"/>
      <point x="871" y="86"/>
      <point x="640" y="-20"/>
    </contour>
    <contour>
      <point x="1319" y="0" type="line"/>
      <point x="1094" y="0" type="line"/>
      <point x="1323" y="999" type="line"/>
      <point x="1548" y="999" type="line"/>
    </contour>
    <contour>
      <point x="508" y="190" type="qcurve" smooth="yes"/>
      <point x="621" y="190"/>
      <point x="769" y="323"/>
      <point x="793" y="426" type="qcurve" smooth="yes"/>
      <point x="798" y="448"/>
      <point x="798" y="467" type="qcurve" smooth="yes"/>
      <point x="798" y="527"/>
      <point x="718" y="616"/>
      <point x="633" y="616" type="qcurve" smooth="yes"/>
      <point x="558" y="616"/>
      <point x="441" y="557"/>
      <point x="366" y="462"/>
      <point x="352" y="406" type="qcurve"/>
      <point x="348" y="381" type="line"/>
      <point x="342" y="359"/>
      <point x="342" y="331" type="qcurve" smooth="yes"/>
      <point x="342" y="267"/>
      <point x="422" y="190"/>
    </contour>
  </outline>
</glyph>
<glyph name="afii10095" format="2">
  <advance width="1001"/>
  <unicode hex="044D"/>
  <outline>
    <contour>
      <point x="358" y="-20" type="qcurve" smooth="yes"/>
      <point x="258" y="-20"/>
      <point x="102" y="55"/>
      <point x="9" y="194"/>
      <point x="-2" y="287" type="qcurve"/>
      <point x="229" y="350" type="line"/>
      <point x="234" y="281"/>
      <point x="317" y="209"/>
      <point x="387" y="209" type="qcurve" smooth="yes"/>
      <point x="485" y="209"/>
      <point x="630" y="323"/>
      <point x="668" y="412" type="qcurve"/>
      <point x="319" y="401" type="line"/>
      <point x="360" y="584" type="line"/>
      <point x="715" y="594" type="line"/>
      <point x="715" y="611" type="line" smooth="yes"/>
      <point x="715" y="786"/>
      <point x="547" y="786" type="qcurve" smooth="yes"/>
      <point x="468" y="786"/>
      <point x="335" y="699"/>
      <point x="297" y="625" type="qcurve"/>
      <point x="86" y="735" type="line"/>
      <point x="175" y="869"/>
      <point x="429" y="1016"/>
      <point x="573" y="1016" type="qcurve" smooth="yes"/>
      <point x="704" y="1016"/>
      <point x="877" y="913"/>
      <point x="960" y="737"/>
      <point x="960" y="627" type="qcurve" smooth="yes"/>
      <point x="960" y="552"/>
      <point x="942" y="475" type="qcurve" smooth="yes"/>
      <point x="912" y="344"/>
      <point x="755" y="118"/>
      <point x="511" y="-20"/>
    </contour>
  </outline>
</glyph>
<glyph name="afii10096" format="2">
  <advance width="1602"/>
  <unicode hex="044E"/>
  <outline>
    <contour>
      <point x="920" y="-20" type="qcurve" smooth="yes"/>
      <point x="783" y="-20"/>
      <point x="591" y="89"/>
      <point x="491" y="273"/>
      <point x="491" y="386" type="qcurve" smooth="yes"/>
      <point x="491" y="431"/>
      <point x="498" y="473" type="qcurve"/>
      <point x="385" y="463" type="line"/>
      <point x="279" y="0" type="line"/>
      <point x="31" y="0" type="line"/>
      <point x="356" y="1413" type="line"/>
      <point x="604" y="1413" type="line"/>
      <point x="426" y="645" type="line"/>
      <point x="559" y="655" type="line"/>
      <point x="648" y="822"/>
      <point x="954" y="1012"/>
      <point x="1130" y="1012" type="qcurve" smooth="yes"/>
      <point x="1267" y="1012"/>
      <point x="1457" y="903"/>
      <point x="1557" y="718"/>
      <point x="1557" y="603" type="qcurve" smooth="yes"/>
      <point x="1557" y="509"/>
      <point x="1491" y="314"/>
      <point x="1421" y="225" type="qcurve" smooth="yes"/>
      <point x="1333" y="115"/>
      <point x="1075" y="-20"/>
    </contour>
    <contour>
      <point x="942" y="190" type="qcurve" smooth="yes"/>
      <point x="1035" y="190"/>
      <point x="1175" y="278"/>
      <point x="1267" y="425"/>
      <point x="1288" y="518" type="qcurve" smooth="yes"/>
      <point x="1300" y="568"/>
      <point x="1300" y="614" type="qcurve" smooth="yes"/>
      <point x="1300" y="697"/>
      <point x="1210" y="801"/>
      <point x="1108" y="801" type="qcurve" smooth="yes"/>
      <point x="1015" y="801"/>
      <point x="875" y="713"/>
      <point x="783" y="565"/>
      <point x="762" y="473" type="qcurve" smooth="yes"/>
      <point x="750" y="424"/>
      <point x="750" y="377" type="qcurve" smooth="yes"/>
      <point x="750" y="294"/>
      <point x="840" y="190"/>
    </contour>
  </outline>
</glyph>
<glyph name="afii10104" format="2">
  <advance width="516"/>
  <unicode hex="0457"/>
  <outline>
    <contour>
      <point x="334" y="1155" type="line"/>
      <point x="129" y="1155" type="line"/>
      <point x="174" y="1350" type="line"/>
      <point x="379" y="1350" type="line"/>
    </contour>
    <contour>
      <point x="688" y="1155" type="line"/>
      <point x="483" y="1155" type="line"/>
      <point x="528" y="1350" type="line"/>
      <point x="733" y="1350" type="line"/>
    </contour>
    <contour>
      <point x="256" y="0" type="line"/>
      <point x="31" y="0" type="line"/>
      <point x="260" y="999" type="line"/>
      <point x="485" y="999" type="line"/>
    </contour>
  </outline>
</glyph>
<glyph name="afii10105" format="2">
  <advance width="537"/>
  <unicode hex="0458"/>
  <outline>
    <contour>
      <point x="557" y="1165" type="line"/>
      <point x="301" y="1165" type="line"/>
      <point x="358" y="1411" type="line"/>
      <point x="614" y="1411" type="line"/>
    </contour>
    <contour>
      <point x="-104" y="-438" type="qcurve" smooth="yes"/>
      <point x="-185" y="-438"/>
      <point x="-230" y="-422" type="qcurve" smooth="yes"/>
      <point x="-276" y="-406" type="line"/>
      <point x="-172" y="-205" type="line"/>
      <point x="-139" y="-209"/>
      <point x="-86" y="-209" type="qcurve" smooth="yes"/>
      <point x="-48" y="-209"/>
      <point x="-5" y="-165"/>
      <point x="6" y="-113" type="qcurve"/>
      <point x="262" y="999" type="line"/>
      <point x="508" y="999" type="line"/>
      <point x="252" y="-115" type="line" smooth="yes"/>
      <point x="218" y="-261"/>
      <point x="38" y="-438"/>
    </contour>
  </outline>
</glyph>
<glyph name="afii10106" format="2">
  <advance width="1683"/>
  <unicode hex="0459"/>
  <outline>
    <contour>
      <point x="117" y="-20" type="qcurve" smooth="yes"/>
      <point x="11" y="-20"/>
      <point x="-96" y="39" type="qcurve"/>
      <point x="-6" y="184" type="line"/>
      <point x="3" y="176"/>
      <point x="39" y="168"/>
      <point x="53" y="168" type="qcurve" smooth="yes"/>
      <point x="115" y="168"/>
      <point x="226" y="451"/>
      <point x="266" y="623" type="qcurve" smooth="yes"/>
      <point x="352" y="999" type="line"/>
      <point x="1137" y="999" type="line"/>
      <point x="1069" y="705" type="line"/>
      <point x="1210" y="705" type="line" smooth="yes"/>
      <point x="1415" y="705"/>
      <point x="1600" y="576"/>
      <point x="1600" y="452" type="qcurve" smooth="yes"/>
      <point x="1600" y="402"/>
      <point x="1585" y="340" type="qcurve" smooth="yes"/>
      <point x="1543" y="160"/>
      <point x="1282" y="0"/>
      <point x="1063" y="0" type="qcurve" smooth="yes"/>
      <point x="659" y="0" type="line"/>
      <point x="848" y="817" type="line"/>
      <point x="559" y="817" type="line"/>
      <point x="510" y="606" type="line" smooth="yes"/>
      <point x="432" y="265"/>
      <point x="258" y="-20"/>
    </contour>
    <contour>
      <point x="1096" y="211" type="line" smooth="yes"/>
      <point x="1286" y="211"/>
      <point x="1327" y="385" type="qcurve"/>
      <point x="1331" y="407"/>
      <point x="1331" y="414" type="qcurve" smooth="yes"/>
      <point x="1331" y="459"/>
      <point x="1249" y="494"/>
      <point x="1174" y="494" type="qcurve" smooth="yes"/>
      <point x="1020" y="494" type="line"/>
      <point x="954" y="211" type="line"/>
    </contour>
  </outline>
</glyph>
<glyph name="afii10107" format="2">
  <advance width="1714"/>
  <unicode hex="045A"/>
  <outline>
    <contour>
      <point x="1094" y="0" type="qcurve" smooth="yes"/>
      <point x="690" y="0" type="line"/>
      <point x="797" y="463" type="line"/>
      <point x="385" y="463" type="line"/>
      <point x="279" y="0" type="line"/>
      <point x="31" y="0" type="line"/>
      <point x="260" y="999" type="line"/>
      <point x="508" y="999" type="line"/>
      <point x="426" y="645" type="line"/>
      <point x="838" y="645" type="line"/>
      <point x="920" y="999" type="line"/>
      <point x="1167" y="999" type="line"/>
      <point x="1085" y="645" type="line"/>
      <point x="1227" y="645" type="line" smooth="yes"/>
      <point x="1438" y="645"/>
      <point x="1621" y="530"/>
      <point x="1621" y="409" type="qcurve" smooth="yes"/>
      <point x="1621" y="335"/>
      <point x="1569" y="177"/>
      <point x="1520" y="123" type="qcurve" smooth="yes"/>
      <point x="1463" y="60"/>
      <point x="1260" y="0"/>
    </contour>
    <contour>
      <point x="1126" y="211" type="line" smooth="yes"/>
      <point x="1216" y="211"/>
      <point x="1331" y="269"/>
      <point x="1350" y="348" type="qcurve" smooth="yes"/>
      <point x="1353" y="363"/>
      <point x="1353" y="374" type="qcurve" smooth="yes"/>
      <point x="1353" y="405"/>
      <point x="1313" y="430"/>
      <point x="1255" y="434"/>
      <point x="1192" y="434" type="qcurve" smooth="yes"/>
      <point x="1038" y="434" type="line"/>
      <point x="985" y="211" type="line"/>
    </contour>
  </outline>
</glyph>
<glyph name="afii10109" format="2">
  <advance width="1026"/>
  <unicode hex="045C"/>
  <outline>
    <contour>
      <point x="741" y="1124" type="line"/>
      <point x="557" y="1124" type="line"/>
      <point x="850" y="1413" type="line"/>
      <point x="1114" y="1413" type="line"/>
    </contour>
    <contour>
      <point x="905" y="0" type="line"/>
      <point x="621" y="0" type="line"/>
      <point x="584" y="362" type="line"/>
      <point x="577" y="414"/>
      <point x="529" y="463"/>
      <point x="479" y="463" type="qcurve" smooth="yes"/>
      <point x="381" y="463" type="line"/>
      <point x="274" y="0" type="line"/>
      <point x="31" y="0" type="line"/>
      <point x="260" y="999" type="line"/>
      <point x="504" y="999" type="line"/>
      <point x="422" y="643" type="line"/>
      <point x="485" y="643" type="line"/>
      <point x="801" y="999" type="line"/>
      <point x="1090" y="999" type="line"/>
      <point x="698" y="612" type="line"/>
      <point x="749" y="612"/>
      <point x="817" y="503"/>
      <point x="829" y="444" type="qcurve"/>
    </contour>
  </outline>
</glyph>
<glyph name="uni045D" format="2">
  <advance width="1198"/>
  <unicode hex="045D"/>
  <outline>
    <contour>
      <point x="856" y="1104" type="line"/>
      <point x="682" y="1104" type="line"/>
      <point x="446" y="1413" type="line"/>
      <point x="702" y="1413" type="line"/>
    </contour>
    <contour>
      <point x="408" y="-23" type="qcurve" smooth="yes"/>
      <point x="257" y="-23"/>
      <point x="112" y="152"/>
      <point x="112" y="290" type="qcurve" smooth="yes"/>
      <point x="112" y="356"/>
      <point x="127" y="422" type="qcurve" smooth="yes"/>
      <point x="260" y="999" type="line"/>
      <point x="508" y="999" type="line"/>
      <point x="370" y="400" type="line" smooth="yes"/>
      <point x="359" y="351"/>
      <point x="359" y="316" type="qcurve" smooth="yes"/>
      <point x="359" y="209"/>
      <point x="465" y="209" type="qcurve" smooth="yes"/>
      <point x="547" y="209"/>
      <point x="684" y="283"/>
      <point x="780" y="396"/>
      <point x="795" y="457" type="qcurve"/>
      <point x="920" y="999" type="line"/>
      <point x="1167" y="999" type="line"/>
      <point x="938" y="0" type="line"/>
      <point x="690" y="0" type="line"/>
      <point x="719" y="109" type="line"/>
      <point x="649" y="39"/>
      <point x="487" y="-23"/>
    </contour>
  </outline>
</glyph>
<glyph name="afii10110" format="2">
  <advance width="1032"/>
  <unicode hex="045E"/>
  <outline>
    <contour>
      <point x="678" y="1143" type="qcurve" smooth="yes"/>
      <point x="536" y="1143"/>
      <point x="404" y="1248"/>
      <point x="404" y="1338" type="qcurve" smooth="yes"/>
      <point x="404" y="1368"/>
      <point x="414" y="1413" type="qcurve"/>
      <point x="582" y="1413" type="line"/>
      <point x="577" y="1388"/>
      <point x="577" y="1372" type="qcurve" smooth="yes"/>
      <point x="577" y="1286"/>
      <point x="684" y="1286" type="qcurve" smooth="yes"/>
      <point x="751" y="1286"/>
      <point x="857" y="1356"/>
      <point x="872" y="1413" type="qcurve"/>
      <point x="1040" y="1413" type="line"/>
      <point x="1010" y="1277"/>
      <point x="838" y="1143"/>
    </contour>
    <contour>
      <point x="254" y="-430" type="line"/>
      <point x="-16" y="-430" type="line"/>
      <point x="276" y="27" type="line"/>
      <point x="111" y="999" type="line"/>
      <point x="375" y="999" type="line"/>
      <point x="465" y="305" type="line"/>
      <point x="883" y="999" type="line"/>
      <point x="1155" y="999" type="line"/>
    </contour>
  </outline>
</glyph>
<glyph name="afii10146" format="2">
  <advance width="1231"/>
  <unicode hex="0462"/>
  <outline>
    <contour>
      <point x="580" y="0" type="qcurve" smooth="yes"/>
      <point x="131" y="0" type="line"/>
      <point x="375" y="1055" type="line"/>
      <point x="162" y="1055" type="line"/>
      <point x="215" y="1288" type="line"/>
      <point x="428" y="1288" type="line"/>
      <point x="457" y="1411" type="line"/>
      <point x="709" y="1411" type="line"/>
      <point x="680" y="1288" type="line"/>
      <point x="973" y="1288" type="line"/>
      <point x="920" y="1055" type="line"/>
      <point x="627" y="1055" type="line"/>
      <point x="573" y="825" type="line"/>
      <point x="758" y="825" type="line" smooth="yes"/>
      <point x="953" y="825"/>
      <point x="1176" y="651"/>
      <point x="1176" y="499" type="qcurve" smooth="yes"/>
      <point x="1176" y="418"/>
      <point x="1114" y="249"/>
      <point x="1052" y="181" type="qcurve"/>
      <point x="964" y="89"/>
      <point x="719" y="0"/>
    </contour>
    <contour>
      <point x="621" y="238" type="line" smooth="yes"/>
      <point x="753" y="238"/>
      <point x="901" y="345"/>
      <point x="922" y="438" type="qcurve" smooth="yes"/>
      <point x="927" y="461"/>
      <point x="927" y="477" type="qcurve" smooth="yes"/>
      <point x="927" y="536"/>
      <point x="821" y="588"/>
      <point x="715" y="588" type="qcurve" smooth="yes"/>
      <point x="518" y="588" type="line"/>
      <point x="436" y="238" type="line"/>
    </contour>
  </outline>
</glyph>
<glyph name="Eiotifiedcyrillic" format="2">
  <advance width="1939"/>
  <unicode hex="0464"/>
  <outline>
    <contour>
      <point x="1165" y="-20" type="qcurve" smooth="yes"/>
      <point x="976" y="-20"/>
      <point x="732" y="118"/>
      <point x="613" y="357"/>
      <point x="613" y="507" type="qcurve" smooth="yes"/>
      <point x="613" y="560"/>
      <point x="618" y="600" type="qcurve"/>
      <point x="457" y="590" type="line"/>
      <point x="322" y="0" type="line"/>
      <point x="68" y="0" type="line"/>
      <point x="393" y="1411" type="line"/>
      <point x="647" y="1411" type="line"/>
      <point x="510" y="823" type="line"/>
      <point x="670" y="834" type="line"/>
      <point x="727" y="1001"/>
      <point x="946" y="1274"/>
      <point x="1114" y="1358" type="qcurve"/>
      <point x="1274" y="1436"/>
      <point x="1473" y="1436" type="qcurve" smooth="yes"/>
      <point x="1690" y="1436"/>
      <point x="1965" y="1217"/>
      <point x="2007" y="1020" type="qcurve"/>
      <point x="1755" y="946" type="line"/>
      <point x="1748" y="1079"/>
      <point x="1584" y="1194"/>
      <point x="1442" y="1194" type="qcurve" smooth="yes"/>
      <point x="1311" y="1194"/>
      <point x="1106" y="1093"/>
      <point x="962" y="922"/>
      <point x="922" y="813" type="qcurve"/>
      <point x="1489" y="823" type="line"/>
      <point x="1436" y="590" type="line"/>
      <point x="866" y="580" type="line"/>
      <point x="865" y="538" type="line"/>
      <point x="865" y="221"/>
      <point x="1194" y="221" type="qcurve" smooth="yes"/>
      <point x="1344" y="221"/>
      <point x="1568" y="359"/>
      <point x="1651" y="494" type="qcurve"/>
      <point x="1864" y="377" type="line"/>
      <point x="1729" y="174"/>
      <point x="1366" y="-20"/>
    </contour>
  </outline>
</glyph>
<glyph name="Yuslittlecyrillic" format="2">
  <advance width="1343"/>
  <unicode hex="0466"/>
  <outline>
    <contour>
      <point x="1217" y="0" type="line"/>
      <point x="946" y="0" type="line"/>
      <point x="907" y="307" type="line"/>
      <point x="758" y="307" type="line"/>
      <point x="688" y="0" type="line"/>
      <point x="434" y="0" type="line"/>
      <point x="504" y="307" type="line"/>
      <point x="358" y="307" type="line"/>
      <point x="178" y="0" type="line"/>
      <point x="-102" y="0" type="line"/>
      <point x="788" y="1411" type="line"/>
      <point x="979" y="1411" type="line"/>
    </contour>
    <contour>
      <point x="872" y="524" type="line"/>
      <point x="805" y="1038" type="line"/>
      <point x="496" y="524" type="line"/>
    </contour>
  </outline>
</glyph>
<glyph name="Yuslittleiotifiedcyrillic" format="2">
  <advance width="1837"/>
  <unicode hex="0468"/>
  <outline>
    <contour>
      <point x="1710" y="0" type="line"/>
      <point x="1440" y="0" type="line"/>
      <point x="1401" y="307" type="line"/>
      <point x="1251" y="307" type="line"/>
      <point x="1182" y="0" type="line"/>
      <point x="928" y="0" type="line"/>
      <point x="997" y="307" type="line"/>
      <point x="852" y="307" type="line"/>
      <point x="672" y="0" type="line"/>
      <point x="391" y="0" type="line"/>
      <point x="762" y="590" type="line"/>
      <point x="457" y="590" type="line"/>
      <point x="322" y="0" type="line"/>
      <point x="68" y="0" type="line"/>
      <point x="393" y="1411" type="line"/>
      <point x="647" y="1411" type="line"/>
      <point x="510" y="823" type="line"/>
      <point x="909" y="823" type="line"/>
      <point x="1282" y="1411" type="line"/>
      <point x="1473" y="1411" type="line"/>
    </contour>
    <contour>
      <point x="1366" y="524" type="line"/>
      <point x="1298" y="1038" type="line"/>
      <point x="989" y="524" type="line"/>
    </contour>
  </outline>
</glyph>
<glyph name="yuslittleiotifiedcyrillic" format="2">
  <advance width="1438"/>
  <unicode hex="0469"/>
  <outline>
    <contour>
      <point x="1309" y="0" type="line"/>
      <point x="1077" y="0" type="line"/>
      <point x="1069" y="162" type="line"/>
      <point x="961" y="162" type="line"/>
      <point x="924" y="0" type="line"/>
      <point x="752" y="0" type="line"/>
      <point x="788" y="162" type="line"/>
      <point x="684" y="162" type="line"/>
      <point x="598" y="0" type="line"/>
      <point x="358" y="0" type="line"/>
      <point x="602" y="401" type="line"/>
      <point x="371" y="401" type="line"/>
      <point x="279" y="0" type="line"/>
      <point x="31" y="0" type="line"/>
      <point x="260" y="999" type="line"/>
      <point x="508" y="999" type="line"/>
      <point x="412" y="584" type="line"/>
      <point x="713" y="584" type="line"/>
      <point x="969" y="999" type="line"/>
      <point x="1159" y="999" type="line"/>
    </contour>
    <contour>
      <point x="1055" y="338" type="line"/>
      <point x="1004" y="709" type="line"/>
      <point x="780" y="338" type="line"/>
    </contour>
  </outline>
</glyph>
<glyph name="Yusbigcyrillic" format="2">
  <advance width="1581"/>
  <unicode hex="046A"/>
  <outline>
    <contour>
      <point x="1442" y="0" type="line"/>
      <point x="1161" y="0" type="line"/>
      <point x="1106" y="483" type="line" smooth="yes"/>
      <point x="1098" y="555"/>
      <point x="1034" y="664"/>
      <point x="965" y="664" type="qcurve" smooth="yes"/>
      <point x="942" y="664" type="line"/>
      <point x="791" y="0" type="line"/>
      <point x="537" y="0" type="line"/>
      <point x="688" y="664" type="line"/>
      <point x="613" y="664"/>
      <point x="483" y="536"/>
      <point x="444" y="463" type="qcurve"/>
      <point x="170" y="0" type="line"/>
      <point x="-88" y="0" type="line"/>
      <point x="250" y="598" type="line" smooth="yes"/>
      <point x="280" y="650"/>
      <point x="372" y="758"/>
      <point x="481" y="834"/>
      <point x="535" y="834" type="qcurve"/>
      <point x="369" y="1178" type="line"/>
      <point x="420" y="1411" type="line"/>
      <point x="1556" y="1411" type="line"/>
      <point x="1505" y="1178" type="line"/>
      <point x="1165" y="834" type="line"/>
      <point x="1216" y="834"/>
      <point x="1290" y="749"/>
      <point x="1334" y="631"/>
      <point x="1341" y="578" type="qcurve"/>
    </contour>
    <contour>
      <point x="854" y="838" type="line"/>
      <point x="1178" y="1178" type="line"/>
      <point x="684" y="1178" type="line"/>
    </contour>
  </outline>
</glyph>
<glyph name="yusbigcyrillic" format="2">
  <advance width="1282"/>
  <unicode hex="046B"/>
  <outline>
    <contour>
      <point x="1153" y="0" type="line"/>
      <point x="868" y="0" type="line"/>
      <point x="831" y="362" type="line"/>
      <point x="824" y="441"/>
      <point x="741" y="449" type="qcurve"/>
      <point x="633" y="0" type="line"/>
      <point x="420" y="0" type="line"/>
      <point x="528" y="444" type="line"/>
      <point x="438" y="431"/>
      <point x="389" y="342" type="qcurve"/>
      <point x="188" y="0" type="line"/>
      <point x="-104" y="0" type="line"/>
      <point x="178" y="465" type="line"/>
      <point x="221" y="528"/>
      <point x="307" y="612"/>
      <point x="358" y="612" type="qcurve"/>
      <point x="246" y="817" type="line"/>
      <point x="285" y="999" type="line"/>
      <point x="1225" y="999" type="line"/>
      <point x="1186" y="817" type="line"/>
      <point x="967" y="612" type="line"/>
      <point x="1016" y="612"/>
      <point x="1062" y="515"/>
      <point x="1077" y="444" type="qcurve"/>
    </contour>
    <contour>
      <point x="666" y="624" type="line"/>
      <point x="877" y="817" type="line"/>
      <point x="557" y="817" type="line"/>
    </contour>
  </outline>
</glyph>
<glyph name="Yusbigiotifiedcyrillic" format="2">
  <advance width="2079"/>
  <unicode hex="046C"/>
  <outline>
    <contour>
      <point x="1939" y="0" type="line"/>
      <point x="1659" y="0" type="line"/>
      <point x="1604" y="483" type="line"/>
      <point x="1582" y="664"/>
      <point x="1462" y="664" type="qcurve" smooth="yes"/>
      <point x="1440" y="664" type="line"/>
      <point x="1288" y="0" type="line"/>
      <point x="1034" y="0" type="line"/>
      <point x="1186" y="664" type="line"/>
      <point x="1110" y="664"/>
      <point x="982" y="536"/>
      <point x="942" y="463" type="qcurve"/>
      <point x="668" y="0" type="line"/>
      <point x="410" y="0" type="line"/>
      <point x="702" y="520"/>
      <point x="748" y="600" type="qcurve"/>
      <point x="457" y="590" type="line"/>
      <point x="322" y="0" type="line"/>
      <point x="68" y="0" type="line"/>
      <point x="393" y="1411" type="line"/>
      <point x="647" y="1411" type="line"/>
      <point x="510" y="823" type="line"/>
      <point x="1044" y="823" type="line"/>
      <point x="866" y="1178" type="line"/>
      <point x="918" y="1411" type="line"/>
      <point x="2054" y="1411" type="line"/>
      <point x="2003" y="1178" type="line"/>
      <point x="1663" y="834" type="line"/>
      <point x="1714" y="834"/>
      <point x="1788" y="749"/>
      <point x="1832" y="631"/>
      <point x="1839" y="578" type="qcurve"/>
    </contour>
    <contour>
      <point x="1352" y="838" type="line"/>
      <point x="1675" y="1178" type="line"/>
      <point x="1182" y="1178" type="line"/>
    </contour>
  </outline>
</glyph>
<glyph name="afii10147" format="2">
  <advance width="1528"/>
  <unicode hex="0472"/>
  <outline>
    <contour>
      <point x="657" y="-20" type="qcurve" smooth="yes"/>
      <point x="469" y="-20"/>
      <point x="226" y="118"/>
      <point x="108" y="357"/>
      <point x="108" y="510" type="qcurve" smooth="yes"/>
      <point x="108" y="644"/>
      <point x="198" y="947"/>
      <point x="290" y="1083" type="qcurve" smooth="yes"/>
      <point x="400" y="1243"/>
      <point x="746" y="1434"/>
      <point x="967" y="1434" type="qcurve" smooth="yes"/>
      <point x="1154" y="1434"/>
      <point x="1397" y="1296"/>
      <point x="1515" y="1056"/>
      <point x="1515" y="902" type="qcurve" smooth="yes"/>
      <point x="1515" y="759"/>
      <point x="1423" y="460"/>
      <point x="1334" y="331" type="qcurve" smooth="yes"/>
      <point x="1224" y="171"/>
      <point x="878" y="-20"/>
    </contour>
    <contour>
      <point x="422" y="791" type="qcurve"/>
      <point x="1245" y="811" type="line"/>
      <point x="1250" y="859"/>
      <point x="1250" y="895" type="qcurve" smooth="yes"/>
      <point x="1250" y="1041"/>
      <point x="1101" y="1208"/>
      <point x="940" y="1208" type="qcurve" smooth="yes"/>
      <point x="747" y="1208"/>
      <point x="484" y="975"/>
    </contour>
    <contour>
      <point x="682" y="205" type="qcurve" smooth="yes"/>
      <point x="876" y="205"/>
      <point x="1138" y="440"/>
      <point x="1202" y="627" type="qcurve"/>
      <point x="379" y="606" type="line"/>
      <point x="372" y="550"/>
      <point x="372" y="514" type="qcurve" smooth="yes"/>
      <point x="372" y="371"/>
      <point x="522" y="205"/>
    </contour>
  </outline>
</glyph>
<glyph name="afii10195" format="2">
  <advance width="1149"/>
  <unicode hex="0473"/>
  <outline>
    <contour>
      <point x="467" y="-20" type="qcurve" smooth="yes"/>
      <point x="332" y="-20"/>
      <point x="141" y="88"/>
      <point x="40" y="274"/>
      <point x="40" y="390" type="qcurve" smooth="yes"/>
      <point x="40" y="555"/>
      <point x="230" y="856"/>
      <point x="400" y="946" type="qcurve"/>
      <point x="531" y="1012"/>
      <point x="678" y="1012" type="qcurve" smooth="yes"/>
      <point x="815" y="1012"/>
      <point x="1005" y="903"/>
      <point x="1105" y="718"/>
      <point x="1105" y="602" type="qcurve" smooth="yes"/>
      <point x="1105" y="433"/>
      <point x="913" y="132"/>
      <point x="746" y="46" type="qcurve"/>
      <point x="615" y="-20"/>
    </contour>
    <contour>
      <point x="342" y="578" type="qcurve"/>
      <point x="846" y="598" type="line"/>
      <point x="846" y="604" type="line" smooth="yes"/>
      <point x="846" y="801"/>
      <point x="655" y="801" type="qcurve" smooth="yes"/>
      <point x="546" y="801"/>
      <point x="385" y="676"/>
    </contour>
    <contour>
      <point x="489" y="190" type="qcurve" smooth="yes"/>
      <point x="599" y="190"/>
      <point x="758" y="315"/>
      <point x="801" y="414" type="qcurve"/>
      <point x="297" y="393" type="line"/>
      <point x="297" y="387" type="line" smooth="yes"/>
      <point x="297" y="190"/>
    </contour>
  </outline>
</glyph>
<glyph name="afii10196" format="2">
  <advance width="1004"/>
  <unicode hex="0475"/>
  <outline>
    <contour>
      <point x="487" y="0" type="line"/>
      <point x="287" y="0" type="line"/>
      <point x="109" y="999" type="line"/>
      <point x="371" y="999" type="line"/>
      <point x="453" y="315" type="line"/>
      <point x="653" y="659" type="line"/>
      <point x="731" y="791"/>
      <point x="807" y="860" type="qcurve" smooth="yes"/>
      <point x="877" y="925"/>
      <point x="1018" y="984"/>
      <point x="1116" y="1001" type="qcurve"/>
      <point x="1075" y="770" type="line"/>
      <point x="1018" y="751"/>
      <point x="929" y="683"/>
      <point x="887" y="616" type="qcurve"/>
    </contour>
  </outline>
</glyph>
<glyph name="afii10050" format="2">
  <advance width="1065"/>
  <unicode hex="0490"/>
  <outline>
    <contour>
      <point x="322" y="0" type="line"/>
      <point x="68" y="0" type="line"/>
      <point x="393" y="1411" type="line"/>
      <point x="1001" y="1411" type="line"/>
      <point x="1071" y="1718" type="line"/>
      <point x="1325" y="1718" type="line"/>
      <point x="1200" y="1178" type="line"/>
      <point x="592" y="1178" type="line"/>
    </contour>
  </outline>
</glyph>
<glyph name="Ghestrokecyrillic" format="2">
  <advance width="1116"/>
  <unicode hex="0492"/>
  <outline>
    <contour>
      <point x="371" y="0" type="line"/>
      <point x="117" y="0" type="line"/>
      <point x="263" y="633" type="line"/>
      <point x="76" y="633" type="line"/>
      <point x="125" y="846" type="line"/>
      <point x="312" y="846" type="line"/>
      <point x="442" y="1411" type="line"/>
      <point x="1305" y="1411" type="line"/>
      <point x="1249" y="1178" type="line"/>
      <point x="641" y="1178" type="line"/>
      <point x="565" y="846" type="line"/>
      <point x="883" y="846" type="line"/>
      <point x="833" y="633" type="line"/>
      <point x="516" y="633" type="line"/>
    </contour>
  </outline>
</glyph>
<glyph name="ghestrokecyrillic" format="2">
  <advance width="801"/>
  <unicode hex="0493"/>
  <outline>
    <contour>
      <point x="279" y="0" type="line"/>
      <point x="31" y="0" type="line"/>
      <point x="260" y="999" type="line"/>
      <point x="920" y="999" type="line"/>
      <point x="879" y="817" type="line"/>
      <point x="467" y="817" type="line"/>
    </contour>
  </outline>
</glyph>
<glyph name="ustraightcyrillic" format="2">
  <advance width="1008"/>
  <unicode hex="04AF"/>
  <outline>
    <contour>
      <point x="508" y="0" type="line"/>
      <point x="266" y="0" type="line"/>
      <point x="367" y="428" type="line"/>
      <point x="113" y="999" type="line"/>
      <point x="391" y="999" type="line"/>
      <point x="530" y="647" type="line"/>
      <point x="838" y="999" type="line"/>
      <point x="1128" y="999" type="line"/>
      <point x="608" y="428" type="line"/>
    </contour>
  </outline>
</glyph>
<glyph name="ustraightstrokecyrillic" format="2">
  <advance width="1010"/>
  <unicode hex="04B1"/>
  <outline>
    <contour>
      <point x="504" y="0" type="line"/>
      <point x="262" y="0" type="line"/>
      <point x="300" y="160" type="line"/>
      <point x="54" y="160" type="line"/>
      <point x="103" y="373" type="line"/>
      <point x="350" y="373" type="line"/>
      <point x="363" y="428" type="line"/>
      <point x="109" y="999" type="line"/>
      <point x="387" y="999" type="line"/>
      <point x="526" y="647" type="line"/>
      <point x="834" y="999" type="line"/>
      <point x="1124" y="999" type="line"/>
      <point x="604" y="428" type="line"/>
      <point x="591" y="373" type="line"/>
      <point x="861" y="373" type="line"/>
      <point x="811" y="160" type="line"/>
      <point x="541" y="160" type="line"/>
    </contour>
  </outline>
</glyph>
<glyph name="palochkacyrillic" format="2">
  <advance width="618"/>
  <unicode hex="04C0"/>
  <outline>
    <contour>
      <point x="322" y="0" type="line"/>
      <point x="68" y="0" type="line"/>
      <point x="393" y="1411" type="line"/>
      <point x="647" y="1411" type="line"/>
    </contour>
  </outline>
</glyph>
<glyph name="uni04CF" format="2">
  <advance width="535"/>
  <unicode hex="04CF"/>
  <outline>
    <contour>
      <point x="274" y="0" type="line"/>
      <point x="31" y="0" type="line"/>
      <point x="356" y="1411" type="line"/>
      <point x="600" y="1411" type="line"/>
    </contour>
  </outline>
</glyph>
<glyph name="endash" format="2">
  <advance width="1051"/>
  <unicode hex="2013"/>
  <outline>
    <contour>
      <point x="911" y="508" type="line"/>
      <point x="143" y="508" type="line"/>
      <point x="186" y="692" type="line"/>
      <point x="954" y="692" type="line"/>
    </contour>
  </outline>
</glyph>
<glyph name="afii00208" format="2">
  <advance width="1542"/>
  <unicode hex="2015"/>
  <outline>
    <contour>
      <point x="1403" y="508" type="line"/>
      <point x="143" y="508" type="line"/>
      <point x="186" y="692" type="line"/>
      <point x="1446" y="692" type="line"/>
    </contour>
  </outline>
</glyph>
<glyph name="quoteleft" format="2">
  <advance width="573"/>
  <unicode hex="2018"/>
  <outline>
    <contour>
      <point x="549" y="856" type="line"/>
      <point x="391" y="856" type="line"/>
      <point x="268" y="1413" type="line"/>
      <point x="541" y="1413" type="line"/>
    </contour>
  </outline>
</glyph>
<glyph name="quoteright" format="2">
  <advance width="573"/>
  <unicode hex="2019"/>
  <outline>
    <contour>
      <point x="350" y="856" type="line"/>
      <point x="184" y="856" type="line"/>
      <point x="451" y="1413" type="line"/>
      <point x="731" y="1413" type="line"/>
    </contour>
  </outline>
</glyph>
<glyph name="quotesinglbase" format="2">
  <advance width="553"/>
  <unicode hex="201A"/>
  <outline>
    <contour>
      <point x="82" y="-225" type="line"/>
      <point x="-61" y="-225" type="line"/>
      <point x="184" y="264" type="line"/>
      <point x="442" y="264" type="line"/>
    </contour>
  </outline>
</glyph>
<glyph name="quotedblbase" format="2">
  <advance width="897"/>
  <unicode hex="201E"/>
  <outline>
    <contour>
      <point x="82" y="-225" type="line"/>
      <point x="-61" y="-225" type="line"/>
      <point x="184" y="264" type="line"/>
      <point x="442" y="264" type="line"/>
    </contour>
    <contour>
      <point x="430" y="-225" type="line"/>
      <point x="287" y="-225" type="line"/>
      <point x="532" y="264" type="line"/>
      <point x="791" y="264" type="line"/>
    </contour>
  </outline>
</glyph>
<glyph name="dagger" format="2">
  <advance width="778"/>
  <unicode hex="2020"/>
  <outline>
    <contour>
      <point x="338" y="-205" type="line"/>
      <point x="117" y="-205" type="line"/>
      <point x="350" y="809" type="line"/>
      <point x="129" y="809" type="line"/>
      <point x="180" y="1030" type="line"/>
      <point x="401" y="1030" type="line"/>
      <point x="489" y="1413" type="line"/>
      <point x="711" y="1413" type="line"/>
      <point x="623" y="1030" type="line"/>
      <point x="844" y="1030" type="line"/>
      <point x="793" y="809" type="line"/>
      <point x="571" y="809" type="line"/>
    </contour>
  </outline>
</glyph>
<glyph name="bullet" format="2">
  <advance width="758"/>
  <unicode hex="2022"/>
  <outline>
    <contour>
      <point x="332" y="244" type="qcurve" smooth="yes"/>
      <point x="240" y="244"/>
      <point x="134" y="362"/>
      <point x="134" y="445" type="qcurve" smooth="yes"/>
      <point x="134" y="522"/>
      <point x="217" y="646"/>
      <point x="347" y="719"/>
      <point x="416" y="719" type="qcurve" smooth="yes"/>
      <point x="507" y="719"/>
      <point x="613" y="604"/>
      <point x="613" y="520" type="qcurve" smooth="yes"/>
      <point x="613" y="444"/>
      <point x="533" y="319"/>
      <point x="405" y="244"/>
    </contour>
  </outline>
</glyph>
<glyph name="twodotenleader" format="2">
  <advance width="1061"/>
  <unicode hex="2025"/>
  <outline>
    <contour>
      <point x="332" y="0" type="line"/>
      <point x="86" y="0" type="line"/>
      <point x="145" y="264" type="line"/>
      <point x="391" y="264" type="line"/>
    </contour>
    <contour>
      <point x="745" y="0" type="line"/>
      <point x="500" y="0" type="line"/>
      <point x="559" y="264" type="line"/>
      <point x="805" y="264" type="line"/>
    </contour>
  </outline>
</glyph>
<glyph name="perthousand" format="2">
  <advance width="2179"/>
  <unicode hex="2030"/>
  <outline>
    <contour>
      <point x="356" y="-20" type="line"/>
      <point x="139" y="-20" type="line"/>
      <point x="1270" y="1454" type="line"/>
      <point x="1487" y="1454" type="line"/>
    </contour>
    <contour>
      <point x="436" y="768" type="qcurve" smooth="yes"/>
      <point x="314" y="768"/>
      <point x="207" y="913"/>
      <point x="207" y="1020" type="qcurve" smooth="yes"/>
      <point x="207" y="1078"/>
      <point x="243" y="1213"/>
      <point x="283" y="1276" type="qcurve" smooth="yes"/>
      <point x="385" y="1436"/>
      <point x="557" y="1436" type="qcurve" smooth="yes"/>
      <point x="670" y="1436"/>
      <point x="782" y="1290"/>
      <point x="782" y="1181" type="qcurve" smooth="yes"/>
      <point x="782" y="1110"/>
      <point x="734" y="964"/>
      <point x="644" y="843"/>
      <point x="516" y="768"/>
    </contour>
    <contour>
      <point x="444" y="940" type="qcurve" smooth="yes"/>
      <point x="497" y="940"/>
      <point x="583" y="1051"/>
      <point x="600" y="1124" type="qcurve" smooth="yes"/>
      <point x="607" y="1157"/>
      <point x="607" y="1177" type="qcurve" smooth="yes"/>
      <point x="607" y="1214"/>
      <point x="575" y="1262"/>
      <point x="543" y="1262" type="qcurve" smooth="yes"/>
      <point x="489" y="1262"/>
      <point x="404" y="1157"/>
      <point x="385" y="1079" type="qcurve"/>
      <point x="379" y="1051"/>
      <point x="379" y="1026" type="qcurve" smooth="yes"/>
      <point x="379" y="940"/>
    </contour>
    <contour>
      <point x="1083" y="-10" type="qcurve" smooth="yes"/>
      <point x="962" y="-10"/>
      <point x="856" y="136"/>
      <point x="856" y="244" type="qcurve" smooth="yes"/>
      <point x="856" y="304"/>
      <point x="893" y="441"/>
      <point x="933" y="505" type="qcurve" smooth="yes"/>
      <point x="1036" y="668"/>
      <point x="1208" y="668" type="qcurve" smooth="yes"/>
      <point x="1322" y="668"/>
      <point x="1432" y="523"/>
      <point x="1432" y="413" type="qcurve" smooth="yes"/>
      <point x="1432" y="353"/>
      <point x="1393" y="213"/>
      <point x="1309" y="84"/>
      <point x="1171" y="-10"/>
    </contour>
    <contour>
      <point x="1722" y="-10" type="qcurve" smooth="yes"/>
      <point x="1601" y="-10"/>
      <point x="1495" y="136"/>
      <point x="1495" y="244" type="qcurve" smooth="yes"/>
      <point x="1495" y="304"/>
      <point x="1532" y="441"/>
      <point x="1572" y="505" type="qcurve" smooth="yes"/>
      <point x="1675" y="668"/>
      <point x="1847" y="668" type="qcurve" smooth="yes"/>
      <point x="1960" y="668"/>
      <point x="2071" y="522"/>
      <point x="2071" y="412" type="qcurve" smooth="yes"/>
      <point x="2071" y="341"/>
      <point x="2023" y="192"/>
      <point x="1932" y="67"/>
      <point x="1803" y="-10"/>
    </contour>
    <contour>
      <point x="1096" y="162" type="qcurve" smooth="yes"/>
      <point x="1146" y="162"/>
      <point x="1231" y="274"/>
      <point x="1249" y="352" type="qcurve" smooth="yes"/>
      <point x="1256" y="380"/>
      <point x="1256" y="407" type="qcurve" smooth="yes"/>
      <point x="1256" y="444"/>
      <point x="1225" y="494"/>
      <point x="1194" y="494" type="qcurve" smooth="yes"/>
      <point x="1139" y="494"/>
      <point x="1053" y="385"/>
      <point x="1034" y="305" type="qcurve" smooth="yes"/>
      <point x="1027" y="277"/>
      <point x="1027" y="249" type="qcurve" smooth="yes"/>
      <point x="1027" y="211"/>
      <point x="1060" y="162"/>
    </contour>
    <contour>
      <point x="1733" y="162" type="qcurve" smooth="yes"/>
      <point x="1784" y="162"/>
      <point x="1871" y="274"/>
      <point x="1888" y="352" type="qcurve"/>
      <point x="1895" y="380"/>
      <point x="1895" y="407" type="qcurve" smooth="yes"/>
      <point x="1895" y="444"/>
      <point x="1864" y="494"/>
      <point x="1833" y="494" type="qcurve" smooth="yes"/>
      <point x="1777" y="494"/>
      <point x="1692" y="386"/>
      <point x="1673" y="305" type="qcurve" smooth="yes"/>
      <point x="1666" y="277"/>
      <point x="1666" y="249" type="qcurve" smooth="yes"/>
      <point x="1666" y="210"/>
      <point x="1699" y="162"/>
    </contour>
  </outline>
</glyph>
<glyph name="guilsinglright" format="2">
  <advance width="594"/>
  <unicode hex="203A"/>
  <outline>
    <contour>
      <point x="68" y="156" type="line"/>
      <point x="113" y="367" type="line"/>
      <point x="328" y="510" type="line"/>
      <point x="184" y="655" type="line"/>
      <point x="227" y="866" type="line"/>
      <point x="575" y="510" type="line"/>
    </contour>
  </outline>
</glyph>
<glyph name="zerosuperior" format="2">
  <advance width="834"/>
  <unicode hex="2070"/>
  <outline>
    <contour>
      <point x="346" y="462" type="qcurve" smooth="yes"/>
      <point x="234" y="462"/>
      <point x="95" y="560"/>
      <point x="36" y="715"/>
      <point x="36" y="808" type="qcurve" smooth="yes"/>
      <point x="36" y="1001"/>
      <point x="146" y="1194" type="qcurve" smooth="yes"/>
      <point x="209" y="1304"/>
      <point x="416" y="1454"/>
      <point x="554" y="1454" type="qcurve" smooth="yes"/>
      <point x="661" y="1454"/>
      <point x="797" y="1359"/>
      <point x="862" y="1198"/>
      <point x="862" y="1100" type="qcurve" smooth="yes"/>
      <point x="862" y="993"/>
      <point x="789" y="768"/>
      <point x="653" y="579"/>
      <point x="463" y="462"/>
    </contour>
    <contour>
      <point x="366" y="642" type="qcurve" smooth="yes"/>
      <point x="434" y="642"/>
      <point x="545" y="730"/>
      <point x="625" y="867"/>
      <point x="668" y="1021"/>
      <point x="668" y="1087" type="qcurve" smooth="yes"/>
      <point x="668" y="1139"/>
      <point x="640" y="1221"/>
      <point x="579" y="1270"/>
      <point x="527" y="1270" type="qcurve" smooth="yes"/>
      <point x="454" y="1270"/>
      <point x="336" y="1175"/>
      <point x="255" y="1026"/>
      <point x="236" y="942" type="qcurve"/>
      <point x="221" y="882"/>
      <point x="221" y="827" type="qcurve" smooth="yes"/>
      <point x="221" y="775"/>
      <point x="250" y="691"/>
      <point x="314" y="642"/>
    </contour>
  </outline>
</glyph>
<glyph name="uni20B1" format="2">
  <advance width="1167"/>
  <unicode hex="20B1"/>
  <anchor x="469" y="0" name="b.uni0326"/>
  <anchor x="795" y="1411" name="t.ringcmb_1"/>
  <anchor x="0" y="0" name="b.ogonekcmb_2"/>
  <anchor x="0" y="0" name="m.horncmb_3"/>
  <outline>
    <contour>
      <point x="319" y="0" type="line"/>
      <point x="68" y="0" type="line"/>
      <point x="286" y="946" type="line"/>
      <point x="166" y="946" type="line"/>
      <point x="193" y="1055" type="line"/>
      <point x="311" y="1055" type="line"/>
      <point x="393" y="1413" type="line"/>
      <point x="829" y="1413" type="line" smooth="yes"/>
      <point x="948" y="1413"/>
      <point x="1136" y="1339"/>
      <point x="1246" y="1192"/>
      <point x="1246" y="1082" type="qcurve"/>
      <point x="1245" y="1055" type="line"/>
      <point x="1343" y="1055" type="line"/>
      <point x="1317" y="946" type="line"/>
      <point x="1226" y="946" type="line"/>
      <point x="1172" y="768"/>
      <point x="859" y="586"/>
      <point x="651" y="586" type="qcurve" smooth="yes"/>
      <point x="455" y="586" type="line"/>
    </contour>
    <contour>
      <point x="996" y="1055" type="line"/>
      <point x="996" y="1059" type="line" smooth="yes"/>
      <point x="996" y="1116"/>
      <point x="896" y="1176"/>
      <point x="786" y="1176" type="qcurve" smooth="yes"/>
      <point x="590" y="1176" type="line"/>
      <point x="562" y="1055" type="line"/>
    </contour>
    <contour>
      <point x="692" y="823" type="line" smooth="yes"/>
      <point x="893" y="823"/>
      <point x="964" y="946" type="qcurve"/>
      <point x="537" y="946" type="line"/>
      <point x="508" y="823" type="line"/>
    </contour>
  </outline>
</glyph>
<glyph name="uni20B3" format="2">
  <advance width="1343"/>
  <unicode hex="20B3"/>
  <anchor x="557" y="0" name="b.uni0326"/>
  <anchor x="883" y="1411" name="t.ringcmb_1"/>
  <anchor x="1217" y="0" name="b.ogonekcmb_2"/>
  <anchor x="0" y="0" name="m.horncmb_3"/>
  <outline>
    <contour>
      <point x="1214" y="0" type="line"/>
      <point x="944" y="0" type="line"/>
      <point x="905" y="307" type="line"/>
      <point x="356" y="307" type="line"/>
      <point x="176" y="0" type="line"/>
      <point x="-104" y="0" type="line"/>
      <point x="89" y="307" type="line"/>
      <point x="-12" y="307" type="line"/>
      <point x="25" y="463" type="line"/>
      <point x="188" y="463" type="line"/>
      <point x="315" y="666" type="line"/>
      <point x="72" y="666" type="line"/>
      <point x="106" y="821" type="line"/>
      <point x="413" y="821" type="line"/>
      <point x="786" y="1413" type="line"/>
      <point x="977" y="1413" type="line"/>
      <point x="1076" y="821" type="line"/>
      <point x="1384" y="821" type="line"/>
      <point x="1350" y="666" type="line"/>
      <point x="1102" y="666" type="line"/>
      <point x="1136" y="463" type="line"/>
      <point x="1303" y="463" type="line"/>
      <point x="1266" y="307" type="line"/>
      <point x="1163" y="307" type="line"/>
    </contour>
    <contour>
      <point x="850" y="821" type="line"/>
      <point x="815" y="1102" type="line"/>
      <point x="651" y="821" type="line"/>
    </contour>
    <contour>
      <point x="895" y="463" type="line"/>
      <point x="870" y="666" type="line"/>
      <point x="560" y="666" type="line"/>
      <point x="442" y="463" type="line"/>
    </contour>
  </outline>
</glyph>
<glyph name="uni20B4" format="2">
  <advance width="1137"/>
  <unicode hex="20B4"/>
  <anchor x="457" y="0" name="b.uni0326"/>
  <anchor x="782" y="1411" name="t.ringcmb_1"/>
  <anchor x="0" y="0" name="b.ogonekcmb_2"/>
  <anchor x="0" y="0" name="m.horncmb_3"/>
  <outline>
    <contour>
      <point x="444" y="-16" type="qcurve" smooth="yes"/>
      <point x="328" y="-16"/>
      <point x="142" y="63"/>
      <point x="32" y="216"/>
      <point x="32" y="329" type="qcurve" smooth="yes"/>
      <point x="32" y="413"/>
      <point x="93" y="579"/>
      <point x="151" y="640" type="qcurve" smooth="yes"/>
      <point x="228" y="720"/>
      <point x="413" y="809"/>
      <point x="556" y="860" type="qcurve"/>
      <point x="268" y="860" type="line"/>
      <point x="299" y="999" type="line"/>
      <point x="829" y="999" type="line"/>
      <point x="853" y="1025"/>
      <point x="877" y="1082"/>
      <point x="877" y="1106" type="qcurve" smooth="yes"/>
      <point x="877" y="1154"/>
      <point x="798" y="1208"/>
      <point x="739" y="1208" type="qcurve" smooth="yes"/>
      <point x="664" y="1208"/>
      <point x="521" y="1118"/>
      <point x="469" y="1047" type="qcurve"/>
      <point x="285" y="1196" type="line"/>
      <point x="385" y="1321"/>
      <point x="629" y="1434"/>
      <point x="760" y="1434" type="qcurve" smooth="yes"/>
      <point x="862" y="1434"/>
      <point x="1030" y="1364"/>
      <point x="1130" y="1225"/>
      <point x="1130" y="1122" type="qcurve" smooth="yes"/>
      <point x="1130" y="1049"/>
      <point x="1079" y="900"/>
      <point x="1030" y="848" type="qcurve" smooth="yes"/>
      <point x="972" y="787"/>
      <point x="812" y="716"/>
      <point x="689" y="686" type="qcurve"/>
      <point x="1012" y="686" type="line"/>
      <point x="979" y="547" type="line"/>
      <point x="368" y="547" type="line"/>
      <point x="318" y="495"/>
      <point x="299" y="418" type="qcurve"/>
      <point x="291" y="381"/>
      <point x="291" y="355" type="qcurve" smooth="yes"/>
      <point x="291" y="219"/>
      <point x="469" y="219" type="qcurve" smooth="yes"/>
      <point x="582" y="219"/>
      <point x="785" y="345"/>
      <point x="831" y="473" type="qcurve"/>
      <point x="1067" y="389" type="line"/>
      <point x="1012" y="252"/>
      <point x="815" y="72"/>
      <point x="569" y="-16"/>
    </contour>
  </outline>
</glyph>
<glyph name="uni20BD" format="2">
  <advance width="1321"/>
  <unicode hex="20BD"/>
  <outline>
    <contour>
      <point x="422" y="0" type="line"/>
      <point x="170" y="0" type="line"/>
      <point x="229" y="262" type="line"/>
      <point x="51" y="262" type="line"/>
      <point x="96" y="459" type="line"/>
      <point x="274" y="459" type="line"/>
      <point x="309" y="606" type="line"/>
      <point x="131" y="606" type="line"/>
      <point x="180" y="823" type="line"/>
      <point x="358" y="823" type="line"/>
      <point x="496" y="1413" type="line"/>
      <point x="932" y="1413" type="line" smooth="yes"/>
      <point x="1053" y="1413"/>
      <point x="1241" y="1338"/>
      <point x="1349" y="1190"/>
      <point x="1349" y="1082" type="qcurve" smooth="yes"/>
      <point x="1349" y="1034"/>
      <point x="1335" y="973" type="qcurve" smooth="yes"/>
      <point x="1294" y="791"/>
      <point x="984" y="606"/>
      <point x="758" y="606" type="qcurve" smooth="yes"/>
      <point x="561" y="606" type="line"/>
      <point x="526" y="459" type="line"/>
      <point x="860" y="459" type="line"/>
      <point x="815" y="262" type="line"/>
      <point x="481" y="262" type="line"/>
    </contour>
    <contour>
      <point x="795" y="823" type="line" smooth="yes"/>
      <point x="1049" y="823"/>
      <point x="1094" y="1018" type="qcurve"/>
      <point x="1099" y="1043"/>
      <point x="1099" y="1059" type="qcurve" smooth="yes"/>
      <point x="1099" y="1176"/>
      <point x="889" y="1176" type="qcurve" smooth="yes"/>
      <point x="692" y="1176" type="line"/>
      <point x="610" y="823" type="line"/>
    </contour>
  </outline>
</glyph>
<glyph name="trademark" format="2">
  <advance width="1405"/>
  <unicode hex="2122"/>
  <outline>
    <contour>
      <point x="516" y="877" type="line"/>
      <point x="365" y="877" type="line"/>
      <point x="457" y="1274" type="line"/>
      <point x="311" y="1274" type="line"/>
      <point x="344" y="1413" type="line"/>
      <point x="786" y="1413" type="line"/>
      <point x="754" y="1274" type="line"/>
      <point x="608" y="1274" type="line"/>
    </contour>
    <contour>
      <point x="1274" y="877" type="line"/>
      <point x="1122" y="877" type="line"/>
      <point x="1206" y="1231" type="line"/>
      <point x="1083" y="958" type="line"/>
      <point x="987" y="958" type="line"/>
      <point x="987" y="1262" type="line"/>
      <point x="899" y="877" type="line"/>
      <point x="748" y="877" type="line"/>
      <point x="872" y="1413" type="line"/>
      <point x="1061" y="1413" type="line"/>
      <point x="1061" y="1098" type="line"/>
      <point x="1208" y="1413" type="line"/>
      <point x="1399" y="1413" type="line"/>
    </contour>
  </outline>
</glyph>
